<svg width="40" height="40" viewBox="0 0 40 40" fill="none" xmlns="http://www.w3.org/2000/svg">
<rect x="2" y="8" width="36" height="24" rx="3" fill="#1B262C"/>
<path d="M36 22C36 25.3137 33.3137 28 30 28C26.6863 28 24 25.3137 24 22C24 18.6863 26.6863 16 30 16C33.3137 16 36 18.6863 36 22Z" fill="#BBE1FA"/>
<path d="M4 14C4 12.8954 4.89543 12 6 12H24C25.1046 12 26 12.8954 26 14V14C26 15.1046 25.1046 16 24 16H6C4.89543 16 4 15.1046 4 14V14Z" fill="#BBE1FA"/>
<path d="M4 25C4 24.4477 4.44772 24 5 24H20C20.5523 24 21 24.4477 21 25V25C21 25.5523 20.5523 26 20 26H5C4.44772 26 4 25.5523 4 25V25Z" fill="#BBE1FA"/>
<path d="M4 20C4 19.4477 4.44772 19 5 19H20C20.5523 19 21 19.4477 21 20V20C21 20.5523 20.5523 21 20 21H5C4.44772 21 4 20.5523 4 20V20Z" fill="#BBE1FA"/>
</svg>
