<svg width="40" height="40" viewBox="0 0 40 40" fill="none" xmlns="http://www.w3.org/2000/svg">
<rect x="2" y="8" width="36" height="24" rx="3" fill="#1B262C"/>
<path d="M6 13C6 12.4477 6.44772 12 7 12H17C17.5523 12 18 12.4477 18 13V17C18 17.5523 17.5523 18 17 18H7C6.44772 18 6 17.5523 6 17V13Z" fill="#BBE1FA"/>
<path d="M22 13C22 12.4477 22.4477 12 23 12H33C33.5523 12 34 12.4477 34 13V17C34 17.5523 33.5523 18 33 18H23C22.4477 18 22 17.5523 22 17V13Z" fill="#BBE1FA"/>
<path d="M22 23C22 22.4477 22.4477 22 23 22H33C33.5523 22 34 22.4477 34 23V27C34 27.5523 33.5523 28 33 28H23C22.4477 28 22 27.5523 22 27V23Z" fill="#BBE1FA"/>
<path d="M6 23C6 22.4477 6.44772 22 7 22H17C17.5523 22 18 22.4477 18 23V27C18 27.5523 17.5523 28 17 28H7C6.44772 28 6 27.5523 6 27V23Z" fill="#BBE1FA"/>
</svg>
