<svg width="40" height="40" viewBox="0 0 40 40" fill="none" xmlns="http://www.w3.org/2000/svg">
<rect x="2" y="8" width="36" height="24" rx="3" fill="#1B262C"/>
<path d="M6 13.5C6 12.6716 6.67157 12 7.5 12H21.5C22.3284 12 23 12.6716 23 13.5V13.5C23 14.3284 22.3284 15 21.5 15H7.5C6.67157 15 6 14.3284 6 13.5V13.5Z" fill="#BBE1FA"/>
<path d="M6 19C6 18.4477 6.44772 18 7 18H33C33.5523 18 34 18.4477 34 19V19C34 19.5523 33.5523 20 33 20H7C6.44771 20 6 19.5523 6 19V19Z" fill="#BBE1FA"/>
<path d="M6 23C6 22.4477 6.44772 22 7 22H33C33.5523 22 34 22.4477 34 23V23C34 23.5523 33.5523 24 33 24H7C6.44771 24 6 23.5523 6 23V23Z" fill="#BBE1FA"/>
<path d="M6 27C6 26.4477 6.44772 26 7 26H33C33.5523 26 34 26.4477 34 27V27C34 27.5523 33.5523 28 33 28H7C6.44771 28 6 27.5523 6 27V27Z" fill="#BBE1FA"/>
</svg>
