<svg width="200" height="100" viewBox="0 0 200 100" fill="none" xmlns="http://www.w3.org/2000/svg">
<rect width="200" height="100" fill="#BBE1FA"/>
<rect x="5" y="77" width="18" height="18" rx="3" fill="#3282B8"/>
<g clip-path="url(#clip0_306_17)">
<path d="M19.8607 89.477L19.8595 89.4751L19.8575 89.4724L17.645 86.2591C17.3084 85.7152 16.7141 85.3842 16.0744 85.3842H11.9248C11.2851 85.3841 10.6909 85.7152 10.3543 86.2591L8.14146 89.4722L8.13944 89.4751V89.477C7.88557 89.8571 7.98801 90.3711 8.36823 90.6249C8.50391 90.7155 8.6634 90.7639 8.82654 90.7642H19.1726C19.6298 90.764 20.0002 90.3933 20 89.9361C19.9999 89.7727 19.9515 89.6129 19.8607 89.477Z" fill="#1B262C"/>
<path d="M16.9881 82.8312L15.9298 81.2442C15.4996 80.5988 14.7753 80.2112 13.9997 80.2112C13.2241 80.2112 12.4998 80.5988 12.0695 81.2442L11.0113 82.8312C10.8011 83.1466 10.689 83.5172 10.689 83.8963C10.6889 84.1944 10.7583 84.4883 10.8918 84.7549L12.1374 87.2466H15.862L17.1076 84.7549C17.2411 84.4883 17.3105 84.1944 17.3104 83.8963C17.3104 83.5172 17.1982 83.1466 16.9881 82.8312Z" fill="#0A2F47"/>
<path d="M12.5511 82.4873H15.4481V84.9377C15.4481 85.4129 15.0628 85.7981 14.5876 85.7981H13.4116C12.9363 85.7981 12.5511 85.4129 12.5511 84.9377V82.4873Z" fill="#F8C09C"/>
<path d="M13.6685 84.157C13.8695 84.0231 14.1313 84.0231 14.3323 84.157C14.5111 84.2764 14.7402 84.2907 14.9324 84.1944L15.4481 83.937V82.4873H12.5511V83.9358L13.0684 84.1947C13.2607 84.2908 13.4897 84.2764 13.6685 84.157Z" fill="#77604F"/>
<path d="M15.4481 82.9012L17.2975 83.7232C17.2702 83.4046 17.1634 83.098 16.9872 82.8312L15.9289 81.2442C15.2183 80.1781 13.778 79.8901 12.7119 80.6008C12.4572 80.7707 12.2385 80.9893 12.0686 81.2441L11.0104 82.8312C10.8341 83.098 10.7274 83.4046 10.7001 83.7232L12.5512 82.9012H15.4481Z" fill="#0F4C75"/>
<path d="M10.6888 87.2465H17.3103V91.7987H10.6888V87.2465Z" fill="#9EBDD1"/>
</g>
<path d="M31.74 41.556V57H27.978V50.642H22.126V57H18.364V41.556H22.126V47.606H27.978V41.556H31.74ZM33.7078 50.84C33.7078 49.5787 33.9425 48.4713 34.4118 47.518C34.8958 46.5647 35.5485 45.8313 36.3698 45.318C37.1911 44.8047 38.1078 44.548 39.1198 44.548C39.9851 44.548 40.7405 44.724 41.3858 45.076C42.0458 45.428 42.5518 45.89 42.9038 46.462V44.724H46.6658V57H42.9038V55.262C42.5371 55.834 42.0238 56.296 41.3638 56.648C40.7185 57 39.9631 57.176 39.0978 57.176C38.1005 57.176 37.1911 56.9193 36.3698 56.406C35.5485 55.878 34.8958 55.1373 34.4118 54.184C33.9425 53.216 33.7078 52.1013 33.7078 50.84ZM42.9038 50.862C42.9038 49.9233 42.6398 49.1827 42.1118 48.64C41.5985 48.0973 40.9678 47.826 40.2198 47.826C39.4718 47.826 38.8338 48.0973 38.3058 48.64C37.7925 49.168 37.5358 49.9013 37.5358 50.84C37.5358 51.7787 37.7925 52.5267 38.3058 53.084C38.8338 53.6267 39.4718 53.898 40.2198 53.898C40.9678 53.898 41.5985 53.6267 42.1118 53.084C42.6398 52.5413 42.9038 51.8007 42.9038 50.862ZM48.6394 50.862C48.6394 49.586 48.8961 48.4713 49.4094 47.518C49.9374 46.5647 50.6634 45.8313 51.5874 45.318C52.5261 44.8047 53.5968 44.548 54.7994 44.548C56.3394 44.548 57.6228 44.9513 58.6494 45.758C59.6908 46.5647 60.3728 47.7013 60.6954 49.168H56.6914C56.3541 48.2293 55.7014 47.76 54.7334 47.76C54.0441 47.76 53.4941 48.0313 53.0834 48.574C52.6728 49.102 52.4674 49.8647 52.4674 50.862C52.4674 51.8593 52.6728 52.6293 53.0834 53.172C53.4941 53.7 54.0441 53.964 54.7334 53.964C55.7014 53.964 56.3541 53.4947 56.6914 52.556H60.6954C60.3728 53.9933 59.6908 55.1227 58.6494 55.944C57.6081 56.7653 56.3248 57.176 54.7994 57.176C53.5968 57.176 52.5261 56.9193 51.5874 56.406C50.6634 55.8927 49.9374 55.1593 49.4094 54.206C48.8961 53.2527 48.6394 52.138 48.6394 50.862ZM70.2098 57L66.4698 51.852V57H62.7078V40.72H66.4698V49.718L70.1878 44.724H74.8298L69.7258 50.884L74.8738 57H70.2098ZM86.3614 41.556V44.57H80.0694V47.826H84.7774V50.752H80.0694V57H76.3074V41.556H86.3614ZM99.9106 50.664C99.9106 51.016 99.8886 51.3827 99.8446 51.764H91.3306C91.3893 52.5267 91.6313 53.1133 92.0566 53.524C92.4966 53.92 93.0319 54.118 93.6626 54.118C94.6013 54.118 95.2539 53.722 95.6206 52.93H99.6246C99.4193 53.7367 99.0453 54.4627 98.5026 55.108C97.9746 55.7533 97.3073 56.2593 96.5006 56.626C95.6939 56.9927 94.7919 57.176 93.7946 57.176C92.5919 57.176 91.5213 56.9193 90.5826 56.406C89.6439 55.8927 88.9106 55.1593 88.3826 54.206C87.8546 53.2527 87.5906 52.138 87.5906 50.862C87.5906 49.586 87.8473 48.4713 88.3606 47.518C88.8886 46.5647 89.6219 45.8313 90.5606 45.318C91.4993 44.8047 92.5773 44.548 93.7946 44.548C94.9826 44.548 96.0386 44.7973 96.9626 45.296C97.8866 45.7947 98.6053 46.506 99.1186 47.43C99.6466 48.354 99.9106 49.432 99.9106 50.664ZM96.0606 49.674C96.0606 49.0287 95.8406 48.5153 95.4006 48.134C94.9606 47.7527 94.4106 47.562 93.7506 47.562C93.1199 47.562 92.5846 47.7453 92.1446 48.112C91.7193 48.4787 91.4553 48.9993 91.3526 49.674H96.0606ZM106.889 57.176C105.819 57.176 104.865 56.9927 104.029 56.626C103.193 56.2593 102.533 55.7607 102.049 55.13C101.565 54.4847 101.294 53.766 101.235 52.974H104.953C104.997 53.3993 105.195 53.744 105.547 54.008C105.899 54.272 106.332 54.404 106.845 54.404C107.315 54.404 107.674 54.316 107.923 54.14C108.187 53.9493 108.319 53.7073 108.319 53.414C108.319 53.062 108.136 52.8053 107.769 52.644C107.403 52.468 106.809 52.2773 105.987 52.072C105.107 51.8667 104.374 51.654 103.787 51.434C103.201 51.1993 102.695 50.84 102.269 50.356C101.844 49.8573 101.631 49.19 101.631 48.354C101.631 47.65 101.822 47.012 102.203 46.44C102.599 45.8533 103.171 45.3913 103.919 45.054C104.682 44.7167 105.584 44.548 106.625 44.548C108.165 44.548 109.375 44.9293 110.255 45.692C111.15 46.4547 111.663 47.4667 111.795 48.728H108.319C108.261 48.3027 108.07 47.9653 107.747 47.716C107.439 47.4667 107.029 47.342 106.515 47.342C106.075 47.342 105.738 47.43 105.503 47.606C105.269 47.7673 105.151 47.9947 105.151 48.288C105.151 48.64 105.335 48.904 105.701 49.08C106.083 49.256 106.669 49.432 107.461 49.608C108.371 49.8427 109.111 50.0773 109.683 50.312C110.255 50.532 110.754 50.8987 111.179 51.412C111.619 51.9107 111.847 52.5853 111.861 53.436C111.861 54.1547 111.656 54.8 111.245 55.372C110.849 55.9293 110.27 56.3693 109.507 56.692C108.759 57.0147 107.887 57.176 106.889 57.176ZM121.005 53.81V57H119.091C117.727 57 116.663 56.67 115.901 56.01C115.138 55.3353 114.757 54.2427 114.757 52.732V47.848H113.261V44.724H114.757V41.732H118.519V44.724H120.983V47.848H118.519V52.776C118.519 53.1427 118.607 53.4067 118.783 53.568C118.959 53.7293 119.252 53.81 119.663 53.81H121.005ZM127.388 48.75C127.388 46.2273 127.872 44.24 128.84 42.788C129.823 41.336 131.4 40.61 133.57 40.61C135.741 40.61 137.31 41.336 138.278 42.788C139.261 44.24 139.752 46.2273 139.752 48.75C139.752 51.302 139.261 53.304 138.278 54.756C137.31 56.208 135.741 56.934 133.57 56.934C131.4 56.934 129.823 56.208 128.84 54.756C127.872 53.304 127.388 51.302 127.388 48.75ZM136.056 48.75C136.056 47.2687 135.895 46.132 135.572 45.34C135.25 44.5333 134.582 44.13 133.57 44.13C132.558 44.13 131.891 44.5333 131.568 45.34C131.246 46.132 131.084 47.2687 131.084 48.75C131.084 49.7473 131.143 50.576 131.26 51.236C131.378 51.8813 131.612 52.4093 131.964 52.82C132.331 53.216 132.866 53.414 133.57 53.414C134.274 53.414 134.802 53.216 135.154 52.82C135.521 52.4093 135.763 51.8813 135.88 51.236C135.998 50.576 136.056 49.7473 136.056 48.75ZM149.374 57L147.02 53.59L145.04 57H140.97L145.018 50.73L140.86 44.724H145.084L147.438 48.112L149.418 44.724H153.488L149.374 50.906L153.598 57H149.374ZM154.674 48.75C154.674 46.2273 155.158 44.24 156.126 42.788C157.108 41.336 158.685 40.61 160.856 40.61C163.026 40.61 164.596 41.336 165.564 42.788C166.546 44.24 167.038 46.2273 167.038 48.75C167.038 51.302 166.546 53.304 165.564 54.756C164.596 56.208 163.026 56.934 160.856 56.934C158.685 56.934 157.108 56.208 156.126 54.756C155.158 53.304 154.674 51.302 154.674 48.75ZM163.342 48.75C163.342 47.2687 163.18 46.132 162.858 45.34C162.535 44.5333 161.868 44.13 160.856 44.13C159.844 44.13 159.176 44.5333 158.854 45.34C158.531 46.132 158.37 47.2687 158.37 48.75C158.37 49.7473 158.428 50.576 158.546 51.236C158.663 51.8813 158.898 52.4093 159.25 52.82C159.616 53.216 160.152 53.414 160.856 53.414C161.56 53.414 162.088 53.216 162.44 52.82C162.806 52.4093 163.048 51.8813 163.166 51.236C163.283 50.576 163.342 49.7473 163.342 48.75ZM169.113 54.14V51.104L176.065 41.16H180.267V50.884H182.071V54.14H180.267V57H176.505V54.14H169.113ZM176.769 45.296L173.073 50.884H176.769V45.296Z" fill="black"/>
<path d="M21.2715 29.2041C22.0202 29.2041 22.5866 29.3734 22.9707 29.7119C23.3581 30.0472 23.5518 30.5322 23.5518 31.167C23.5518 31.8018 23.3581 32.2884 22.9707 32.627C22.5866 32.9655 22.0202 33.1348 21.2715 33.1348H20.5391V33.999H21.5986C21.6768 33.999 21.737 34.0137 21.7793 34.043C21.8216 34.069 21.8525 34.1178 21.8721 34.1895C21.8949 34.2611 21.9062 34.3652 21.9062 34.502C21.9062 34.6387 21.8949 34.7428 21.8721 34.8145C21.8525 34.8861 21.8216 34.9349 21.7793 34.9609C21.737 34.987 21.6768 35 21.5986 35H18.6006C18.5225 35 18.4622 34.987 18.4199 34.9609C18.3776 34.9349 18.3451 34.8861 18.3223 34.8145C18.3027 34.7428 18.293 34.6387 18.293 34.502C18.293 34.3652 18.3027 34.2611 18.3223 34.1895C18.3451 34.1178 18.3776 34.069 18.4199 34.043C18.4622 34.0137 18.5225 33.999 18.6006 33.999H19.3184V30.2051H18.6006C18.5225 30.2051 18.4622 30.1921 18.4199 30.166C18.3776 30.14 18.3451 30.0911 18.3223 30.0195C18.3027 29.9479 18.293 29.8438 18.293 29.707C18.293 29.5703 18.3027 29.4661 18.3223 29.3945C18.3451 29.3229 18.3776 29.2741 18.4199 29.248C18.4622 29.2188 18.5225 29.2041 18.6006 29.2041H21.2715ZM20.5391 32.085H21.1201C21.5075 32.085 21.7988 32.0101 21.9941 31.8604C22.1927 31.7106 22.292 31.4795 22.292 31.167C22.292 30.8545 22.1927 30.625 21.9941 30.4785C21.7988 30.3288 21.5075 30.2539 21.1201 30.2539H20.5391V32.085ZM28.5225 30.3809C28.7992 30.3809 29.0596 30.472 29.3037 30.6543C29.4469 30.7585 29.5186 30.8952 29.5186 31.0645C29.5186 31.1719 29.4893 31.2988 29.4307 31.4453C29.3721 31.5918 29.3053 31.7025 29.2305 31.7773C29.1589 31.8522 29.0824 31.8896 29.001 31.8896C28.9554 31.8896 28.9066 31.8766 28.8545 31.8506C28.6722 31.7497 28.4834 31.6992 28.2881 31.6992C28.0374 31.6992 27.8031 31.779 27.585 31.9385C27.3669 32.098 27.1911 32.3177 27.0576 32.5977C26.9274 32.8776 26.8623 33.1901 26.8623 33.5352V33.999H28.2637C28.3418 33.999 28.402 34.0137 28.4443 34.043C28.4867 34.069 28.5176 34.1178 28.5371 34.1895C28.5599 34.2611 28.5713 34.3652 28.5713 34.502C28.5713 34.6387 28.5599 34.7428 28.5371 34.8145C28.5176 34.8861 28.4867 34.9349 28.4443 34.9609C28.402 34.987 28.3418 35 28.2637 35H24.9238C24.8457 35 24.7855 34.987 24.7432 34.9609C24.7008 34.9349 24.6683 34.8861 24.6455 34.8145C24.626 34.7428 24.6162 34.6387 24.6162 34.502C24.6162 34.3652 24.626 34.2611 24.6455 34.1895C24.6683 34.1178 24.7008 34.069 24.7432 34.043C24.7855 34.0137 24.8457 33.999 24.9238 33.999H25.6416V31.4893H25.0703C24.9922 31.4893 24.932 31.4762 24.8896 31.4502C24.8473 31.4242 24.8148 31.3753 24.792 31.3037C24.7725 31.2321 24.7627 31.1279 24.7627 30.9912C24.7627 30.8545 24.7725 30.7503 24.792 30.6787C24.8148 30.6071 24.8473 30.5583 24.8896 30.5322C24.932 30.5029 24.9922 30.4883 25.0703 30.4883H26.4082C26.5189 30.4883 26.597 30.5127 26.6426 30.5615C26.6914 30.6071 26.7158 30.6852 26.7158 30.7959V31.8555C26.96 31.3835 27.2399 31.0205 27.5557 30.7666C27.8747 30.5094 28.1969 30.3809 28.5225 30.3809ZM33.0586 30.3809C33.5534 30.3809 33.9749 30.4883 34.3232 30.7031C34.6715 30.9147 34.9336 31.2109 35.1094 31.5918C35.2884 31.9694 35.3779 32.4023 35.3779 32.8906C35.3779 33.0013 35.3535 33.0794 35.3047 33.125C35.2591 33.1706 35.181 33.1934 35.0703 33.1934H31.9355C31.9974 33.4538 32.1292 33.654 32.3311 33.7939C32.5361 33.9307 32.7949 33.999 33.1074 33.999C33.612 33.999 34.1589 33.9095 34.748 33.7305C34.7871 33.7174 34.8262 33.7109 34.8652 33.7109C34.9368 33.7109 34.9987 33.7435 35.0508 33.8086C35.1029 33.8737 35.1501 33.9844 35.1924 34.1406C35.2249 34.2611 35.2412 34.3636 35.2412 34.4482C35.2412 34.5329 35.2217 34.5996 35.1826 34.6484C35.1468 34.694 35.0866 34.7314 35.002 34.7607C34.6764 34.8682 34.3444 34.9528 34.0059 35.0146C33.6673 35.0765 33.3353 35.1074 33.0098 35.1074C32.515 35.1074 32.0885 35.0065 31.7305 34.8047C31.3724 34.6029 31.099 34.3245 30.9102 33.9697C30.7246 33.6117 30.6318 33.2031 30.6318 32.7441C30.6318 32.2884 30.7295 31.8815 30.9248 31.5234C31.1201 31.1654 31.4017 30.8854 31.7695 30.6836C32.1374 30.4818 32.5671 30.3809 33.0586 30.3809ZM33.0586 31.4893C32.4629 31.4893 32.0951 31.7399 31.9551 32.2412H34.1035C34.0482 32.0036 33.9294 31.8197 33.7471 31.6895C33.568 31.556 33.3385 31.4893 33.0586 31.4893ZM39.3086 28.5938C39.4193 28.5938 39.4974 28.6182 39.543 28.667C39.5918 28.7126 39.6162 28.7907 39.6162 28.9014V33.999H40.9883C41.0664 33.999 41.1266 34.0137 41.1689 34.043C41.2113 34.069 41.2422 34.1178 41.2617 34.1895C41.2845 34.2611 41.2959 34.3652 41.2959 34.502C41.2959 34.6387 41.2845 34.7428 41.2617 34.8145C41.2422 34.8861 41.2113 34.9349 41.1689 34.9609C41.1266 34.987 41.0664 35 40.9883 35H37.0625C36.9844 35 36.9242 34.987 36.8818 34.9609C36.8395 34.9349 36.807 34.8861 36.7842 34.8145C36.7646 34.7428 36.7549 34.6387 36.7549 34.502C36.7549 34.3652 36.7646 34.2611 36.7842 34.1895C36.807 34.1178 36.8395 34.069 36.8818 34.043C36.9242 34.0137 36.9844 33.999 37.0625 33.999H38.3955V29.5947H37.2578C37.1797 29.5947 37.1195 29.5817 37.0771 29.5557C37.0348 29.5296 37.0023 29.4808 36.9795 29.4092C36.96 29.3376 36.9502 29.2334 36.9502 29.0967C36.9502 28.96 36.96 28.8558 36.9795 28.7842C37.0023 28.7126 37.0348 28.6637 37.0771 28.6377C37.1195 28.6084 37.1797 28.5938 37.2578 28.5938H39.3086ZM45.3535 30.4883C45.4642 30.4883 45.5423 30.5127 45.5879 30.5615C45.6367 30.6071 45.6611 30.6852 45.6611 30.7959V33.999H47.0332C47.1113 33.999 47.1715 34.0137 47.2139 34.043C47.2562 34.069 47.2871 34.1178 47.3066 34.1895C47.3294 34.2611 47.3408 34.3652 47.3408 34.502C47.3408 34.6387 47.3294 34.7428 47.3066 34.8145C47.2871 34.8861 47.2562 34.9349 47.2139 34.9609C47.1715 34.987 47.1113 35 47.0332 35H43.1074C43.0293 35 42.9691 34.987 42.9268 34.9609C42.8844 34.9349 42.8519 34.8861 42.8291 34.8145C42.8096 34.7428 42.7998 34.6387 42.7998 34.502C42.7998 34.3652 42.8096 34.2611 42.8291 34.1895C42.8519 34.1178 42.8844 34.069 42.9268 34.043C42.9691 34.0137 43.0293 33.999 43.1074 33.999H44.4404V31.4893H43.4004C43.3223 31.4893 43.262 31.4762 43.2197 31.4502C43.1774 31.4242 43.1449 31.3753 43.1221 31.3037C43.1025 31.2321 43.0928 31.1279 43.0928 30.9912C43.0928 30.8545 43.1025 30.7503 43.1221 30.6787C43.1449 30.6071 43.1774 30.5583 43.2197 30.5322C43.262 30.5029 43.3223 30.4883 43.4004 30.4883H45.3535ZM45.0361 28.3447C45.2673 28.3447 45.4284 28.3691 45.5195 28.418C45.6139 28.4635 45.6611 28.5417 45.6611 28.6523V29.4531C45.6611 29.5638 45.6172 29.6436 45.5293 29.6924C45.4447 29.738 45.2884 29.7607 45.0605 29.7607C44.8327 29.7607 44.6715 29.738 44.5771 29.6924C44.486 29.6436 44.4404 29.5638 44.4404 29.4531V28.6523C44.4404 28.5384 44.4827 28.4587 44.5674 28.4131C44.652 28.3675 44.8083 28.3447 45.0361 28.3447ZM52.6973 30.3809C52.9967 30.3809 53.2327 30.5029 53.4053 30.7471C53.5778 30.9912 53.6641 31.3623 53.6641 31.8604V34.6924C53.6641 34.8031 53.6396 34.8828 53.5908 34.9316C53.5452 34.9772 53.4671 35 53.3564 35H52.751C52.6403 35 52.5605 34.9772 52.5117 34.9316C52.4661 34.8828 52.4434 34.8031 52.4434 34.6924V32.1387C52.4434 31.9661 52.4222 31.8392 52.3799 31.7578C52.3408 31.6764 52.2773 31.6357 52.1895 31.6357C52.0365 31.6357 51.9144 31.7546 51.8232 31.9922C51.7354 32.2298 51.6914 32.5765 51.6914 33.0322V34.6924C51.6914 34.8031 51.667 34.8828 51.6182 34.9316C51.5726 34.9772 51.4945 35 51.3838 35H50.7783C50.6676 35 50.5879 34.9772 50.5391 34.9316C50.4935 34.8828 50.4707 34.8031 50.4707 34.6924V32.1387C50.4707 31.9661 50.4495 31.8392 50.4072 31.7578C50.3682 31.6764 50.3047 31.6357 50.2168 31.6357C50.0638 31.6357 49.9417 31.7546 49.8506 31.9922C49.7627 32.2298 49.7188 32.5765 49.7188 33.0322V34.6924C49.7188 34.8031 49.6943 34.8828 49.6455 34.9316C49.5999 34.9772 49.5218 35 49.4111 35H48.8057C48.695 35 48.6152 34.9772 48.5664 34.9316C48.5208 34.8828 48.498 34.8031 48.498 34.6924V31.4893H48.2197C48.1416 31.4893 48.0814 31.4762 48.0391 31.4502C47.9967 31.4242 47.9658 31.3753 47.9463 31.3037C47.9235 31.2321 47.9121 31.1279 47.9121 30.9912C47.9121 30.8545 47.9235 30.7503 47.9463 30.6787C47.9658 30.6071 47.9967 30.5583 48.0391 30.5322C48.0814 30.5029 48.1416 30.4883 48.2197 30.4883H49.0693C49.18 30.4883 49.2581 30.5127 49.3037 30.5615C49.3525 30.6071 49.377 30.6852 49.377 30.7959V31.499C49.5299 31.1312 49.709 30.8529 49.9141 30.6641C50.1224 30.4753 50.3503 30.3809 50.5977 30.3809C51.0794 30.3809 51.3903 30.7113 51.5303 31.3721C51.68 31.0465 51.8542 30.8008 52.0527 30.6348C52.2513 30.4655 52.4661 30.3809 52.6973 30.3809ZM57.3457 30.4883C57.4564 30.4883 57.5345 30.5127 57.5801 30.5615C57.6289 30.6071 57.6533 30.6852 57.6533 30.7959V33.999H59.0254C59.1035 33.999 59.1637 34.0137 59.2061 34.043C59.2484 34.069 59.2793 34.1178 59.2988 34.1895C59.3216 34.2611 59.333 34.3652 59.333 34.502C59.333 34.6387 59.3216 34.7428 59.2988 34.8145C59.2793 34.8861 59.2484 34.9349 59.2061 34.9609C59.1637 34.987 59.1035 35 59.0254 35H55.0996C55.0215 35 54.9613 34.987 54.9189 34.9609C54.8766 34.9349 54.8441 34.8861 54.8213 34.8145C54.8018 34.7428 54.792 34.6387 54.792 34.502C54.792 34.3652 54.8018 34.2611 54.8213 34.1895C54.8441 34.1178 54.8766 34.069 54.9189 34.043C54.9613 34.0137 55.0215 33.999 55.0996 33.999H56.4326V31.4893H55.3926C55.3145 31.4893 55.2542 31.4762 55.2119 31.4502C55.1696 31.4242 55.137 31.3753 55.1143 31.3037C55.0947 31.2321 55.085 31.1279 55.085 30.9912C55.085 30.8545 55.0947 30.7503 55.1143 30.6787C55.137 30.6071 55.1696 30.5583 55.2119 30.5322C55.2542 30.5029 55.3145 30.4883 55.3926 30.4883H57.3457ZM57.0283 28.3447C57.2594 28.3447 57.4206 28.3691 57.5117 28.418C57.6061 28.4635 57.6533 28.5417 57.6533 28.6523V29.4531C57.6533 29.5638 57.6094 29.6436 57.5215 29.6924C57.4368 29.738 57.2806 29.7607 57.0527 29.7607C56.8249 29.7607 56.6637 29.738 56.5693 29.6924C56.4782 29.6436 56.4326 29.5638 56.4326 29.4531V28.6523C56.4326 28.5384 56.4749 28.4587 56.5596 28.4131C56.6442 28.3675 56.8005 28.3447 57.0283 28.3447ZM63.6689 30.3809C63.9652 30.3809 64.224 30.446 64.4453 30.5762C64.6699 30.7064 64.8424 30.8919 64.9629 31.1328C65.0833 31.3704 65.1436 31.6504 65.1436 31.9727V33.999H65.5195C65.5977 33.999 65.6579 34.0137 65.7002 34.043C65.7425 34.069 65.7734 34.1178 65.793 34.1895C65.8158 34.2611 65.8271 34.3652 65.8271 34.502C65.8271 34.6387 65.8158 34.7428 65.793 34.8145C65.7734 34.8861 65.7425 34.9349 65.7002 34.9609C65.6579 34.987 65.5977 35 65.5195 35H63.6934C63.6152 35 63.555 34.987 63.5127 34.9609C63.4704 34.9349 63.4378 34.8861 63.415 34.8145C63.3955 34.7428 63.3857 34.6387 63.3857 34.502C63.3857 34.3652 63.3955 34.2611 63.415 34.1895C63.4378 34.1178 63.4704 34.069 63.5127 34.043C63.555 34.0137 63.6152 33.999 63.6934 33.999H63.9229V32.2607C63.9229 32.0068 63.8789 31.8148 63.791 31.6846C63.7031 31.5544 63.5566 31.4893 63.3516 31.4893C63.1628 31.4893 62.9837 31.569 62.8145 31.7285C62.6452 31.8848 62.5085 32.0947 62.4043 32.3584C62.3034 32.6221 62.2529 32.9036 62.2529 33.2031V33.999H62.4824C62.5605 33.999 62.6208 34.0137 62.6631 34.043C62.7054 34.069 62.7363 34.1178 62.7559 34.1895C62.7786 34.2611 62.79 34.3652 62.79 34.502C62.79 34.6387 62.7786 34.7428 62.7559 34.8145C62.7363 34.8861 62.7054 34.9349 62.6631 34.9609C62.6208 34.987 62.5605 35 62.4824 35H60.6562C60.5781 35 60.5179 34.987 60.4756 34.9609C60.4333 34.9349 60.4007 34.8861 60.3779 34.8145C60.3584 34.7428 60.3486 34.6387 60.3486 34.502C60.3486 34.3652 60.3584 34.2611 60.3779 34.1895C60.4007 34.1178 60.4333 34.069 60.4756 34.043C60.5179 34.0137 60.5781 33.999 60.6562 33.999H61.0322V31.4893H60.5586C60.4805 31.4893 60.4202 31.4762 60.3779 31.4502C60.3356 31.4242 60.3031 31.3753 60.2803 31.3037C60.2607 31.2321 60.251 31.1279 60.251 30.9912C60.251 30.8545 60.2607 30.7503 60.2803 30.6787C60.3031 30.6071 60.3356 30.5583 60.3779 30.5322C60.4202 30.5029 60.4805 30.4883 60.5586 30.4883H61.75C61.8607 30.4883 61.9388 30.5127 61.9844 30.5615C62.0332 30.6071 62.0576 30.6852 62.0576 30.7959V31.5039C62.4873 30.7552 63.0244 30.3809 63.6689 30.3809ZM68.9131 30.3809C69.6292 30.3809 70.1468 30.5355 70.4658 30.8447C70.7848 31.154 70.9443 31.5967 70.9443 32.1729V33.584C70.9443 33.7142 70.972 33.8167 71.0273 33.8916C71.0827 33.9632 71.1624 33.999 71.2666 33.999H71.418C71.4961 33.999 71.5563 34.0137 71.5986 34.043C71.641 34.069 71.6719 34.1178 71.6914 34.1895C71.7142 34.2611 71.7256 34.3652 71.7256 34.502C71.7256 34.6387 71.7142 34.7428 71.6914 34.8145C71.6719 34.8861 71.641 34.9349 71.5986 34.9609C71.5563 34.987 71.4961 35 71.418 35H70.8711C70.6693 35 70.4902 34.9593 70.334 34.8779C70.181 34.7933 70.0638 34.6615 69.9824 34.4824C69.7253 34.681 69.4535 34.8356 69.167 34.9463C68.8805 35.0537 68.5859 35.1074 68.2832 35.1074C67.9154 35.1074 67.598 35.0456 67.3311 34.9219C67.0641 34.7949 66.859 34.6159 66.7158 34.3848C66.5758 34.1504 66.5059 33.8753 66.5059 33.5596C66.5059 33.1038 66.667 32.7507 66.9893 32.5C67.3115 32.2493 67.7624 32.124 68.3418 32.124C68.7747 32.124 69.2354 32.1729 69.7236 32.2705V32.1289C69.7236 31.9108 69.6553 31.7497 69.5186 31.6455C69.3818 31.5413 69.141 31.4893 68.7959 31.4893C68.6038 31.4893 68.389 31.5137 68.1514 31.5625C67.917 31.6081 67.6842 31.6699 67.4531 31.748C67.3978 31.7643 67.3506 31.7725 67.3115 31.7725C67.2301 31.7725 67.1569 31.7432 67.0918 31.6846C67.0299 31.6227 66.973 31.5202 66.9209 31.377C66.8721 31.2337 66.8477 31.1165 66.8477 31.0254C66.8477 30.8594 66.9225 30.7487 67.0723 30.6934C67.362 30.5892 67.6696 30.5111 67.9951 30.459C68.3206 30.4069 68.6266 30.3809 68.9131 30.3809ZM68.4639 33.1299C68.236 33.1299 68.0618 33.1706 67.9414 33.252C67.8242 33.3333 67.7656 33.4521 67.7656 33.6084C67.7656 33.7614 67.8226 33.8786 67.9365 33.96C68.0537 34.0381 68.2214 34.0771 68.4395 34.0771C68.6641 34.0771 68.8854 34.0332 69.1035 33.9453C69.3249 33.8542 69.5316 33.7305 69.7236 33.5742V33.2617C69.2939 33.1738 68.874 33.1299 68.4639 33.1299ZM76.4912 30.3809C76.7679 30.3809 77.0283 30.472 77.2725 30.6543C77.4157 30.7585 77.4873 30.8952 77.4873 31.0645C77.4873 31.1719 77.458 31.2988 77.3994 31.4453C77.3408 31.5918 77.2741 31.7025 77.1992 31.7773C77.1276 31.8522 77.0511 31.8896 76.9697 31.8896C76.9242 31.8896 76.8753 31.8766 76.8232 31.8506C76.641 31.7497 76.4521 31.6992 76.2568 31.6992C76.0062 31.6992 75.7718 31.779 75.5537 31.9385C75.3356 32.098 75.1598 32.3177 75.0264 32.5977C74.8962 32.8776 74.8311 33.1901 74.8311 33.5352V33.999H76.2324C76.3105 33.999 76.3708 34.0137 76.4131 34.043C76.4554 34.069 76.4863 34.1178 76.5059 34.1895C76.5286 34.2611 76.54 34.3652 76.54 34.502C76.54 34.6387 76.5286 34.7428 76.5059 34.8145C76.4863 34.8861 76.4554 34.9349 76.4131 34.9609C76.3708 34.987 76.3105 35 76.2324 35H72.8926C72.8145 35 72.7542 34.987 72.7119 34.9609C72.6696 34.9349 72.637 34.8861 72.6143 34.8145C72.5947 34.7428 72.585 34.6387 72.585 34.502C72.585 34.3652 72.5947 34.2611 72.6143 34.1895C72.637 34.1178 72.6696 34.069 72.7119 34.043C72.7542 34.0137 72.8145 33.999 72.8926 33.999H73.6104V31.4893H73.0391C72.9609 31.4893 72.9007 31.4762 72.8584 31.4502C72.8161 31.4242 72.7835 31.3753 72.7607 31.3037C72.7412 31.2321 72.7314 31.1279 72.7314 30.9912C72.7314 30.8545 72.7412 30.7503 72.7607 30.6787C72.7835 30.6071 72.8161 30.5583 72.8584 30.5322C72.9007 30.5029 72.9609 30.4883 73.0391 30.4883H74.377C74.4876 30.4883 74.5658 30.5127 74.6113 30.5615C74.6602 30.6071 74.6846 30.6852 74.6846 30.7959V31.8555C74.9287 31.3835 75.2087 31.0205 75.5244 30.7666C75.8434 30.5094 76.1657 30.3809 76.4912 30.3809ZM83.4541 30.4883C83.5322 30.4883 83.5924 30.5029 83.6348 30.5322C83.6771 30.5583 83.708 30.6071 83.7275 30.6787C83.7503 30.7503 83.7617 30.8545 83.7617 30.9912C83.7617 31.1279 83.7503 31.2321 83.7275 31.3037C83.708 31.3753 83.6771 31.4242 83.6348 31.4502C83.5924 31.4762 83.5322 31.4893 83.4541 31.4893H83.1416L81.2715 35.2783C81.0436 35.7373 80.8255 36.0856 80.6172 36.3232C80.4121 36.5641 80.1761 36.7334 79.9092 36.8311C79.6455 36.932 79.3037 36.9889 78.8838 37.002C78.7666 37.0052 78.6771 36.9613 78.6152 36.8701C78.5566 36.779 78.5273 36.613 78.5273 36.3721C78.5273 36.2061 78.5485 36.0872 78.5908 36.0156C78.6364 35.944 78.6999 35.9049 78.7812 35.8984C79.0384 35.8822 79.2467 35.8333 79.4062 35.752C79.569 35.6706 79.7155 35.5404 79.8457 35.3613C79.9792 35.1855 80.1387 34.9186 80.3242 34.5605L78.8301 31.4893H78.4639C78.3857 31.4893 78.3255 31.4762 78.2832 31.4502C78.2409 31.4242 78.2083 31.3753 78.1855 31.3037C78.166 31.2321 78.1562 31.1279 78.1562 30.9912C78.1562 30.8545 78.166 30.7503 78.1855 30.6787C78.2083 30.6071 78.2409 30.5583 78.2832 30.5322C78.3255 30.5029 78.3857 30.4883 78.4639 30.4883H80.4365C80.5146 30.4883 80.5749 30.5029 80.6172 30.5322C80.6595 30.5583 80.6904 30.6071 80.71 30.6787C80.7327 30.7503 80.7441 30.8545 80.7441 30.9912C80.7441 31.1279 80.7327 31.2321 80.71 31.3037C80.6904 31.3753 80.6595 31.4242 80.6172 31.4502C80.5749 31.4762 80.5146 31.4893 80.4365 31.4893H80.1436L80.9932 33.3447L81.8428 31.4893H81.5791C81.501 31.4893 81.4408 31.4762 81.3984 31.4502C81.3561 31.4242 81.3236 31.3753 81.3008 31.3037C81.2812 31.2321 81.2715 31.1279 81.2715 30.9912C81.2715 30.8545 81.2812 30.7503 81.3008 30.6787C81.3236 30.6071 81.3561 30.5583 81.3984 30.5322C81.4408 30.5029 81.501 30.4883 81.5791 30.4883H83.4541Z" fill="black"/>
<path d="M93.132 64.592C93.132 64.3147 93.192 64.068 93.312 63.852C93.432 63.6333 93.5987 63.464 93.812 63.344C94.028 63.2213 94.272 63.16 94.544 63.16C94.8773 63.16 95.1627 63.248 95.4 63.424C95.6373 63.6 95.796 63.84 95.876 64.144H95.124C95.068 64.0267 94.988 63.9373 94.884 63.876C94.7827 63.8147 94.6667 63.784 94.536 63.784C94.3253 63.784 94.1547 63.8573 94.024 64.004C93.8933 64.1507 93.828 64.3467 93.828 64.592C93.828 64.8373 93.8933 65.0333 94.024 65.18C94.1547 65.3267 94.3253 65.4 94.536 65.4C94.6667 65.4 94.7827 65.3693 94.884 65.308C94.988 65.2467 95.068 65.1573 95.124 65.04H95.876C95.796 65.344 95.6373 65.584 95.4 65.76C95.1627 65.9333 94.8773 66.02 94.544 66.02C94.272 66.02 94.028 65.96 93.812 65.84C93.5987 65.7173 93.432 65.548 93.312 65.332C93.192 65.116 93.132 64.8693 93.132 64.592ZM98.5749 63.768L97.1749 67.06H96.4389L96.9509 65.924L96.0429 63.768H96.8069L97.3229 65.164L97.8349 63.768H98.5749ZM99.5062 64.084C99.5702 63.98 99.6622 63.896 99.7822 63.832C99.9022 63.768 100.04 63.736 100.194 63.736C100.378 63.736 100.545 63.7827 100.694 63.876C100.844 63.9693 100.961 64.1027 101.046 64.276C101.134 64.4493 101.178 64.6507 101.178 64.88C101.178 65.1093 101.134 65.312 101.046 65.488C100.961 65.6613 100.844 65.796 100.694 65.892C100.545 65.9853 100.378 66.032 100.194 66.032C100.037 66.032 99.8996 66.0013 99.7822 65.94C99.6649 65.876 99.5729 65.792 99.5062 65.688V66H98.8222V63.04H99.5062V64.084ZM100.482 64.88C100.482 64.7093 100.434 64.576 100.338 64.48C100.245 64.3813 100.129 64.332 99.9902 64.332C99.8542 64.332 99.7382 64.3813 99.6422 64.48C99.5489 64.5787 99.5022 64.7133 99.5022 64.884C99.5022 65.0547 99.5489 65.1893 99.6422 65.288C99.7382 65.3867 99.8542 65.436 99.9902 65.436C100.126 65.436 100.242 65.3867 100.338 65.288C100.434 65.1867 100.482 65.0507 100.482 64.88ZM103.641 64.848C103.641 64.912 103.637 64.9787 103.629 65.048H102.081C102.092 65.1867 102.136 65.2933 102.213 65.368C102.293 65.44 102.39 65.476 102.505 65.476C102.676 65.476 102.794 65.404 102.861 65.26H103.589C103.552 65.4067 103.484 65.5387 103.385 65.656C103.289 65.7733 103.168 65.8653 103.021 65.932C102.874 65.9987 102.71 66.032 102.529 66.032C102.31 66.032 102.116 65.9853 101.945 65.892C101.774 65.7987 101.641 65.6653 101.545 65.492C101.449 65.3187 101.401 65.116 101.401 64.884C101.401 64.652 101.448 64.4493 101.541 64.276C101.637 64.1027 101.77 63.9693 101.941 63.876C102.112 63.7827 102.308 63.736 102.529 63.736C102.745 63.736 102.937 63.7813 103.105 63.872C103.273 63.9627 103.404 64.092 103.497 64.26C103.593 64.428 103.641 64.624 103.641 64.848ZM102.941 64.668C102.941 64.5507 102.901 64.4573 102.821 64.388C102.741 64.3187 102.641 64.284 102.521 64.284C102.406 64.284 102.309 64.3173 102.229 64.384C102.152 64.4507 102.104 64.5453 102.085 64.668H102.941ZM104.686 64.14C104.766 64.0173 104.866 63.9213 104.986 63.852C105.106 63.78 105.239 63.744 105.386 63.744V64.468H105.198C105.027 64.468 104.899 64.5053 104.814 64.58C104.729 64.652 104.686 64.78 104.686 64.964V66H104.002V63.768H104.686V64.14ZM106.444 64.592C106.444 64.3147 106.505 64.068 106.625 63.852C106.745 63.6333 106.911 63.464 107.125 63.344C107.341 63.2213 107.585 63.16 107.857 63.16C108.19 63.16 108.475 63.248 108.713 63.424C108.95 63.6 109.109 63.84 109.189 64.144H108.437C108.381 64.0267 108.301 63.9373 108.197 63.876C108.095 63.8147 107.979 63.784 107.849 63.784C107.638 63.784 107.467 63.8573 107.337 64.004C107.206 64.1507 107.141 64.3467 107.141 64.592C107.141 64.8373 107.206 65.0333 107.337 65.18C107.467 65.3267 107.638 65.4 107.849 65.4C107.979 65.4 108.095 65.3693 108.197 65.308C108.301 65.2467 108.381 65.1573 108.437 65.04H109.189C109.109 65.344 108.95 65.584 108.713 65.76C108.475 65.9333 108.19 66.02 107.857 66.02C107.585 66.02 107.341 65.96 107.125 65.84C106.911 65.7173 106.745 65.548 106.625 65.332C106.505 65.116 106.444 64.8693 106.444 64.592ZM110.623 66.032C110.405 66.032 110.207 65.9853 110.031 65.892C109.858 65.7987 109.721 65.6653 109.619 65.492C109.521 65.3187 109.471 65.116 109.471 64.884C109.471 64.6547 109.522 64.4533 109.623 64.28C109.725 64.104 109.863 63.9693 110.039 63.876C110.215 63.7827 110.413 63.736 110.631 63.736C110.85 63.736 111.047 63.7827 111.223 63.876C111.399 63.9693 111.538 64.104 111.639 64.28C111.741 64.4533 111.791 64.6547 111.791 64.884C111.791 65.1133 111.739 65.316 111.635 65.492C111.534 65.6653 111.394 65.7987 111.215 65.892C111.039 65.9853 110.842 66.032 110.623 66.032ZM110.623 65.44C110.754 65.44 110.865 65.392 110.955 65.296C111.049 65.2 111.095 65.0627 111.095 64.884C111.095 64.7053 111.05 64.568 110.959 64.472C110.871 64.376 110.762 64.328 110.631 64.328C110.498 64.328 110.387 64.376 110.299 64.472C110.211 64.5653 110.167 64.7027 110.167 64.884C110.167 65.0627 110.21 65.2 110.295 65.296C110.383 65.392 110.493 65.44 110.623 65.44ZM115.002 63.744C115.28 63.744 115.5 63.828 115.662 63.996C115.828 64.164 115.91 64.3973 115.91 64.696V66H115.23V64.788C115.23 64.644 115.192 64.5333 115.114 64.456C115.04 64.376 114.936 64.336 114.802 64.336C114.669 64.336 114.564 64.376 114.486 64.456C114.412 64.5333 114.374 64.644 114.374 64.788V66H113.694V64.788C113.694 64.644 113.656 64.5333 113.578 64.456C113.504 64.376 113.4 64.336 113.266 64.336C113.133 64.336 113.028 64.376 112.95 64.456C112.876 64.5333 112.838 64.644 112.838 64.788V66H112.154V63.768H112.838V64.048C112.908 63.9547 112.998 63.8813 113.11 63.828C113.222 63.772 113.349 63.744 113.49 63.744C113.658 63.744 113.808 63.78 113.938 63.852C114.072 63.924 114.176 64.0267 114.25 64.16C114.328 64.0373 114.433 63.9373 114.566 63.86C114.7 63.7827 114.845 63.744 115.002 63.744ZM119.237 63.744C119.514 63.744 119.734 63.828 119.897 63.996C120.062 64.164 120.145 64.3973 120.145 64.696V66H119.465V64.788C119.465 64.644 119.426 64.5333 119.349 64.456C119.274 64.376 119.17 64.336 119.037 64.336C118.903 64.336 118.798 64.376 118.721 64.456C118.646 64.5333 118.609 64.644 118.609 64.788V66H117.929V64.788C117.929 64.644 117.89 64.5333 117.813 64.456C117.738 64.376 117.634 64.336 117.501 64.336C117.367 64.336 117.262 64.376 117.185 64.456C117.11 64.5333 117.073 64.644 117.073 64.788V66H116.389V63.768H117.073V64.048C117.142 63.9547 117.233 63.8813 117.345 63.828C117.457 63.772 117.583 63.744 117.725 63.744C117.893 63.744 118.042 63.78 118.173 63.852C118.306 63.924 118.41 64.0267 118.485 64.16C118.562 64.0373 118.667 63.9373 118.801 63.86C118.934 63.7827 119.079 63.744 119.237 63.744ZM122.827 63.768V66H122.143V65.696C122.074 65.7947 121.979 65.8747 121.859 65.936C121.742 65.9947 121.611 66.024 121.467 66.024C121.296 66.024 121.146 65.9867 121.015 65.912C120.884 65.8347 120.783 65.724 120.711 65.58C120.639 65.436 120.603 65.2667 120.603 65.072V63.768H121.283V64.98C121.283 65.1293 121.322 65.2453 121.399 65.328C121.476 65.4107 121.58 65.452 121.711 65.452C121.844 65.452 121.95 65.4107 122.027 65.328C122.104 65.2453 122.143 65.1293 122.143 64.98V63.768H122.827ZM124.678 63.744C124.94 63.744 125.148 63.8293 125.302 64C125.46 64.168 125.538 64.4 125.538 64.696V66H124.858V64.788C124.858 64.6387 124.82 64.5227 124.742 64.44C124.665 64.3573 124.561 64.316 124.43 64.316C124.3 64.316 124.196 64.3573 124.118 64.44C124.041 64.5227 124.002 64.6387 124.002 64.788V66H123.318V63.768H124.002V64.064C124.072 63.9653 124.165 63.888 124.282 63.832C124.4 63.7733 124.532 63.744 124.678 63.744ZM126.358 63.536C126.238 63.536 126.139 63.5013 126.062 63.432C125.987 63.36 125.95 63.272 125.95 63.168C125.95 63.0613 125.987 62.9733 126.062 62.904C126.139 62.832 126.238 62.796 126.358 62.796C126.475 62.796 126.571 62.832 126.646 62.904C126.723 62.9733 126.762 63.0613 126.762 63.168C126.762 63.272 126.723 63.36 126.646 63.432C126.571 63.5013 126.475 63.536 126.358 63.536ZM126.698 63.768V66H126.014V63.768H126.698ZM128.437 65.42V66H128.089C127.841 66 127.648 65.94 127.509 65.82C127.371 65.6973 127.301 65.4987 127.301 65.224V64.336H127.029V63.768H127.301V63.224H127.985V63.768H128.433V64.336H127.985V65.232C127.985 65.2987 128.001 65.3467 128.033 65.376C128.065 65.4053 128.119 65.42 128.193 65.42H128.437ZM131.098 63.768L129.698 67.06H128.962L129.474 65.924L128.566 63.768H129.33L129.846 65.164L130.358 63.768H131.098ZM133.713 63.192V64.872C133.713 65.04 133.754 65.1693 133.837 65.26C133.92 65.3507 134.041 65.396 134.201 65.396C134.361 65.396 134.484 65.3507 134.569 65.26C134.654 65.1693 134.697 65.04 134.697 64.872V63.192H135.381V64.868C135.381 65.1187 135.328 65.3307 135.221 65.504C135.114 65.6773 134.97 65.808 134.789 65.896C134.61 65.984 134.41 66.028 134.189 66.028C133.968 66.028 133.769 65.9853 133.593 65.9C133.42 65.812 133.282 65.6813 133.181 65.508C133.08 65.332 133.029 65.1187 133.029 64.868V63.192H133.713ZM137.221 63.744C137.483 63.744 137.691 63.8293 137.845 64C138.003 64.168 138.081 64.4 138.081 64.696V66H137.401V64.788C137.401 64.6387 137.363 64.5227 137.285 64.44C137.208 64.3573 137.104 64.316 136.973 64.316C136.843 64.316 136.739 64.3573 136.661 64.44C136.584 64.5227 136.545 64.6387 136.545 64.788V66H135.861V63.768H136.545V64.064C136.615 63.9653 136.708 63.888 136.825 63.832C136.943 63.7733 137.075 63.744 137.221 63.744ZM138.901 63.536C138.781 63.536 138.682 63.5013 138.605 63.432C138.53 63.36 138.493 63.272 138.493 63.168C138.493 63.0613 138.53 62.9733 138.605 62.904C138.682 62.832 138.781 62.796 138.901 62.796C139.018 62.796 139.114 62.832 139.189 62.904C139.266 62.9733 139.305 63.0613 139.305 63.168C139.305 63.272 139.266 63.36 139.189 63.432C139.114 63.5013 139.018 63.536 138.901 63.536ZM139.241 63.768V66H138.557V63.768H139.241ZM140.74 65.36L141.224 63.768H141.952L141.16 66H140.316L139.524 63.768H140.256L140.74 65.36ZM144.344 64.848C144.344 64.912 144.34 64.9787 144.332 65.048H142.784C142.795 65.1867 142.839 65.2933 142.916 65.368C142.996 65.44 143.094 65.476 143.208 65.476C143.379 65.476 143.498 65.404 143.564 65.26H144.292C144.255 65.4067 144.187 65.5387 144.088 65.656C143.992 65.7733 143.871 65.8653 143.724 65.932C143.578 65.9987 143.414 66.032 143.232 66.032C143.014 66.032 142.819 65.9853 142.648 65.892C142.478 65.7987 142.344 65.6653 142.248 65.492C142.152 65.3187 142.104 65.116 142.104 64.884C142.104 64.652 142.151 64.4493 142.244 64.276C142.34 64.1027 142.474 63.9693 142.644 63.876C142.815 63.7827 143.011 63.736 143.232 63.736C143.448 63.736 143.64 63.7813 143.808 63.872C143.976 63.9627 144.107 64.092 144.2 64.26C144.296 64.428 144.344 64.624 144.344 64.848ZM143.644 64.668C143.644 64.5507 143.604 64.4573 143.524 64.388C143.444 64.3187 143.344 64.284 143.224 64.284C143.11 64.284 143.012 64.3173 142.932 64.384C142.855 64.4507 142.807 64.5453 142.788 64.668H143.644ZM145.389 64.14C145.469 64.0173 145.569 63.9213 145.689 63.852C145.809 63.78 145.942 63.744 146.089 63.744V64.468H145.901C145.73 64.468 145.602 64.5053 145.517 64.58C145.432 64.652 145.389 64.78 145.389 64.964V66H144.705V63.768H145.389V64.14ZM147.324 66.032C147.129 66.032 146.956 65.9987 146.804 65.932C146.652 65.8653 146.532 65.7747 146.444 65.66C146.356 65.5427 146.307 65.412 146.296 65.268H146.972C146.98 65.3453 147.016 65.408 147.08 65.456C147.144 65.504 147.223 65.528 147.316 65.528C147.401 65.528 147.467 65.512 147.512 65.48C147.56 65.4453 147.584 65.4013 147.584 65.348C147.584 65.284 147.551 65.2373 147.484 65.208C147.417 65.176 147.309 65.1413 147.16 65.104C147 65.0667 146.867 65.028 146.76 64.988C146.653 64.9453 146.561 64.88 146.484 64.792C146.407 64.7013 146.368 64.58 146.368 64.428C146.368 64.3 146.403 64.184 146.472 64.08C146.544 63.9733 146.648 63.8893 146.784 63.828C146.923 63.7667 147.087 63.736 147.276 63.736C147.556 63.736 147.776 63.8053 147.936 63.944C148.099 64.0827 148.192 64.2667 148.216 64.496H147.584C147.573 64.4187 147.539 64.3573 147.48 64.312C147.424 64.2667 147.349 64.244 147.256 64.244C147.176 64.244 147.115 64.26 147.072 64.292C147.029 64.3213 147.008 64.3627 147.008 64.416C147.008 64.48 147.041 64.528 147.108 64.56C147.177 64.592 147.284 64.624 147.428 64.656C147.593 64.6987 147.728 64.7413 147.832 64.784C147.936 64.824 148.027 64.8907 148.104 64.984C148.184 65.0747 148.225 65.1973 148.228 65.352C148.228 65.4827 148.191 65.6 148.116 65.704C148.044 65.8053 147.939 65.8853 147.8 65.944C147.664 66.0027 147.505 66.032 147.324 66.032ZM148.99 63.536C148.87 63.536 148.772 63.5013 148.694 63.432C148.62 63.36 148.582 63.272 148.582 63.168C148.582 63.0613 148.62 62.9733 148.694 62.904C148.772 62.832 148.87 62.796 148.99 62.796C149.108 62.796 149.204 62.832 149.278 62.904C149.356 62.9733 149.394 63.0613 149.394 63.168C149.394 63.272 149.356 63.36 149.278 63.432C149.204 63.5013 149.108 63.536 148.99 63.536ZM149.33 63.768V66H148.646V63.768H149.33ZM151.07 65.42V66H150.722C150.474 66 150.281 65.94 150.142 65.82C150.003 65.6973 149.934 65.4987 149.934 65.224V64.336H149.662V63.768H149.934V63.224H150.618V63.768H151.066V64.336H150.618V65.232C150.618 65.2987 150.634 65.3467 150.666 65.376C150.698 65.4053 150.751 65.42 150.826 65.42H151.07ZM151.315 64.88C151.315 64.6507 151.358 64.4493 151.443 64.276C151.531 64.1027 151.65 63.9693 151.799 63.876C151.948 63.7827 152.115 63.736 152.299 63.736C152.456 63.736 152.594 63.768 152.711 63.832C152.831 63.896 152.923 63.98 152.987 64.084V63.768H153.671V66H152.987V65.684C152.92 65.788 152.827 65.872 152.707 65.936C152.59 66 152.452 66.032 152.295 66.032C152.114 66.032 151.948 65.9853 151.799 65.892C151.65 65.796 151.531 65.6613 151.443 65.488C151.358 65.312 151.315 65.1093 151.315 64.88ZM152.987 64.884C152.987 64.7133 152.939 64.5787 152.843 64.48C152.75 64.3813 152.635 64.332 152.499 64.332C152.363 64.332 152.247 64.3813 152.151 64.48C152.058 64.576 152.011 64.7093 152.011 64.88C152.011 65.0507 152.058 65.1867 152.151 65.288C152.247 65.3867 152.363 65.436 152.499 65.436C152.635 65.436 152.75 65.3867 152.843 65.288C152.939 65.1893 152.987 65.0547 152.987 64.884ZM155.074 66.032C154.879 66.032 154.706 65.9987 154.554 65.932C154.402 65.8653 154.282 65.7747 154.194 65.66C154.106 65.5427 154.057 65.412 154.046 65.268H154.722C154.73 65.3453 154.766 65.408 154.83 65.456C154.894 65.504 154.973 65.528 155.066 65.528C155.151 65.528 155.217 65.512 155.262 65.48C155.31 65.4453 155.334 65.4013 155.334 65.348C155.334 65.284 155.301 65.2373 155.234 65.208C155.167 65.176 155.059 65.1413 154.91 65.104C154.75 65.0667 154.617 65.028 154.51 64.988C154.403 64.9453 154.311 64.88 154.234 64.792C154.157 64.7013 154.118 64.58 154.118 64.428C154.118 64.3 154.153 64.184 154.222 64.08C154.294 63.9733 154.398 63.8893 154.534 63.828C154.673 63.7667 154.837 63.736 155.026 63.736C155.306 63.736 155.526 63.8053 155.686 63.944C155.849 64.0827 155.942 64.2667 155.966 64.496H155.334C155.323 64.4187 155.289 64.3573 155.23 64.312C155.174 64.2667 155.099 64.244 155.006 64.244C154.926 64.244 154.865 64.26 154.822 64.292C154.779 64.3213 154.758 64.3627 154.758 64.416C154.758 64.48 154.791 64.528 154.858 64.56C154.927 64.592 155.034 64.624 155.178 64.656C155.343 64.6987 155.478 64.7413 155.582 64.784C155.686 64.824 155.777 64.8907 155.854 64.984C155.934 65.0747 155.975 65.1973 155.978 65.352C155.978 65.4827 155.941 65.6 155.866 65.704C155.794 65.8053 155.689 65.8853 155.55 65.944C155.414 66.0027 155.255 66.032 155.074 66.032ZM159.108 64.08C159.057 63.9867 158.984 63.916 158.888 63.868C158.795 63.8173 158.684 63.792 158.556 63.792C158.335 63.792 158.157 63.8653 158.024 64.012C157.891 64.156 157.824 64.3493 157.824 64.592C157.824 64.8507 157.893 65.0533 158.032 65.2C158.173 65.344 158.367 65.416 158.612 65.416C158.78 65.416 158.921 65.3733 159.036 65.288C159.153 65.2027 159.239 65.08 159.292 64.92H158.424V64.416H159.912V65.052C159.861 65.2227 159.775 65.3813 159.652 65.528C159.532 65.6747 159.379 65.7933 159.192 65.884C159.005 65.9747 158.795 66.02 158.56 66.02C158.283 66.02 158.035 65.96 157.816 65.84C157.6 65.7173 157.431 65.548 157.308 65.332C157.188 65.116 157.128 64.8693 157.128 64.592C157.128 64.3147 157.188 64.068 157.308 63.852C157.431 63.6333 157.6 63.464 157.816 63.344C158.032 63.2213 158.279 63.16 158.556 63.16C158.892 63.16 159.175 63.2413 159.404 63.404C159.636 63.5667 159.789 63.792 159.864 64.08H159.108ZM162.495 63.768V66H161.811V65.696C161.742 65.7947 161.647 65.8747 161.527 65.936C161.41 65.9947 161.279 66.024 161.135 66.024C160.964 66.024 160.814 65.9867 160.683 65.912C160.552 65.8347 160.451 65.724 160.379 65.58C160.307 65.436 160.271 65.2667 160.271 65.072V63.768H160.951V64.98C160.951 65.1293 160.99 65.2453 161.067 65.328C161.144 65.4107 161.248 65.452 161.379 65.452C161.512 65.452 161.618 65.4107 161.695 65.328C161.772 65.2453 161.811 65.1293 161.811 64.98V63.768H162.495ZM164.346 63.744C164.608 63.744 164.816 63.8293 164.97 64C165.128 64.168 165.206 64.4 165.206 64.696V66H164.526V64.788C164.526 64.6387 164.488 64.5227 164.41 64.44C164.333 64.3573 164.229 64.316 164.098 64.316C163.968 64.316 163.864 64.3573 163.786 64.44C163.709 64.5227 163.67 64.6387 163.67 64.788V66H162.986V63.768H163.67V64.064C163.74 63.9653 163.833 63.888 163.95 63.832C164.068 63.7733 164.2 63.744 164.346 63.744ZM165.546 64.88C165.546 64.6507 165.588 64.4493 165.674 64.276C165.762 64.1027 165.88 63.9693 166.03 63.876C166.179 63.7827 166.346 63.736 166.53 63.736C166.687 63.736 166.824 63.768 166.942 63.832C167.062 63.896 167.154 63.98 167.218 64.084V63.768H167.902V66H167.218V65.684C167.151 65.788 167.058 65.872 166.938 65.936C166.82 66 166.683 66.032 166.526 66.032C166.344 66.032 166.179 65.9853 166.03 65.892C165.88 65.796 165.762 65.6613 165.674 65.488C165.588 65.312 165.546 65.1093 165.546 64.88ZM167.218 64.884C167.218 64.7133 167.17 64.5787 167.074 64.48C166.98 64.3813 166.866 64.332 166.73 64.332C166.594 64.332 166.478 64.3813 166.382 64.48C166.288 64.576 166.242 64.7093 166.242 64.88C166.242 65.0507 166.288 65.1867 166.382 65.288C166.478 65.3867 166.594 65.436 166.73 65.436C166.866 65.436 166.98 65.3867 167.074 65.288C167.17 65.1893 167.218 65.0547 167.218 64.884ZM168.26 64.88C168.26 64.6507 168.303 64.4493 168.388 64.276C168.476 64.1027 168.595 63.9693 168.744 63.876C168.894 63.7827 169.06 63.736 169.244 63.736C169.391 63.736 169.524 63.7667 169.644 63.828C169.767 63.8893 169.863 63.972 169.932 64.076V63.04H170.616V66H169.932V65.68C169.868 65.7867 169.776 65.872 169.656 65.936C169.539 66 169.402 66.032 169.244 66.032C169.06 66.032 168.894 65.9853 168.744 65.892C168.595 65.796 168.476 65.6613 168.388 65.488C168.303 65.312 168.26 65.1093 168.26 64.88ZM169.932 64.884C169.932 64.7133 169.884 64.5787 169.788 64.48C169.695 64.3813 169.58 64.332 169.444 64.332C169.308 64.332 169.192 64.3813 169.096 64.48C169.003 64.576 168.956 64.7093 168.956 64.88C168.956 65.0507 169.003 65.1867 169.096 65.288C169.192 65.3867 169.308 65.436 169.444 65.436C169.58 65.436 169.695 65.3867 169.788 65.288C169.884 65.1893 169.932 65.0547 169.932 64.884ZM170.975 64.88C170.975 64.6507 171.018 64.4493 171.103 64.276C171.191 64.1027 171.31 63.9693 171.459 63.876C171.609 63.7827 171.775 63.736 171.959 63.736C172.117 63.736 172.254 63.768 172.371 63.832C172.491 63.896 172.583 63.98 172.647 64.084V63.768H173.331V66H172.647V65.684C172.581 65.788 172.487 65.872 172.367 65.936C172.25 66 172.113 66.032 171.955 66.032C171.774 66.032 171.609 65.9853 171.459 65.892C171.31 65.796 171.191 65.6613 171.103 65.488C171.018 65.312 170.975 65.1093 170.975 64.88ZM172.647 64.884C172.647 64.7133 172.599 64.5787 172.503 64.48C172.41 64.3813 172.295 64.332 172.159 64.332C172.023 64.332 171.907 64.3813 171.811 64.48C171.718 64.576 171.671 64.7093 171.671 64.88C171.671 65.0507 171.718 65.1867 171.811 65.288C171.907 65.3867 172.023 65.436 172.159 65.436C172.295 65.436 172.41 65.3867 172.503 65.288C172.599 65.1893 172.647 65.0547 172.647 64.884ZM174.51 64.14C174.59 64.0173 174.69 63.9213 174.81 63.852C174.93 63.78 175.063 63.744 175.21 63.744V64.468H175.022C174.851 64.468 174.723 64.5053 174.638 64.58C174.553 64.652 174.51 64.78 174.51 64.964V66H173.826V63.768H174.51V64.14ZM178.385 63.744C178.662 63.744 178.882 63.828 179.045 63.996C179.21 64.164 179.293 64.3973 179.293 64.696V66H178.613V64.788C178.613 64.644 178.574 64.5333 178.497 64.456C178.422 64.376 178.318 64.336 178.185 64.336C178.052 64.336 177.946 64.376 177.869 64.456C177.794 64.5333 177.757 64.644 177.757 64.788V66H177.077V64.788C177.077 64.644 177.038 64.5333 176.961 64.456C176.886 64.376 176.782 64.336 176.649 64.336C176.516 64.336 176.41 64.376 176.333 64.456C176.258 64.5333 176.221 64.644 176.221 64.788V66H175.537V63.768H176.221V64.048C176.29 63.9547 176.381 63.8813 176.493 63.828C176.605 63.772 176.732 63.744 176.873 63.744C177.041 63.744 177.19 63.78 177.321 63.852C177.454 63.924 177.558 64.0267 177.633 64.16C177.71 64.0373 177.816 63.9373 177.949 63.86C178.082 63.7827 178.228 63.744 178.385 63.744ZM179.635 64.88C179.635 64.6507 179.678 64.4493 179.763 64.276C179.851 64.1027 179.97 63.9693 180.119 63.876C180.269 63.7827 180.435 63.736 180.619 63.736C180.777 63.736 180.914 63.768 181.031 63.832C181.151 63.896 181.243 63.98 181.307 64.084V63.768H181.991V66H181.307V65.684C181.241 65.788 181.147 65.872 181.027 65.936C180.91 66 180.773 66.032 180.615 66.032C180.434 66.032 180.269 65.9853 180.119 65.892C179.97 65.796 179.851 65.6613 179.763 65.488C179.678 65.312 179.635 65.1093 179.635 64.88ZM181.307 64.884C181.307 64.7133 181.259 64.5787 181.163 64.48C181.07 64.3813 180.955 64.332 180.819 64.332C180.683 64.332 180.567 64.3813 180.471 64.48C180.378 64.576 180.331 64.7093 180.331 64.88C180.331 65.0507 180.378 65.1867 180.471 65.288C180.567 65.3867 180.683 65.436 180.819 65.436C180.955 65.436 181.07 65.3867 181.163 65.288C181.259 65.1893 181.307 65.0547 181.307 64.884Z" fill="black"/>
<defs>
<clipPath id="clip0_306_17">
<rect width="12" height="12" fill="white" transform="translate(8 80)"/>
</clipPath>
</defs>
</svg>
