<svg width="200" height="100" viewBox="0 0 200 100" fill="none" xmlns="http://www.w3.org/2000/svg">
<g clip-path="url(#clip0_1550_175)">
<rect width="200" height="100" fill="#BBE1FA"/>
<path d="M52.7152 55.7273V63H51.3871L48.223 58.4226H48.1697V63H46.6321V55.7273H47.9815L51.1207 60.3011H51.1847V55.7273H52.7152ZM60.6689 59.3636C60.6689 60.1567 60.5185 60.8314 60.2179 61.3878C59.9196 61.9441 59.5124 62.3691 58.9963 62.6626C58.4825 62.9538 57.9049 63.0994 57.2633 63.0994C56.617 63.0994 56.037 62.9527 55.5233 62.6591C55.0095 62.3655 54.6035 61.9406 54.3052 61.3842C54.0069 60.8279 53.8578 60.1544 53.8578 59.3636C53.8578 58.5705 54.0069 57.8958 54.3052 57.3395C54.6035 56.7831 55.0095 56.3594 55.5233 56.0682C56.037 55.7746 56.617 55.6278 57.2633 55.6278C57.9049 55.6278 58.4825 55.7746 58.9963 56.0682C59.5124 56.3594 59.9196 56.7831 60.2179 57.3395C60.5185 57.8958 60.6689 58.5705 60.6689 59.3636ZM59.1099 59.3636C59.1099 58.8499 59.033 58.4167 58.8791 58.0639C58.7276 57.7112 58.5133 57.4437 58.2363 57.2614C57.9593 57.0791 57.635 56.9879 57.2633 56.9879C56.8916 56.9879 56.5673 57.0791 56.2903 57.2614C56.0133 57.4437 55.7979 57.7112 55.644 58.0639C55.4925 58.4167 55.4167 58.8499 55.4167 59.3636C55.4167 59.8774 55.4925 60.3106 55.644 60.6634C55.7979 61.0161 56.0133 61.2836 56.2903 61.4659C56.5673 61.6482 56.8916 61.7393 57.2633 61.7393C57.635 61.7393 57.9593 61.6482 58.2363 61.4659C58.5133 61.2836 58.7276 61.0161 58.8791 60.6634C59.033 60.3106 59.1099 59.8774 59.1099 59.3636ZM65.66 55.7273V63H64.1223V55.7273H65.66ZM66.9251 55.7273H68.8214L70.8242 60.6136H70.9094L72.9123 55.7273H74.8086V63H73.3171V58.2663H73.2567L71.3746 62.9645H70.359L68.4769 58.2486H68.4165V63H66.9251V55.7273ZM77.329 63H75.6813L78.1919 55.7273H80.1735L82.6806 63H81.0328L79.2111 57.3892H79.1543L77.329 63ZM77.226 60.1413H81.1181V61.3416H77.226V60.1413ZM88.0366 58.0781C87.9869 57.9053 87.917 57.7526 87.8271 57.62C87.7371 57.4851 87.627 57.3714 87.4968 57.2791C87.369 57.1844 87.2222 57.1122 87.0565 57.0625C86.8931 57.0128 86.712 56.9879 86.5131 56.9879C86.1415 56.9879 85.8147 57.0803 85.533 57.2649C85.2537 57.4496 85.0359 57.7183 84.8796 58.071C84.7234 58.4214 84.6452 58.8499 84.6452 59.3565C84.6452 59.8632 84.7222 60.294 84.8761 60.6491C85.0299 61.0043 85.2478 61.2753 85.5295 61.4624C85.8112 61.647 86.1438 61.7393 86.5273 61.7393C86.8754 61.7393 87.1725 61.6778 87.4187 61.5547C87.6673 61.4292 87.8567 61.2528 87.9869 61.0256C88.1194 60.7983 88.1857 60.5296 88.1857 60.2195L88.4982 60.2656H86.6232V59.108H89.6665V60.0241C89.6665 60.6634 89.5316 61.2126 89.2617 61.6719C88.9918 62.1288 88.6201 62.4815 88.1467 62.7301C87.6732 62.9763 87.131 63.0994 86.5202 63.0994C85.8384 63.0994 85.2395 62.9491 84.7234 62.6484C84.2073 62.3454 83.8048 61.9157 83.516 61.3594C83.2295 60.8007 83.0863 60.1378 83.0863 59.3707C83.0863 58.7812 83.1715 58.2557 83.342 57.794C83.5148 57.33 83.7563 56.937 84.0664 56.6151C84.3765 56.2931 84.7376 56.0481 85.1495 55.88C85.5614 55.7119 86.0077 55.6278 86.4883 55.6278C86.9002 55.6278 87.2837 55.6882 87.6388 55.8089C87.994 55.9273 88.3088 56.0954 88.5835 56.3132C88.8604 56.531 89.0865 56.7902 89.2617 57.0909C89.4369 57.3892 89.5494 57.7183 89.5991 58.0781H88.0366ZM90.8216 63V55.7273H95.7221V56.995H92.3592V58.728H95.47V59.9957H92.3592V61.7322H95.7363V63H90.8216ZM100.513 63H98.8649L101.376 55.7273H103.357L105.864 63H104.216L102.395 57.3892H102.338L100.513 63ZM100.41 60.1413H104.302V61.3416H100.41V60.1413ZM107.145 55.7273L108.903 61.2528H108.971L110.732 55.7273H112.436L109.929 63H107.948L105.437 55.7273H107.145ZM113.599 63H111.951L114.461 55.7273H116.443L118.95 63H117.302L115.481 57.3892H115.424L113.599 63ZM113.496 60.1413H117.388V61.3416H113.496V60.1413ZM121.363 55.7273V63H119.825V55.7273H121.363ZM122.628 63V55.7273H124.166V61.7322H127.284V63H122.628ZM129.741 63H128.093L130.604 55.7273H132.586L135.093 63H133.445L131.623 57.3892H131.566L129.741 63ZM129.638 60.1413H133.53V61.3416H129.638V60.1413ZM135.968 63V55.7273H138.88C139.415 55.7273 139.861 55.8066 140.219 55.9652C140.576 56.1238 140.845 56.344 141.025 56.6257C141.205 56.9051 141.295 57.227 141.295 57.5916C141.295 57.8757 141.238 58.1255 141.124 58.3409C141.011 58.554 140.854 58.7292 140.656 58.8665C140.459 59.0014 140.234 59.0973 139.981 59.1541V59.2251C140.258 59.237 140.517 59.3151 140.759 59.4595C141.002 59.6039 141.2 59.8063 141.352 60.0668C141.503 60.3248 141.579 60.6326 141.579 60.9901C141.579 61.3759 141.483 61.7204 141.291 62.0234C141.102 62.3241 140.821 62.562 140.45 62.7372C140.078 62.9124 139.62 63 139.075 63H135.968ZM137.506 61.7429H138.759C139.188 61.7429 139.5 61.6612 139.697 61.4979C139.893 61.3321 139.991 61.112 139.991 60.8374C139.991 60.6361 139.943 60.4586 139.846 60.3047C139.749 60.1508 139.61 60.0301 139.43 59.9425C139.253 59.8549 139.041 59.8111 138.795 59.8111H137.506V61.7429ZM137.506 58.7706H138.646C138.856 58.7706 139.043 58.7339 139.207 58.6605C139.372 58.5848 139.503 58.4782 139.597 58.3409C139.694 58.2036 139.743 58.0391 139.743 57.8473C139.743 57.5845 139.649 57.3726 139.462 57.2116C139.278 57.0507 139.015 56.9702 138.674 56.9702H137.506V58.7706ZM142.579 63V55.7273H144.117V61.7322H147.235V63H142.579ZM148.253 63V55.7273H153.154V56.995H149.791V58.728H152.902V59.9957H149.791V61.7322H153.168V63H148.253Z" fill="#3282B8"/>
<rect x="91" y="29" width="18" height="18" rx="3" fill="#3282B8"/>
<g clip-path="url(#clip1_1550_175)">
<path d="M103.535 34.4648C101.581 32.5112 98.4192 32.5109 96.4654 34.4648C94.5118 36.4183 94.5116 39.5804 96.4654 41.5343C98.4189 43.4878 101.581 43.4881 103.535 41.5343C105.488 39.5807 105.489 36.4186 103.535 34.4648ZM103.326 40.8217C103.092 40.6128 102.843 40.428 102.579 40.2687C102.753 39.6675 102.856 39.0058 102.881 38.3181H104.35C104.284 39.2451 103.928 40.1147 103.326 40.8217ZM95.6498 38.3181H97.1195C97.1439 39.0058 97.247 39.6675 97.421 40.2687C97.1577 40.428 96.9079 40.6128 96.6743 40.8217C96.0724 40.1147 95.7163 39.2451 95.6498 38.3181V38.3181ZM96.6743 35.1774C96.9079 35.3862 97.1577 35.571 97.4211 35.7303C97.247 36.3316 97.1439 36.9932 97.1195 37.681H95.6498C95.7163 36.7539 96.0724 35.8843 96.6743 35.1774V35.1774ZM99.6816 35.7962C99.162 35.759 98.6611 35.631 98.1967 35.4199C98.4668 34.7244 98.9647 33.8903 99.6816 33.6835V35.7962ZM99.6816 36.4345V37.681H97.7569C97.7789 37.0992 97.8614 36.5405 97.9985 36.0294C98.5262 36.2601 99.0938 36.3978 99.6816 36.4345V36.4345ZM99.6816 38.3181V39.5646C99.0938 39.6012 98.5262 39.739 97.9985 39.9697C97.8614 39.4585 97.7789 38.8999 97.7569 38.3181H99.6816ZM99.6816 40.2029V42.3155C98.9647 42.1088 98.4668 41.2747 98.1967 40.5791C98.6611 40.368 99.162 40.24 99.6816 40.2029ZM100.319 40.2029C100.838 40.24 101.339 40.368 101.804 40.5791C101.533 41.2746 101.036 42.1088 100.319 42.3155V40.2029ZM100.319 39.5646V38.3181H102.243C102.221 38.8999 102.139 39.4585 102.002 39.9697C101.474 39.739 100.906 39.6012 100.319 39.5646ZM100.319 37.681V36.4345C100.906 36.3978 101.474 36.2601 102.002 36.0294C102.139 36.5405 102.221 37.0992 102.243 37.681H100.319ZM100.319 35.7962V33.6836C101.036 33.8903 101.533 34.7245 101.804 35.42C101.339 35.631 100.838 35.759 100.319 35.7962ZM101.75 34.0016C102.157 34.1802 102.538 34.4223 102.879 34.7227C102.716 34.8658 102.545 34.9956 102.366 35.1117C102.207 34.7184 102.005 34.3362 101.75 34.0016V34.0016ZM97.6339 35.1117C97.4551 34.9956 97.2838 34.8658 97.1215 34.7227C97.4625 34.4223 97.8429 34.1802 98.2507 34.0016C97.9957 34.3362 97.7928 34.7184 97.6339 35.1117V35.1117ZM97.6339 40.8874C97.7928 41.2806 97.9957 41.6628 98.2507 41.9974C97.8429 41.8189 97.4625 41.5768 97.1215 41.2763C97.2838 41.1332 97.4551 41.0034 97.6339 40.8874V40.8874ZM102.366 40.8874C102.545 41.0034 102.716 41.1332 102.879 41.2763C102.538 41.5767 102.157 41.8189 101.75 41.9974C102.005 41.6629 102.207 41.2807 102.366 40.8874ZM102.881 37.681C102.856 36.9932 102.753 36.3316 102.579 35.7303C102.843 35.5711 103.092 35.3862 103.326 35.1774C103.928 35.8843 104.284 36.7539 104.35 37.681H102.881Z" fill="#BBE1FA"/>
</g>
</g>
<defs>
<clipPath id="clip0_1550_175">
<rect width="200" height="100" fill="white"/>
</clipPath>
<clipPath id="clip1_1550_175">
<rect width="10" height="10" fill="white" transform="translate(95 33)"/>
</clipPath>
</defs>
</svg>
