<svg width="200" height="100" viewBox="0 0 200 100" fill="none" xmlns="http://www.w3.org/2000/svg">
<g clip-path="url(#clip0_1550_148)">
<rect width="200" height="100" fill="#BBE1FA"/>
<path d="M52.7152 55.7273V63H51.3871L48.223 58.4226H48.1697V63H46.6321V55.7273H47.9815L51.1207 60.3011H51.1847V55.7273H52.7152ZM60.6689 59.3636C60.6689 60.1567 60.5185 60.8314 60.2179 61.3878C59.9196 61.9441 59.5124 62.3691 58.9963 62.6626C58.4825 62.9538 57.9049 63.0994 57.2633 63.0994C56.617 63.0994 56.037 62.9527 55.5233 62.6591C55.0095 62.3655 54.6035 61.9406 54.3052 61.3842C54.0069 60.8279 53.8578 60.1544 53.8578 59.3636C53.8578 58.5705 54.0069 57.8958 54.3052 57.3395C54.6035 56.7831 55.0095 56.3594 55.5233 56.0682C56.037 55.7746 56.617 55.6278 57.2633 55.6278C57.9049 55.6278 58.4825 55.7746 58.9963 56.0682C59.5124 56.3594 59.9196 56.7831 60.2179 57.3395C60.5185 57.8958 60.6689 58.5705 60.6689 59.3636ZM59.1099 59.3636C59.1099 58.8499 59.033 58.4167 58.8791 58.0639C58.7276 57.7112 58.5133 57.4437 58.2363 57.2614C57.9593 57.0791 57.635 56.9879 57.2633 56.9879C56.8916 56.9879 56.5673 57.0791 56.2903 57.2614C56.0133 57.4437 55.7979 57.7112 55.644 58.0639C55.4925 58.4167 55.4167 58.8499 55.4167 59.3636C55.4167 59.8774 55.4925 60.3106 55.644 60.6634C55.7979 61.0161 56.0133 61.2836 56.2903 61.4659C56.5673 61.6482 56.8916 61.7393 57.2633 61.7393C57.635 61.7393 57.9593 61.6482 58.2363 61.4659C58.5133 61.2836 58.7276 61.0161 58.8791 60.6634C59.033 60.3106 59.1099 59.8774 59.1099 59.3636ZM65.66 55.7273V63H64.1223V55.7273H65.66ZM66.9251 55.7273H68.8214L70.8242 60.6136H70.9094L72.9123 55.7273H74.8086V63H73.3171V58.2663H73.2567L71.3746 62.9645H70.359L68.4769 58.2486H68.4165V63H66.9251V55.7273ZM77.329 63H75.6813L78.1919 55.7273H80.1735L82.6806 63H81.0328L79.2111 57.3892H79.1543L77.329 63ZM77.226 60.1413H81.1181V61.3416H77.226V60.1413ZM88.0366 58.0781C87.9869 57.9053 87.917 57.7526 87.8271 57.62C87.7371 57.4851 87.627 57.3714 87.4968 57.2791C87.369 57.1844 87.2222 57.1122 87.0565 57.0625C86.8931 57.0128 86.712 56.9879 86.5131 56.9879C86.1415 56.9879 85.8147 57.0803 85.533 57.2649C85.2537 57.4496 85.0359 57.7183 84.8796 58.071C84.7234 58.4214 84.6452 58.8499 84.6452 59.3565C84.6452 59.8632 84.7222 60.294 84.8761 60.6491C85.0299 61.0043 85.2478 61.2753 85.5295 61.4624C85.8112 61.647 86.1438 61.7393 86.5273 61.7393C86.8754 61.7393 87.1725 61.6778 87.4187 61.5547C87.6673 61.4292 87.8567 61.2528 87.9869 61.0256C88.1194 60.7983 88.1857 60.5296 88.1857 60.2195L88.4982 60.2656H86.6232V59.108H89.6665V60.0241C89.6665 60.6634 89.5316 61.2126 89.2617 61.6719C88.9918 62.1288 88.6201 62.4815 88.1467 62.7301C87.6732 62.9763 87.131 63.0994 86.5202 63.0994C85.8384 63.0994 85.2395 62.9491 84.7234 62.6484C84.2073 62.3454 83.8048 61.9157 83.516 61.3594C83.2295 60.8007 83.0863 60.1378 83.0863 59.3707C83.0863 58.7812 83.1715 58.2557 83.342 57.794C83.5148 57.33 83.7563 56.937 84.0664 56.6151C84.3765 56.2931 84.7376 56.0481 85.1495 55.88C85.5614 55.7119 86.0077 55.6278 86.4883 55.6278C86.9002 55.6278 87.2837 55.6882 87.6388 55.8089C87.994 55.9273 88.3088 56.0954 88.5835 56.3132C88.8604 56.531 89.0865 56.7902 89.2617 57.0909C89.4369 57.3892 89.5494 57.7183 89.5991 58.0781H88.0366ZM90.8216 63V55.7273H95.7221V56.995H92.3592V58.728H95.47V59.9957H92.3592V61.7322H95.7363V63H90.8216ZM100.513 63H98.8649L101.376 55.7273H103.357L105.864 63H104.216L102.395 57.3892H102.338L100.513 63ZM100.41 60.1413H104.302V61.3416H100.41V60.1413ZM107.145 55.7273L108.903 61.2528H108.971L110.732 55.7273H112.436L109.929 63H107.948L105.437 55.7273H107.145ZM113.599 63H111.951L114.461 55.7273H116.443L118.95 63H117.302L115.481 57.3892H115.424L113.599 63ZM113.496 60.1413H117.388V61.3416H113.496V60.1413ZM121.363 55.7273V63H119.825V55.7273H121.363ZM122.628 63V55.7273H124.166V61.7322H127.284V63H122.628ZM129.741 63H128.093L130.604 55.7273H132.586L135.093 63H133.445L131.623 57.3892H131.566L129.741 63ZM129.638 60.1413H133.53V61.3416H129.638V60.1413ZM135.968 63V55.7273H138.88C139.415 55.7273 139.861 55.8066 140.219 55.9652C140.576 56.1238 140.845 56.344 141.025 56.6257C141.205 56.9051 141.295 57.227 141.295 57.5916C141.295 57.8757 141.238 58.1255 141.124 58.3409C141.011 58.554 140.854 58.7292 140.656 58.8665C140.459 59.0014 140.234 59.0973 139.981 59.1541V59.2251C140.258 59.237 140.517 59.3151 140.759 59.4595C141.002 59.6039 141.2 59.8063 141.352 60.0668C141.503 60.3248 141.579 60.6326 141.579 60.9901C141.579 61.3759 141.483 61.7204 141.291 62.0234C141.102 62.3241 140.821 62.562 140.45 62.7372C140.078 62.9124 139.62 63 139.075 63H135.968ZM137.506 61.7429H138.759C139.188 61.7429 139.5 61.6612 139.697 61.4979C139.893 61.3321 139.991 61.112 139.991 60.8374C139.991 60.6361 139.943 60.4586 139.846 60.3047C139.749 60.1508 139.61 60.0301 139.43 59.9425C139.253 59.8549 139.041 59.8111 138.795 59.8111H137.506V61.7429ZM137.506 58.7706H138.646C138.856 58.7706 139.043 58.7339 139.207 58.6605C139.372 58.5848 139.503 58.4782 139.597 58.3409C139.694 58.2036 139.743 58.0391 139.743 57.8473C139.743 57.5845 139.649 57.3726 139.462 57.2116C139.278 57.0507 139.015 56.9702 138.674 56.9702H137.506V58.7706ZM142.579 63V55.7273H144.117V61.7322H147.235V63H142.579ZM148.253 63V55.7273H153.154V56.995H149.791V58.728H152.902V59.9957H149.791V61.7322H153.168V63H148.253Z" fill="#3282B8"/>
<rect x="91" y="29" width="18" height="18" rx="3" fill="#3282B8"/>
<path d="M106 38.0013C106 37.1873 105.004 36.416 103.478 35.9377C103.83 34.3449 103.674 33.0777 102.984 32.672C102.825 32.5768 102.639 32.5317 102.436 32.5317V33.0902C102.549 33.0902 102.639 33.1128 102.715 33.1553C103.048 33.3507 103.192 34.0945 103.079 35.0511C103.053 35.2865 103.009 35.5345 102.955 35.7874C102.475 35.6672 101.952 35.5745 101.402 35.5144C101.071 35.0511 100.729 34.6304 100.384 34.2623C101.181 33.5034 101.93 33.0877 102.439 33.0877V32.5292C101.766 32.5292 100.885 33.0201 99.9951 33.8716C99.1048 33.0251 98.2242 32.5393 97.5516 32.5393V33.0977C98.0579 33.0977 98.8088 33.5109 99.6062 34.2648C99.2638 34.6329 98.9213 35.0511 98.596 35.5144C98.0432 35.5745 97.5198 35.6672 97.0404 35.7899C96.9841 35.5395 96.9425 35.2966 96.9132 35.0637C96.7982 34.107 96.9401 33.3632 97.2703 33.1653C97.3437 33.1203 97.4391 33.1002 97.5516 33.1002V32.5418C97.3461 32.5418 97.1602 32.5868 96.9988 32.682C96.3115 33.0877 96.1574 34.3524 96.512 35.9402C94.9906 36.421 94 37.1899 94 38.0013C94 38.8152 94.9955 39.5865 96.5218 40.0649C96.1696 41.6576 96.3261 42.9248 97.0159 43.3305C97.1749 43.4257 97.3608 43.4708 97.5662 43.4708C98.2389 43.4708 99.1194 42.9799 100.01 42.1285C100.9 42.9749 101.781 43.4608 102.453 43.4608C102.659 43.4608 102.845 43.4157 103.006 43.3205C103.693 42.9148 103.848 41.6501 103.493 40.0624C105.009 39.584 106 38.8127 106 38.0013ZM102.815 36.3309C102.725 36.6539 102.612 36.987 102.485 37.3201C102.385 37.1197 102.28 36.9194 102.165 36.719C102.052 36.5187 101.932 36.3233 101.812 36.133C102.16 36.1856 102.495 36.2507 102.815 36.3309ZM101.695 38.998C101.504 39.3361 101.309 39.6567 101.106 39.9547C100.741 39.9872 100.372 40.0048 100 40.0048C99.6307 40.0048 99.2613 39.9872 98.8993 39.9572C98.6963 39.6592 98.4982 39.3411 98.3074 39.0055C98.1215 38.6774 97.9527 38.3444 97.7986 38.0088C97.9503 37.6732 98.1215 37.3376 98.3049 37.0095C98.4957 36.6715 98.6914 36.3509 98.8944 36.0529C99.2589 36.0203 99.6282 36.0028 100 36.0028C100.369 36.0028 100.739 36.0203 101.101 36.0504C101.304 36.3484 101.502 36.6664 101.693 37.002C101.879 37.3301 102.047 37.6632 102.201 37.9988C102.047 38.3343 101.879 38.6699 101.695 38.998ZM102.485 38.6724C102.617 39.008 102.73 39.3436 102.823 39.6692C102.502 39.7493 102.165 39.8169 101.815 39.8695C101.935 39.6767 102.055 39.4788 102.167 39.276C102.28 39.0756 102.385 38.8728 102.485 38.6724ZM100.005 41.3446C99.7774 41.1042 99.5499 40.8362 99.3249 40.5432C99.545 40.5532 99.7701 40.5607 99.9976 40.5607C100.227 40.5607 100.455 40.5557 100.678 40.5432C100.457 40.8362 100.23 41.1042 100.005 41.3446ZM98.1851 39.8695C97.8377 39.8169 97.5026 39.7518 97.1822 39.6717C97.2727 39.3486 97.3852 39.0155 97.5124 38.6825C97.6127 38.8828 97.7179 39.0832 97.8329 39.2835C97.9478 39.4838 98.0652 39.6792 98.1851 39.8695ZM99.9927 34.6579C100.22 34.8984 100.448 35.1663 100.673 35.4593C100.453 35.4493 100.227 35.4418 100 35.4418C99.7701 35.4418 99.5426 35.4468 99.32 35.4593C99.5402 35.1663 99.7676 34.8984 99.9927 34.6579ZM98.1826 36.133C98.0628 36.3258 97.9429 36.5237 97.8304 36.7265C97.7179 36.9269 97.6127 37.1272 97.5124 37.3276C97.3804 36.992 97.2678 36.6564 97.1749 36.3309C97.4953 36.2532 97.8329 36.1856 98.1826 36.133ZM95.969 39.2685C95.1031 38.8903 94.543 38.3945 94.543 38.0013C94.543 37.6081 95.1031 37.1097 95.969 36.7341C96.1794 36.6414 96.4093 36.5588 96.6466 36.4811C96.786 36.972 96.9694 37.4829 97.1969 38.0063C96.9719 38.5272 96.7909 39.0356 96.6539 39.5239C96.4117 39.4463 96.1818 39.3611 95.969 39.2685ZM97.285 42.8472C96.9523 42.6519 96.808 41.9081 96.9205 40.9514C96.9474 40.716 96.9914 40.4681 97.0453 40.2151C97.5247 40.3353 98.0481 40.428 98.5985 40.4881C98.9287 40.9514 99.2711 41.3721 99.616 41.7403C98.8186 42.4991 98.0701 42.9148 97.5614 42.9148C97.4513 42.9123 97.3583 42.8898 97.285 42.8472ZM103.087 40.9389C103.202 41.8955 103.06 42.6393 102.73 42.8372C102.656 42.8823 102.561 42.9023 102.448 42.9023C101.942 42.9023 101.191 42.4891 100.394 41.7353C100.736 41.3671 101.079 40.9489 101.404 40.4856C101.957 40.4255 102.48 40.3328 102.96 40.2101C103.016 40.4631 103.06 40.706 103.087 40.9389ZM104.029 39.2685C103.818 39.3611 103.588 39.4438 103.351 39.5214C103.212 39.0306 103.028 38.5197 102.801 37.9963C103.026 37.4754 103.207 36.967 103.344 36.4786C103.586 36.5562 103.816 36.6414 104.031 36.7341C104.897 37.1122 105.457 37.6081 105.457 38.0013C105.455 38.3945 104.894 38.8928 104.029 39.2685Z" fill="#BBE1FA"/>
<path d="M99.9976 39.1457C100.615 39.1457 101.115 38.6333 101.115 38.0012C101.115 37.3692 100.615 36.8568 99.9976 36.8568C99.3802 36.8568 98.8798 37.3692 98.8798 38.0012C98.8798 38.6333 99.3802 39.1457 99.9976 39.1457Z" fill="#BBE1FA"/>
</g>
<defs>
<clipPath id="clip0_1550_148">
<rect width="200" height="100" fill="white"/>
</clipPath>
</defs>
</svg>
