<svg width="200" height="100" viewBox="0 0 200 100" fill="none" xmlns="http://www.w3.org/2000/svg">
<g clip-path="url(#clip0_1550_2)">
<rect width="200" height="100" fill="#BBE1FA"/>
<rect x="91" y="29" width="18" height="18" rx="3" fill="#3282B8"/>
<g clip-path="url(#clip1_1550_2)">
<path d="M96.4592 36.3349C96.1141 36.3349 95.8344 36.6147 95.8344 36.9598V39.8757C95.8344 40.2208 96.1141 40.5006 96.4592 40.5006C96.8043 40.5006 97.0841 40.2208 97.0841 39.8757V36.9598C97.0841 36.6147 96.8043 36.3349 96.4592 36.3349Z" fill="#BBE1FA"/>
<path d="M103.541 36.3349C103.196 36.3349 102.916 36.6147 102.916 36.9598V39.8757C102.916 40.2208 103.196 40.5006 103.541 40.5006C103.886 40.5006 104.166 40.2208 104.166 39.8757V36.9598C104.166 36.6147 103.886 36.3349 103.541 36.3349Z" fill="#BBE1FA"/>
<path d="M102.291 36.3349H97.7089C97.5939 36.3349 97.5006 36.4282 97.5006 36.5432V39.8757C97.5005 40.3707 97.8488 40.7973 98.3338 40.8963V42.3751C98.3338 42.7202 98.6135 43 98.9586 43C99.3037 43 99.5835 42.7202 99.5835 42.3751V40.9171H100.417V42.3751C100.417 42.7202 100.696 43 101.041 43C101.387 43 101.666 42.7202 101.666 42.3751V40.8963C102.151 40.7973 102.5 40.3707 102.499 39.8757V36.5432C102.499 36.4282 102.406 36.3349 102.291 36.3349Z" fill="#BBE1FA"/>
<path d="M101.514 33.8655L102.022 33.3581C102.105 33.2782 102.107 33.1463 102.027 33.0636C101.947 32.9808 101.815 32.9786 101.733 33.0585C101.731 33.0601 101.729 33.0618 101.728 33.0636L101.136 33.6551C100.412 33.3404 99.589 33.3404 98.8645 33.6551L98.273 33.0632C98.1902 32.9832 98.0584 32.9856 97.9784 33.0683C97.9005 33.149 97.9005 33.277 97.9784 33.3577L98.4858 33.8655C97.8673 34.2747 97.4968 34.9683 97.5006 35.71C97.5006 35.8251 97.5939 35.9183 97.7089 35.9183H102.291C102.406 35.9183 102.499 35.8251 102.499 35.71C102.503 34.9684 102.133 34.2748 101.514 33.8655Z" fill="#BBE1FA"/>
<path d="M98.9585 35.0852C99.0736 35.0852 99.1668 34.992 99.1668 34.8769C99.1668 34.7619 99.0736 34.6686 98.9585 34.6686C98.8435 34.6686 98.7502 34.7619 98.7502 34.8769C98.7502 34.992 98.8435 35.0852 98.9585 35.0852Z" fill="#1B262C"/>
<path d="M101.041 35.0852C101.156 35.0852 101.25 34.992 101.25 34.8769C101.25 34.7619 101.156 34.6686 101.041 34.6686C100.926 34.6686 100.833 34.7619 100.833 34.8769C100.833 34.992 100.926 35.0852 101.041 35.0852Z" fill="#1B262C"/>
</g>
<path d="M52.7152 55.7273V63H51.3871L48.223 58.4226H48.1697V63H46.6321V55.7273H47.9815L51.1207 60.3011H51.1847V55.7273H52.7152ZM60.6689 59.3636C60.6689 60.1567 60.5185 60.8314 60.2179 61.3878C59.9196 61.9441 59.5124 62.3691 58.9963 62.6626C58.4825 62.9538 57.9049 63.0994 57.2633 63.0994C56.617 63.0994 56.037 62.9527 55.5233 62.6591C55.0095 62.3655 54.6035 61.9406 54.3052 61.3842C54.0069 60.8279 53.8578 60.1544 53.8578 59.3636C53.8578 58.5705 54.0069 57.8958 54.3052 57.3395C54.6035 56.7831 55.0095 56.3594 55.5233 56.0682C56.037 55.7746 56.617 55.6278 57.2633 55.6278C57.9049 55.6278 58.4825 55.7746 58.9963 56.0682C59.5124 56.3594 59.9196 56.7831 60.2179 57.3395C60.5185 57.8958 60.6689 58.5705 60.6689 59.3636ZM59.1099 59.3636C59.1099 58.8499 59.033 58.4167 58.8791 58.0639C58.7276 57.7112 58.5133 57.4437 58.2363 57.2614C57.9593 57.0791 57.635 56.9879 57.2633 56.9879C56.8916 56.9879 56.5673 57.0791 56.2903 57.2614C56.0133 57.4437 55.7979 57.7112 55.644 58.0639C55.4925 58.4167 55.4167 58.8499 55.4167 59.3636C55.4167 59.8774 55.4925 60.3106 55.644 60.6634C55.7979 61.0161 56.0133 61.2836 56.2903 61.4659C56.5673 61.6482 56.8916 61.7393 57.2633 61.7393C57.635 61.7393 57.9593 61.6482 58.2363 61.4659C58.5133 61.2836 58.7276 61.0161 58.8791 60.6634C59.033 60.3106 59.1099 59.8774 59.1099 59.3636ZM65.66 55.7273V63H64.1223V55.7273H65.66ZM66.9251 55.7273H68.8214L70.8242 60.6136H70.9094L72.9123 55.7273H74.8086V63H73.3171V58.2663H73.2567L71.3746 62.9645H70.359L68.4769 58.2486H68.4165V63H66.9251V55.7273ZM77.329 63H75.6813L78.1919 55.7273H80.1735L82.6806 63H81.0328L79.2111 57.3892H79.1543L77.329 63ZM77.226 60.1413H81.1181V61.3416H77.226V60.1413ZM88.0366 58.0781C87.9869 57.9053 87.917 57.7526 87.8271 57.62C87.7371 57.4851 87.627 57.3714 87.4968 57.2791C87.369 57.1844 87.2222 57.1122 87.0565 57.0625C86.8931 57.0128 86.712 56.9879 86.5131 56.9879C86.1415 56.9879 85.8147 57.0803 85.533 57.2649C85.2537 57.4496 85.0359 57.7183 84.8796 58.071C84.7234 58.4214 84.6452 58.8499 84.6452 59.3565C84.6452 59.8632 84.7222 60.294 84.8761 60.6491C85.0299 61.0043 85.2478 61.2753 85.5295 61.4624C85.8112 61.647 86.1438 61.7393 86.5273 61.7393C86.8754 61.7393 87.1725 61.6778 87.4187 61.5547C87.6673 61.4292 87.8567 61.2528 87.9869 61.0256C88.1194 60.7983 88.1857 60.5296 88.1857 60.2195L88.4982 60.2656H86.6232V59.108H89.6665V60.0241C89.6665 60.6634 89.5316 61.2126 89.2617 61.6719C88.9918 62.1288 88.6201 62.4815 88.1467 62.7301C87.6732 62.9763 87.131 63.0994 86.5202 63.0994C85.8384 63.0994 85.2395 62.9491 84.7234 62.6484C84.2073 62.3454 83.8048 61.9157 83.516 61.3594C83.2295 60.8007 83.0863 60.1378 83.0863 59.3707C83.0863 58.7812 83.1715 58.2557 83.342 57.794C83.5148 57.33 83.7563 56.937 84.0664 56.6151C84.3765 56.2931 84.7376 56.0481 85.1495 55.88C85.5614 55.7119 86.0077 55.6278 86.4883 55.6278C86.9002 55.6278 87.2837 55.6882 87.6388 55.8089C87.994 55.9273 88.3088 56.0954 88.5835 56.3132C88.8604 56.531 89.0865 56.7902 89.2617 57.0909C89.4369 57.3892 89.5494 57.7183 89.5991 58.0781H88.0366ZM90.8216 63V55.7273H95.7221V56.995H92.3592V58.728H95.47V59.9957H92.3592V61.7322H95.7363V63H90.8216ZM100.513 63H98.8649L101.376 55.7273H103.357L105.864 63H104.216L102.395 57.3892H102.338L100.513 63ZM100.41 60.1413H104.302V61.3416H100.41V60.1413ZM107.145 55.7273L108.903 61.2528H108.971L110.732 55.7273H112.436L109.929 63H107.948L105.437 55.7273H107.145ZM113.599 63H111.951L114.461 55.7273H116.443L118.95 63H117.302L115.481 57.3892H115.424L113.599 63ZM113.496 60.1413H117.388V61.3416H113.496V60.1413ZM121.363 55.7273V63H119.825V55.7273H121.363ZM122.628 63V55.7273H124.166V61.7322H127.284V63H122.628ZM129.741 63H128.093L130.604 55.7273H132.586L135.093 63H133.445L131.623 57.3892H131.566L129.741 63ZM129.638 60.1413H133.53V61.3416H129.638V60.1413ZM135.968 63V55.7273H138.88C139.415 55.7273 139.861 55.8066 140.219 55.9652C140.576 56.1238 140.845 56.344 141.025 56.6257C141.205 56.9051 141.295 57.227 141.295 57.5916C141.295 57.8757 141.238 58.1255 141.124 58.3409C141.011 58.554 140.854 58.7292 140.656 58.8665C140.459 59.0014 140.234 59.0973 139.981 59.1541V59.2251C140.258 59.237 140.517 59.3151 140.759 59.4595C141.002 59.6039 141.2 59.8063 141.352 60.0668C141.503 60.3248 141.579 60.6326 141.579 60.9901C141.579 61.3759 141.483 61.7204 141.291 62.0234C141.102 62.3241 140.821 62.562 140.45 62.7372C140.078 62.9124 139.62 63 139.075 63H135.968ZM137.506 61.7429H138.759C139.188 61.7429 139.5 61.6612 139.697 61.4979C139.893 61.3321 139.991 61.112 139.991 60.8374C139.991 60.6361 139.943 60.4586 139.846 60.3047C139.749 60.1508 139.61 60.0301 139.43 59.9425C139.253 59.8549 139.041 59.8111 138.795 59.8111H137.506V61.7429ZM137.506 58.7706H138.646C138.856 58.7706 139.043 58.7339 139.207 58.6605C139.372 58.5848 139.503 58.4782 139.597 58.3409C139.694 58.2036 139.743 58.0391 139.743 57.8473C139.743 57.5845 139.649 57.3726 139.462 57.2116C139.278 57.0507 139.015 56.9702 138.674 56.9702H137.506V58.7706ZM142.579 63V55.7273H144.117V61.7322H147.235V63H142.579ZM148.253 63V55.7273H153.154V56.995H149.791V58.728H152.902V59.9957H149.791V61.7322H153.168V63H148.253Z" fill="#3282B8"/>
<path d="M123.344 30.2305C122.98 30.3359 122.625 30.7188 122.551 31.0977C122.52 31.2383 122.508 33.3281 122.516 38.1172L122.527 44.9336L122.637 45.1563C122.754 45.3945 122.926 45.5664 123.184 45.7031L123.348 45.793H132H140.652L140.816 45.7031C141.074 45.5664 141.246 45.3945 141.363 45.1563L141.473 44.9336V38V31.0664L141.363 30.8438C141.246 30.6055 141.074 30.4336 140.816 30.2969L140.652 30.207L132.059 30.1992C126.969 30.1953 123.414 30.207 123.344 30.2305ZM140.582 30.8906C140.844 31.0508 140.848 31.0547 140.859 32.3438L140.871 33.5078H132H123.129L123.141 32.3438C123.152 31.0547 123.156 31.0508 123.418 30.8906C123.539 30.8125 123.688 30.8125 132 30.8125C140.313 30.8125 140.461 30.8125 140.582 30.8906ZM140.848 39.4844C140.848 44.5625 140.844 44.8242 140.777 44.9258C140.738 44.9883 140.652 45.0703 140.582 45.1094C140.461 45.1875 140.313 45.1875 132 45.1875C123.688 45.1875 123.539 45.1875 123.418 45.1094C123.348 45.0703 123.262 44.9883 123.223 44.9258C123.156 44.8242 123.152 44.5547 123.141 39.5273C123.137 36.6133 123.141 34.207 123.152 34.1836C123.164 34.1406 124.926 34.1328 132.008 34.1406L140.848 34.1523V39.4844Z" fill="#BBE1FA"/>
<path d="M124.27 31.9688C124.164 32.1055 124.168 32.2266 124.277 32.3594C124.344 32.4375 124.406 32.4648 124.5 32.4648C124.652 32.4648 124.813 32.3086 124.813 32.1562C124.813 31.8984 124.43 31.7656 124.27 31.9688Z" fill="#BBE1FA"/>
<path d="M125.52 31.9688C125.414 32.1055 125.418 32.2266 125.527 32.3594C125.594 32.4375 125.656 32.4648 125.75 32.4648C125.902 32.4648 126.063 32.3086 126.063 32.1562C126.063 31.8984 125.68 31.7656 125.52 31.9688Z" fill="#BBE1FA"/>
<path d="M126.77 31.9688C126.664 32.1055 126.668 32.2266 126.777 32.3594C126.844 32.4375 126.906 32.4648 127 32.4648C127.152 32.4648 127.313 32.3086 127.313 32.1562C127.313 31.8984 126.93 31.7656 126.77 31.9688Z" fill="#BBE1FA"/>
<path d="M135.125 31.9453C135.016 32.0547 135.02 32.2969 135.129 32.3984C135.207 32.4688 135.313 32.4727 137.398 32.4844L139.582 32.4922L139.703 32.375C139.801 32.2734 139.816 32.2344 139.797 32.1328C139.785 32.0625 139.742 31.9766 139.707 31.9375C139.648 31.8711 139.52 31.8672 137.422 31.8672C135.254 31.8672 135.203 31.8672 135.125 31.9453Z" fill="#BBE1FA"/>
<path d="M125.504 36.0469C125.262 36.1094 125.066 36.2305 124.898 36.418C124.629 36.7226 124.617 36.7969 124.617 38.1758C124.617 39.5273 124.609 39.4922 124.883 39.5469C124.984 39.5664 125.023 39.5508 125.125 39.4531C125.234 39.3398 125.242 39.3164 125.242 39.039V38.7422H125.75H126.258V39.039C126.258 39.3164 126.266 39.3398 126.375 39.4531C126.477 39.5508 126.516 39.5664 126.617 39.5469C126.891 39.4922 126.883 39.5273 126.883 38.1758C126.883 36.7851 126.871 36.7187 126.586 36.4023C126.32 36.1055 125.867 35.957 125.504 36.0469ZM125.945 36.6953C126.215 36.8047 126.258 36.9219 126.258 37.5664V38.1172H125.75H125.242V37.5664C125.242 36.9336 125.273 36.8398 125.535 36.7109C125.723 36.6172 125.746 36.6172 125.945 36.6953Z" fill="#BBE1FA"/>
<path d="M127.703 36.0547C127.512 36.1562 127.508 36.1953 127.508 37.8164V39.3359L127.625 39.4531C127.727 39.5508 127.766 39.5664 127.867 39.5469C128.117 39.4961 128.133 39.4531 128.133 38.8515V38.3125H128.48C128.973 38.3125 129.191 38.2344 129.465 37.9609C129.633 37.793 129.695 37.6953 129.75 37.5156C129.926 36.9609 129.68 36.3945 129.156 36.1367C128.949 36.0351 128.895 36.0273 128.367 36.0156C127.957 36.0078 127.773 36.0195 127.703 36.0547ZM128.93 36.7265C129.172 36.8828 129.246 37.168 129.117 37.4101C129.008 37.6172 128.836 37.6875 128.457 37.6875H128.133V37.1875C128.133 36.9101 128.145 36.6719 128.164 36.6562C128.219 36.5976 128.82 36.6523 128.93 36.7265Z" fill="#BBE1FA"/>
<path d="M135.039 36.0469C134.719 36.1445 134.531 36.3789 134.484 36.7305C134.457 36.9492 134.32 37.1211 134.149 37.1602C134.086 37.1758 133.965 37.1523 133.84 37.1016C133.586 37.0039 133.367 37 133.18 37.0977C132.973 37.2031 132.906 37.2891 132.566 37.8828C132.32 38.3086 132.258 38.4492 132.242 38.6133C132.219 38.8828 132.336 39.1328 132.566 39.2891C132.754 39.418 132.781 39.4688 132.781 39.6875C132.781 39.8242 132.758 39.8672 132.531 40.082C132.121 40.4766 132.125 40.6836 132.555 41.4258C132.953 42.1094 132.934 42.082 133.109 42.1953C133.293 42.3164 133.594 42.332 133.824 42.2383C134.152 42.1016 134.43 42.2344 134.481 42.5547C134.492 42.6367 134.512 42.7422 134.52 42.7891C134.551 42.9414 134.715 43.1367 134.891 43.2227C135.051 43.3047 135.117 43.3125 135.75 43.3125C136.383 43.3125 136.449 43.3047 136.609 43.2227C136.785 43.1367 136.949 42.9414 136.981 42.7891C136.988 42.7422 137.008 42.6367 137.02 42.5547C137.07 42.2344 137.348 42.1016 137.676 42.2383C137.887 42.3242 138.191 42.3125 138.371 42.2109C138.531 42.1211 138.594 42.0352 138.992 41.3477C139.367 40.6953 139.367 40.4766 138.969 40.0859C138.742 39.8633 138.719 39.8242 138.719 39.6797C138.719 39.4727 138.758 39.4062 138.949 39.2734C139.168 39.1211 139.281 38.8789 139.258 38.6133C139.242 38.4492 139.18 38.3086 138.934 37.8828C138.578 37.2695 138.52 37.1953 138.309 37.0977C138.106 37.0039 137.91 37.0039 137.664 37.1016C137.434 37.1914 137.301 37.1758 137.149 37.0312C137.074 36.9609 137.035 36.8789 137.02 36.7539C136.984 36.4688 136.856 36.2539 136.652 36.1328C136.477 36.0312 136.453 36.0273 135.809 36.0195C135.445 36.0156 135.098 36.0273 135.039 36.0469ZM136.313 36.6562C136.352 36.6719 136.383 36.75 136.399 36.8711C136.457 37.2969 136.816 37.6758 137.254 37.7656C137.43 37.8008 137.504 37.7969 137.691 37.7461C137.816 37.7109 137.953 37.6758 137.996 37.6641C138.063 37.6484 138.117 37.7227 138.348 38.1211C138.5 38.3828 138.625 38.6211 138.633 38.6523C138.641 38.6836 138.566 38.7773 138.465 38.8672C138.234 39.0703 138.129 39.2852 138.102 39.5859C138.074 39.9609 138.242 40.3398 138.52 40.5195C138.586 40.5625 138.641 40.6211 138.641 40.6484C138.641 40.6719 138.516 40.9141 138.363 41.1836C138.066 41.707 138.051 41.7148 137.809 41.6133C137.594 41.5234 137.25 41.5391 137.02 41.6484C136.668 41.8125 136.484 42.0625 136.391 42.5117L136.356 42.668H135.75H135.145L135.109 42.5117C135.016 42.0625 134.832 41.8125 134.481 41.6484C134.25 41.5391 133.906 41.5234 133.691 41.6133C133.449 41.7148 133.434 41.707 133.137 41.1836C132.984 40.9141 132.859 40.6719 132.859 40.6484C132.859 40.6211 132.914 40.5625 132.981 40.5195C133.047 40.4766 133.149 40.3711 133.207 40.2852C133.531 39.8164 133.461 39.2422 133.039 38.8711C132.938 38.7812 132.859 38.6836 132.867 38.6523C132.875 38.6211 133.004 38.3828 133.152 38.1211C133.383 37.7227 133.438 37.6484 133.504 37.6641C133.547 37.6758 133.684 37.7109 133.809 37.7461C134.379 37.9062 134.961 37.5273 135.09 36.9102C135.113 36.7891 135.152 36.6797 135.18 36.6641C135.231 36.6289 136.227 36.6211 136.313 36.6562Z" fill="#BBE1FA"/>
<path d="M135.293 38.1719C134.481 38.4375 134.016 39.3008 134.258 40.0977C134.465 40.7773 135.051 41.2188 135.75 41.2188C136.438 41.2188 137.031 40.7773 137.234 40.1172C137.414 39.5352 137.254 38.9531 136.801 38.5273C136.508 38.25 136.234 38.1445 135.809 38.1289C135.586 38.1211 135.395 38.1367 135.293 38.1719ZM136.242 38.8828C136.359 38.9531 136.477 39.0703 136.551 39.1875C136.652 39.3555 136.668 39.418 136.668 39.6563C136.668 39.9922 136.563 40.2148 136.309 40.4063C136.07 40.5898 135.785 40.6445 135.512 40.5664C134.684 40.3203 134.566 39.2266 135.328 38.8398C135.617 38.6953 135.969 38.7109 136.242 38.8828Z" fill="#BBE1FA"/>
<path d="M130.523 36.1367C130.438 36.2265 130.438 36.2383 130.438 37.7734C130.438 38.625 130.449 39.3515 130.461 39.3867C130.5 39.4844 130.703 39.5703 130.832 39.543C131.062 39.4922 131.062 39.5 131.062 37.8008C131.062 36.293 131.059 36.25 130.98 36.1484C130.875 36.0117 130.645 36.0078 130.523 36.1367Z" fill="#BBE1FA"/>
<path d="M125.332 40.9024C124.684 41.5508 124.617 41.6289 124.617 41.75C124.617 41.8711 124.684 41.9492 125.332 42.5977C126.102 43.3711 126.152 43.4024 126.352 43.2266C126.406 43.1758 126.461 43.0859 126.477 43.0274C126.5 42.9258 126.453 42.8711 125.922 42.332L125.344 41.75L125.895 41.1914C126.199 40.8867 126.449 40.6094 126.453 40.5781C126.473 40.4453 126.449 40.375 126.355 40.2852C126.164 40.0899 126.109 40.125 125.332 40.9024Z" fill="#BBE1FA"/>
<path d="M128.094 40.2344C128.008 40.2773 127.938 40.457 127.559 41.5742C127.32 42.2851 127.121 42.9179 127.121 42.9804C127.117 43.1328 127.203 43.2578 127.336 43.289C127.461 43.3203 127.648 43.2539 127.684 43.164C127.773 42.9492 128.563 40.5469 128.563 40.4922C128.563 40.3984 128.406 40.2344 128.289 40.207C128.234 40.1953 128.148 40.207 128.094 40.2344Z" fill="#BBE1FA"/>
<path d="M129.301 40.3008C129.094 40.5078 129.125 40.5664 129.742 41.1914L130.297 41.75L129.742 42.3086C129.125 42.9336 129.094 42.9922 129.301 43.1992C129.516 43.4141 129.555 43.3907 130.348 42.5977C130.996 41.9492 131.063 41.8711 131.063 41.75C131.063 41.6289 130.996 41.5508 130.348 40.9024C129.555 40.1094 129.516 40.086 129.301 40.3008Z" fill="#BBE1FA"/>
</g>
<defs>
<clipPath id="clip0_1550_2">
<rect width="200" height="100" fill="white"/>
</clipPath>
<clipPath id="clip1_1550_2">
<rect width="10" height="10" fill="white" transform="translate(95 33)"/>
</clipPath>
</defs>
</svg>
