<svg width="200" height="100" viewBox="0 0 200 100" fill="none" xmlns="http://www.w3.org/2000/svg">
<g clip-path="url(#clip0_1550_39)">
<rect width="200" height="100" fill="#BBE1FA"/>
<rect x="91" y="29" width="18" height="18" rx="3" fill="#3282B8"/>
<path d="M94.8063 33.3383C94.5883 33.4016 94.375 33.6313 94.3305 33.8586C94.3117 33.943 94.3047 35.1969 94.3094 38.0703L94.3164 42.1602L94.382 42.2938C94.4524 42.4367 94.5555 42.5398 94.7102 42.6219L94.8086 42.6758H100H105.191L105.29 42.6219C105.445 42.5398 105.548 42.4367 105.618 42.2938L105.684 42.1602V38V33.8398L105.618 33.7063C105.548 33.5633 105.445 33.4602 105.29 33.3781L105.191 33.3242L100.035 33.3195C96.9813 33.3172 94.8485 33.3242 94.8063 33.3383ZM105.149 33.7344C105.306 33.8305 105.309 33.8328 105.316 34.6063L105.323 35.3047H100H94.6774L94.6844 34.6063C94.6914 33.8328 94.6938 33.8305 94.8508 33.7344C94.9235 33.6875 95.0125 33.6875 100 33.6875C104.988 33.6875 105.077 33.6875 105.149 33.7344ZM105.309 38.8906C105.309 41.9375 105.306 42.0945 105.266 42.1555C105.243 42.193 105.191 42.2422 105.149 42.2656C105.077 42.3125 104.988 42.3125 100 42.3125C95.0125 42.3125 94.9235 42.3125 94.8508 42.2656C94.8086 42.2422 94.757 42.193 94.7336 42.1555C94.6938 42.0945 94.6914 41.9328 94.6844 38.9164C94.682 37.168 94.6844 35.7242 94.6914 35.7102C94.6985 35.6844 95.7555 35.6797 100.005 35.6844L105.309 35.6914V38.8906Z" fill="#BBE1FA"/>
<path d="M95.3617 34.3812C95.2984 34.4633 95.3008 34.5359 95.3664 34.6156C95.4062 34.6625 95.4437 34.6789 95.5 34.6789C95.5914 34.6789 95.6875 34.5851 95.6875 34.4937C95.6875 34.3391 95.4578 34.2594 95.3617 34.3812Z" fill="#BBE1FA"/>
<path d="M96.1117 34.3812C96.0484 34.4633 96.0508 34.5359 96.1164 34.6156C96.1562 34.6625 96.1937 34.6789 96.25 34.6789C96.3414 34.6789 96.4375 34.5851 96.4375 34.4937C96.4375 34.3391 96.2078 34.2594 96.1117 34.3812Z" fill="#BBE1FA"/>
<path d="M96.8617 34.3812C96.7984 34.4633 96.8008 34.5359 96.8664 34.6156C96.9062 34.6625 96.9437 34.6789 97 34.6789C97.0914 34.6789 97.1875 34.5851 97.1875 34.4937C97.1875 34.3391 96.9578 34.2594 96.8617 34.3812Z" fill="#BBE1FA"/>
<path d="M101.875 34.3672C101.809 34.4328 101.812 34.5781 101.877 34.6391C101.924 34.6812 101.987 34.6836 103.239 34.6906L104.549 34.6953L104.622 34.625C104.68 34.5641 104.69 34.5406 104.678 34.4797C104.671 34.4375 104.645 34.3859 104.624 34.3625C104.589 34.3227 104.512 34.3203 103.253 34.3203C101.952 34.3203 101.922 34.3203 101.875 34.3672Z" fill="#BBE1FA"/>
<path d="M96.1024 36.8282C95.957 36.8657 95.8399 36.9383 95.7391 37.0508C95.5774 37.2336 95.5703 37.2782 95.5703 38.1055C95.5703 38.9164 95.5656 38.8953 95.7297 38.9282C95.7906 38.9399 95.8141 38.9305 95.875 38.8719C95.9406 38.8039 95.9453 38.7899 95.9453 38.6235V38.4453H96.25H96.5547V38.6235C96.5547 38.7899 96.5594 38.8039 96.625 38.8719C96.686 38.9305 96.7094 38.9399 96.7703 38.9282C96.9344 38.8953 96.9297 38.9164 96.9297 38.1055C96.9297 37.2711 96.9227 37.2313 96.7516 37.0414C96.5922 36.8633 96.3203 36.7742 96.1024 36.8282ZM96.3672 37.2172C96.5289 37.2828 96.5547 37.3532 96.5547 37.7399V38.0703H96.25H95.9453V37.7399C95.9453 37.3602 95.9641 37.3039 96.1211 37.2266C96.2336 37.1703 96.2477 37.1703 96.3672 37.2172Z" fill="#BBE1FA"/>
<path d="M97.4219 36.8328C97.307 36.8938 97.3047 36.9172 97.3047 37.8899V38.8016L97.375 38.8719C97.4359 38.9305 97.4594 38.9399 97.5203 38.9282C97.6703 38.8977 97.6797 38.8719 97.6797 38.511V38.1875H97.8883C98.1836 38.1875 98.3148 38.1407 98.4789 37.9766C98.5797 37.8758 98.6172 37.8172 98.65 37.7094C98.7555 37.3766 98.6078 37.0367 98.2937 36.8821C98.1695 36.8211 98.1367 36.8164 97.8203 36.8094C97.5742 36.8047 97.4641 36.8117 97.4219 36.8328ZM98.1578 37.236C98.3031 37.3297 98.3477 37.5008 98.2703 37.6461C98.2047 37.7703 98.1016 37.8125 97.8742 37.8125H97.6797V37.5125C97.6797 37.3461 97.6867 37.2032 97.6984 37.1938C97.7312 37.1586 98.0922 37.1914 98.1578 37.236Z" fill="#BBE1FA"/>
<path d="M101.824 36.8281C101.631 36.8867 101.519 37.0273 101.491 37.2383C101.474 37.3695 101.392 37.4727 101.289 37.4961C101.252 37.5055 101.179 37.4914 101.104 37.4609C100.952 37.4023 100.82 37.4 100.708 37.4586C100.584 37.5219 100.544 37.5734 100.34 37.9297C100.192 38.1852 100.155 38.2695 100.145 38.368C100.131 38.5297 100.202 38.6797 100.34 38.7734C100.452 38.8508 100.469 38.8812 100.469 39.0125C100.469 39.0945 100.455 39.1203 100.319 39.2492C100.073 39.4859 100.075 39.6102 100.333 40.0555C100.572 40.4656 100.56 40.4492 100.666 40.5172C100.776 40.5898 100.956 40.5992 101.095 40.543C101.291 40.4609 101.458 40.5406 101.488 40.7328C101.495 40.782 101.507 40.8453 101.512 40.8734C101.531 40.9648 101.629 41.082 101.734 41.1336C101.831 41.1828 101.87 41.1875 102.25 41.1875C102.63 41.1875 102.67 41.1828 102.766 41.1336C102.871 41.082 102.97 40.9648 102.988 40.8734C102.993 40.8453 103.005 40.782 103.012 40.7328C103.042 40.5406 103.209 40.4609 103.406 40.543C103.532 40.5945 103.715 40.5875 103.823 40.5266C103.919 40.4727 103.956 40.4211 104.195 40.0086C104.42 39.6172 104.42 39.4859 104.181 39.2516C104.045 39.118 104.031 39.0945 104.031 39.0078C104.031 38.8836 104.055 38.8437 104.17 38.7641C104.301 38.6727 104.369 38.5273 104.355 38.368C104.345 38.2695 104.308 38.1852 104.16 37.9297C103.947 37.5617 103.912 37.5172 103.785 37.4586C103.663 37.4023 103.546 37.4023 103.399 37.4609C103.26 37.5148 103.181 37.5055 103.089 37.4187C103.045 37.3766 103.021 37.3273 103.012 37.2523C102.991 37.0812 102.913 36.9523 102.791 36.8797C102.686 36.8187 102.672 36.8164 102.285 36.8117C102.067 36.8094 101.859 36.8164 101.824 36.8281ZM102.588 37.1937C102.611 37.2031 102.63 37.25 102.639 37.3227C102.674 37.5781 102.89 37.8055 103.152 37.8594C103.258 37.8805 103.302 37.8781 103.415 37.8477C103.49 37.8266 103.572 37.8055 103.598 37.7984C103.638 37.7891 103.67 37.8336 103.809 38.0727C103.9 38.2297 103.975 38.3727 103.98 38.3914C103.984 38.4102 103.94 38.4664 103.879 38.5203C103.741 38.6422 103.677 38.7711 103.661 38.9516C103.645 39.1766 103.745 39.4039 103.912 39.5117C103.952 39.5375 103.984 39.5727 103.984 39.5891C103.984 39.6031 103.909 39.7484 103.818 39.9102C103.64 40.2242 103.631 40.2289 103.485 40.168C103.356 40.1141 103.15 40.1234 103.012 40.1891C102.801 40.2875 102.691 40.4375 102.634 40.707L102.613 40.8008H102.25H101.887L101.866 40.707C101.809 40.4375 101.699 40.2875 101.488 40.1891C101.35 40.1234 101.144 40.1141 101.015 40.168C100.87 40.2289 100.86 40.2242 100.682 39.9102C100.591 39.7484 100.516 39.6031 100.516 39.5891C100.516 39.5727 100.549 39.5375 100.588 39.5117C100.628 39.4859 100.689 39.4227 100.724 39.3711C100.919 39.0898 100.877 38.7453 100.624 38.5227C100.563 38.4687 100.516 38.4102 100.52 38.3914C100.525 38.3727 100.602 38.2297 100.691 38.0727C100.83 37.8336 100.863 37.7891 100.902 37.7984C100.928 37.8055 101.01 37.8266 101.085 37.8477C101.427 37.9437 101.777 37.7164 101.854 37.3461C101.868 37.2734 101.891 37.2078 101.908 37.1984C101.938 37.1773 102.536 37.1727 102.588 37.1937Z" fill="#BBE1FA"/>
<path d="M101.976 38.1031C101.488 38.2625 101.209 38.7805 101.355 39.2586C101.479 39.6664 101.83 39.9313 102.25 39.9313C102.662 39.9313 103.019 39.6664 103.141 39.2703C103.248 38.9211 103.152 38.5719 102.88 38.3164C102.705 38.15 102.541 38.0867 102.285 38.0774C102.152 38.0727 102.037 38.0821 101.976 38.1031ZM102.545 38.5297C102.616 38.5719 102.686 38.6422 102.73 38.7125C102.791 38.8133 102.801 38.8508 102.801 38.9938C102.801 39.1953 102.737 39.3289 102.585 39.4438C102.442 39.5539 102.271 39.5867 102.107 39.5399C101.61 39.3922 101.54 38.736 101.997 38.5039C102.17 38.4172 102.381 38.4266 102.545 38.5297Z" fill="#BBE1FA"/>
<path d="M99.1141 36.8821C99.0625 36.936 99.0625 36.943 99.0625 37.8641C99.0625 38.375 99.0695 38.811 99.0766 38.8321C99.1 38.8907 99.2219 38.9422 99.2992 38.9258C99.4375 38.8953 99.4375 38.9 99.4375 37.8805C99.4375 36.9758 99.4352 36.95 99.3883 36.8891C99.325 36.8071 99.1867 36.8047 99.1141 36.8821Z" fill="#BBE1FA"/>
<path d="M95.9992 39.7414C95.6102 40.1305 95.5703 40.1773 95.5703 40.25C95.5703 40.3227 95.6102 40.3695 95.9992 40.7586C96.4609 41.2227 96.4914 41.2414 96.6109 41.1359C96.6438 41.1055 96.6766 41.0516 96.6859 41.0164C96.7 40.9555 96.6719 40.9227 96.3531 40.5992L96.0063 40.25L96.3367 39.9148C96.5195 39.732 96.6695 39.5656 96.6719 39.5469C96.6836 39.4672 96.6695 39.425 96.6133 39.3711C96.4984 39.2539 96.4656 39.275 95.9992 39.7414Z" fill="#BBE1FA"/>
<path d="M97.6563 39.3406C97.6047 39.3664 97.5626 39.4742 97.3352 40.1446C97.1922 40.5711 97.0727 40.9508 97.0727 40.9883C97.0704 41.0797 97.1219 41.1547 97.2016 41.1735C97.2766 41.1922 97.3891 41.1524 97.4102 41.0985C97.4641 40.9696 97.9376 39.5281 97.9376 39.4953C97.9376 39.4391 97.8438 39.3406 97.7735 39.3242C97.7407 39.3172 97.6891 39.3242 97.6563 39.3406Z" fill="#BBE1FA"/>
<path d="M98.3805 39.3804C98.2563 39.5047 98.275 39.5398 98.6453 39.9148L98.9781 40.25L98.6453 40.5851C98.275 40.9601 98.2563 40.9953 98.3805 41.1195C98.5094 41.2484 98.5328 41.2344 99.0086 40.7586C99.3977 40.3695 99.4375 40.3226 99.4375 40.25C99.4375 40.1773 99.3977 40.1304 99.0086 39.7414C98.5328 39.2656 98.5094 39.2515 98.3805 39.3804Z" fill="#BBE1FA"/>
<path d="M52.7152 55.7273V63H51.3871L48.223 58.4226H48.1697V63H46.6321V55.7273H47.9815L51.1207 60.3011H51.1847V55.7273H52.7152ZM60.6689 59.3636C60.6689 60.1567 60.5185 60.8314 60.2179 61.3878C59.9196 61.9441 59.5124 62.3691 58.9963 62.6626C58.4825 62.9538 57.9049 63.0994 57.2633 63.0994C56.617 63.0994 56.037 62.9527 55.5233 62.6591C55.0095 62.3655 54.6035 61.9406 54.3052 61.3842C54.0069 60.8279 53.8578 60.1544 53.8578 59.3636C53.8578 58.5705 54.0069 57.8958 54.3052 57.3395C54.6035 56.7831 55.0095 56.3594 55.5233 56.0682C56.037 55.7746 56.617 55.6278 57.2633 55.6278C57.9049 55.6278 58.4825 55.7746 58.9963 56.0682C59.5124 56.3594 59.9196 56.7831 60.2179 57.3395C60.5185 57.8958 60.6689 58.5705 60.6689 59.3636ZM59.1099 59.3636C59.1099 58.8499 59.033 58.4167 58.8791 58.0639C58.7276 57.7112 58.5133 57.4437 58.2363 57.2614C57.9593 57.0791 57.635 56.9879 57.2633 56.9879C56.8916 56.9879 56.5673 57.0791 56.2903 57.2614C56.0133 57.4437 55.7979 57.7112 55.644 58.0639C55.4925 58.4167 55.4167 58.8499 55.4167 59.3636C55.4167 59.8774 55.4925 60.3106 55.644 60.6634C55.7979 61.0161 56.0133 61.2836 56.2903 61.4659C56.5673 61.6482 56.8916 61.7393 57.2633 61.7393C57.635 61.7393 57.9593 61.6482 58.2363 61.4659C58.5133 61.2836 58.7276 61.0161 58.8791 60.6634C59.033 60.3106 59.1099 59.8774 59.1099 59.3636ZM65.66 55.7273V63H64.1223V55.7273H65.66ZM66.9251 55.7273H68.8214L70.8242 60.6136H70.9094L72.9123 55.7273H74.8086V63H73.3171V58.2663H73.2567L71.3746 62.9645H70.359L68.4769 58.2486H68.4165V63H66.9251V55.7273ZM77.329 63H75.6813L78.1919 55.7273H80.1735L82.6806 63H81.0328L79.2111 57.3892H79.1543L77.329 63ZM77.226 60.1413H81.1181V61.3416H77.226V60.1413ZM88.0366 58.0781C87.9869 57.9053 87.917 57.7526 87.8271 57.62C87.7371 57.4851 87.627 57.3714 87.4968 57.2791C87.369 57.1844 87.2222 57.1122 87.0565 57.0625C86.8931 57.0128 86.712 56.9879 86.5131 56.9879C86.1415 56.9879 85.8147 57.0803 85.533 57.2649C85.2537 57.4496 85.0359 57.7183 84.8796 58.071C84.7234 58.4214 84.6452 58.8499 84.6452 59.3565C84.6452 59.8632 84.7222 60.294 84.8761 60.6491C85.0299 61.0043 85.2478 61.2753 85.5295 61.4624C85.8112 61.647 86.1438 61.7393 86.5273 61.7393C86.8754 61.7393 87.1725 61.6778 87.4187 61.5547C87.6673 61.4292 87.8567 61.2528 87.9869 61.0256C88.1194 60.7983 88.1857 60.5296 88.1857 60.2195L88.4982 60.2656H86.6232V59.108H89.6665V60.0241C89.6665 60.6634 89.5316 61.2126 89.2617 61.6719C88.9918 62.1288 88.6201 62.4815 88.1467 62.7301C87.6732 62.9763 87.131 63.0994 86.5202 63.0994C85.8384 63.0994 85.2395 62.9491 84.7234 62.6484C84.2073 62.3454 83.8048 61.9157 83.516 61.3594C83.2295 60.8007 83.0863 60.1378 83.0863 59.3707C83.0863 58.7812 83.1715 58.2557 83.342 57.794C83.5148 57.33 83.7563 56.937 84.0664 56.6151C84.3765 56.2931 84.7376 56.0481 85.1495 55.88C85.5614 55.7119 86.0077 55.6278 86.4883 55.6278C86.9002 55.6278 87.2837 55.6882 87.6388 55.8089C87.994 55.9273 88.3088 56.0954 88.5835 56.3132C88.8604 56.531 89.0865 56.7902 89.2617 57.0909C89.4369 57.3892 89.5494 57.7183 89.5991 58.0781H88.0366ZM90.8216 63V55.7273H95.7221V56.995H92.3592V58.728H95.47V59.9957H92.3592V61.7322H95.7363V63H90.8216ZM100.513 63H98.8649L101.376 55.7273H103.357L105.864 63H104.216L102.395 57.3892H102.338L100.513 63ZM100.41 60.1413H104.302V61.3416H100.41V60.1413ZM107.145 55.7273L108.903 61.2528H108.971L110.732 55.7273H112.436L109.929 63H107.948L105.437 55.7273H107.145ZM113.599 63H111.951L114.461 55.7273H116.443L118.95 63H117.302L115.481 57.3892H115.424L113.599 63ZM113.496 60.1413H117.388V61.3416H113.496V60.1413ZM121.363 55.7273V63H119.825V55.7273H121.363ZM122.628 63V55.7273H124.166V61.7322H127.284V63H122.628ZM129.741 63H128.093L130.604 55.7273H132.586L135.093 63H133.445L131.623 57.3892H131.566L129.741 63ZM129.638 60.1413H133.53V61.3416H129.638V60.1413ZM135.968 63V55.7273H138.88C139.415 55.7273 139.861 55.8066 140.219 55.9652C140.576 56.1238 140.845 56.344 141.025 56.6257C141.205 56.9051 141.295 57.227 141.295 57.5916C141.295 57.8757 141.238 58.1255 141.124 58.3409C141.011 58.554 140.854 58.7292 140.656 58.8665C140.459 59.0014 140.234 59.0973 139.981 59.1541V59.2251C140.258 59.237 140.517 59.3151 140.759 59.4595C141.002 59.6039 141.2 59.8063 141.352 60.0668C141.503 60.3248 141.579 60.6326 141.579 60.9901C141.579 61.3759 141.483 61.7204 141.291 62.0234C141.102 62.3241 140.821 62.562 140.45 62.7372C140.078 62.9124 139.62 63 139.075 63H135.968ZM137.506 61.7429H138.759C139.188 61.7429 139.5 61.6612 139.697 61.4979C139.893 61.3321 139.991 61.112 139.991 60.8374C139.991 60.6361 139.943 60.4586 139.846 60.3047C139.749 60.1508 139.61 60.0301 139.43 59.9425C139.253 59.8549 139.041 59.8111 138.795 59.8111H137.506V61.7429ZM137.506 58.7706H138.646C138.856 58.7706 139.043 58.7339 139.207 58.6605C139.372 58.5848 139.503 58.4782 139.597 58.3409C139.694 58.2036 139.743 58.0391 139.743 57.8473C139.743 57.5845 139.649 57.3726 139.462 57.2116C139.278 57.0507 139.015 56.9702 138.674 56.9702H137.506V58.7706ZM142.579 63V55.7273H144.117V61.7322H147.235V63H142.579ZM148.253 63V55.7273H153.154V56.995H149.791V58.728H152.902V59.9957H149.791V61.7322H153.168V63H148.253Z" fill="#3282B8"/>
</g>
<defs>
<clipPath id="clip0_1550_39">
<rect width="200" height="100" fill="white"/>
</clipPath>
</defs>
</svg>
