<svg width="200" height="100" viewBox="0 0 200 100" fill="none" xmlns="http://www.w3.org/2000/svg">
<g clip-path="url(#clip0_1550_123)">
<rect width="200" height="100" fill="#BBE1FA"/>
<rect x="74" y="29" width="18" height="18" rx="3" fill="#3282B8"/>
<g clip-path="url(#clip1_1550_123)">
<path d="M83.9642 33L78.9584 38L80.5 39.5417L87.035 33.005H83.9696L83.9642 33ZM83.97 37.6133L81.2738 40.3037L83.9696 42.9996H87.0417L84.35 40.3046L87.0417 37.6129H83.9705L83.97 37.6133Z" fill="#BBE1FA"/>
</g>
<path d="M52.7152 55.7273V63H51.3871L48.223 58.4226H48.1697V63H46.6321V55.7273H47.9815L51.1207 60.3011H51.1847V55.7273H52.7152ZM60.6689 59.3636C60.6689 60.1567 60.5185 60.8314 60.2179 61.3878C59.9196 61.9441 59.5124 62.3691 58.9963 62.6626C58.4825 62.9538 57.9049 63.0994 57.2633 63.0994C56.617 63.0994 56.037 62.9527 55.5233 62.6591C55.0095 62.3655 54.6035 61.9406 54.3052 61.3842C54.0069 60.8279 53.8578 60.1544 53.8578 59.3636C53.8578 58.5705 54.0069 57.8958 54.3052 57.3395C54.6035 56.7831 55.0095 56.3594 55.5233 56.0682C56.037 55.7746 56.617 55.6278 57.2633 55.6278C57.9049 55.6278 58.4825 55.7746 58.9963 56.0682C59.5124 56.3594 59.9196 56.7831 60.2179 57.3395C60.5185 57.8958 60.6689 58.5705 60.6689 59.3636ZM59.1099 59.3636C59.1099 58.8499 59.033 58.4167 58.8791 58.0639C58.7276 57.7112 58.5133 57.4437 58.2363 57.2614C57.9593 57.0791 57.635 56.9879 57.2633 56.9879C56.8916 56.9879 56.5673 57.0791 56.2903 57.2614C56.0133 57.4437 55.7979 57.7112 55.644 58.0639C55.4925 58.4167 55.4167 58.8499 55.4167 59.3636C55.4167 59.8774 55.4925 60.3106 55.644 60.6634C55.7979 61.0161 56.0133 61.2836 56.2903 61.4659C56.5673 61.6482 56.8916 61.7393 57.2633 61.7393C57.635 61.7393 57.9593 61.6482 58.2363 61.4659C58.5133 61.2836 58.7276 61.0161 58.8791 60.6634C59.033 60.3106 59.1099 59.8774 59.1099 59.3636ZM65.66 55.7273V63H64.1223V55.7273H65.66ZM66.9251 55.7273H68.8214L70.8242 60.6136H70.9094L72.9123 55.7273H74.8086V63H73.3171V58.2663H73.2567L71.3746 62.9645H70.359L68.4769 58.2486H68.4165V63H66.9251V55.7273ZM77.329 63H75.6813L78.1919 55.7273H80.1735L82.6806 63H81.0328L79.2111 57.3892H79.1543L77.329 63ZM77.226 60.1413H81.1181V61.3416H77.226V60.1413ZM88.0366 58.0781C87.9869 57.9053 87.917 57.7526 87.8271 57.62C87.7371 57.4851 87.627 57.3714 87.4968 57.2791C87.369 57.1844 87.2222 57.1122 87.0565 57.0625C86.8931 57.0128 86.712 56.9879 86.5131 56.9879C86.1415 56.9879 85.8147 57.0803 85.533 57.2649C85.2537 57.4496 85.0359 57.7183 84.8796 58.071C84.7234 58.4214 84.6452 58.8499 84.6452 59.3565C84.6452 59.8632 84.7222 60.294 84.8761 60.6491C85.0299 61.0043 85.2478 61.2753 85.5295 61.4624C85.8112 61.647 86.1438 61.7393 86.5273 61.7393C86.8754 61.7393 87.1725 61.6778 87.4187 61.5547C87.6673 61.4292 87.8567 61.2528 87.9869 61.0256C88.1194 60.7983 88.1857 60.5296 88.1857 60.2195L88.4982 60.2656H86.6232V59.108H89.6665V60.0241C89.6665 60.6634 89.5316 61.2126 89.2617 61.6719C88.9918 62.1288 88.6201 62.4815 88.1467 62.7301C87.6732 62.9763 87.131 63.0994 86.5202 63.0994C85.8384 63.0994 85.2395 62.9491 84.7234 62.6484C84.2073 62.3454 83.8048 61.9157 83.516 61.3594C83.2295 60.8007 83.0863 60.1378 83.0863 59.3707C83.0863 58.7812 83.1715 58.2557 83.342 57.794C83.5148 57.33 83.7563 56.937 84.0664 56.6151C84.3765 56.2931 84.7376 56.0481 85.1495 55.88C85.5614 55.7119 86.0077 55.6278 86.4883 55.6278C86.9002 55.6278 87.2837 55.6882 87.6388 55.8089C87.994 55.9273 88.3088 56.0954 88.5835 56.3132C88.8604 56.531 89.0865 56.7902 89.2617 57.0909C89.4369 57.3892 89.5494 57.7183 89.5991 58.0781H88.0366ZM90.8216 63V55.7273H95.7221V56.995H92.3592V58.728H95.47V59.9957H92.3592V61.7322H95.7363V63H90.8216ZM100.513 63H98.8649L101.376 55.7273H103.357L105.864 63H104.216L102.395 57.3892H102.338L100.513 63ZM100.41 60.1413H104.302V61.3416H100.41V60.1413ZM107.145 55.7273L108.903 61.2528H108.971L110.732 55.7273H112.436L109.929 63H107.948L105.437 55.7273H107.145ZM113.599 63H111.951L114.461 55.7273H116.443L118.95 63H117.302L115.481 57.3892H115.424L113.599 63ZM113.496 60.1413H117.388V61.3416H113.496V60.1413ZM121.363 55.7273V63H119.825V55.7273H121.363ZM122.628 63V55.7273H124.166V61.7322H127.284V63H122.628ZM129.741 63H128.093L130.604 55.7273H132.586L135.093 63H133.445L131.623 57.3892H131.566L129.741 63ZM129.638 60.1413H133.53V61.3416H129.638V60.1413ZM135.968 63V55.7273H138.88C139.415 55.7273 139.861 55.8066 140.219 55.9652C140.576 56.1238 140.845 56.344 141.025 56.6257C141.205 56.9051 141.295 57.227 141.295 57.5916C141.295 57.8757 141.238 58.1255 141.124 58.3409C141.011 58.554 140.854 58.7292 140.656 58.8665C140.459 59.0014 140.234 59.0973 139.981 59.1541V59.2251C140.258 59.237 140.517 59.3151 140.759 59.4595C141.002 59.6039 141.2 59.8063 141.352 60.0668C141.503 60.3248 141.579 60.6326 141.579 60.9901C141.579 61.3759 141.483 61.7204 141.291 62.0234C141.102 62.3241 140.821 62.562 140.45 62.7372C140.078 62.9124 139.62 63 139.075 63H135.968ZM137.506 61.7429H138.759C139.188 61.7429 139.5 61.6612 139.697 61.4979C139.893 61.3321 139.991 61.112 139.991 60.8374C139.991 60.6361 139.943 60.4586 139.846 60.3047C139.749 60.1508 139.61 60.0301 139.43 59.9425C139.253 59.8549 139.041 59.8111 138.795 59.8111H137.506V61.7429ZM137.506 58.7706H138.646C138.856 58.7706 139.043 58.7339 139.207 58.6605C139.372 58.5848 139.503 58.4782 139.597 58.3409C139.694 58.2036 139.743 58.0391 139.743 57.8473C139.743 57.5845 139.649 57.3726 139.462 57.2116C139.278 57.0507 139.015 56.9702 138.674 56.9702H137.506V58.7706ZM142.579 63V55.7273H144.117V61.7322H147.235V63H142.579ZM148.253 63V55.7273H153.154V56.995H149.791V58.728H152.902V59.9957H149.791V61.7322H153.168V63H148.253Z" fill="#3282B8"/>
<rect x="108" y="29" width="18" height="18" rx="3" fill="#3282B8"/>
<path d="M111.806 33.3383C111.588 33.4016 111.375 33.6313 111.33 33.8586C111.312 33.943 111.305 35.1969 111.309 38.0703L111.316 42.1602L111.382 42.2938C111.452 42.4367 111.555 42.5398 111.71 42.6219L111.809 42.6758H117H122.191L122.29 42.6219C122.445 42.5398 122.548 42.4367 122.618 42.2938L122.684 42.1602V38V33.8398L122.618 33.7063C122.548 33.5633 122.445 33.4602 122.29 33.3781L122.191 33.3242L117.035 33.3195C113.981 33.3172 111.848 33.3242 111.806 33.3383ZM122.149 33.7344C122.306 33.8305 122.309 33.8328 122.316 34.6063L122.323 35.3047H117H111.677L111.684 34.6063C111.691 33.8328 111.694 33.8305 111.851 33.7344C111.923 33.6875 112.013 33.6875 117 33.6875C121.988 33.6875 122.077 33.6875 122.149 33.7344ZM122.309 38.8906C122.309 41.9375 122.306 42.0945 122.266 42.1555C122.243 42.193 122.191 42.2422 122.149 42.2656C122.077 42.3125 121.988 42.3125 117 42.3125C112.013 42.3125 111.923 42.3125 111.851 42.2656C111.809 42.2422 111.757 42.193 111.734 42.1555C111.694 42.0945 111.691 41.9328 111.684 38.9164C111.682 37.168 111.684 35.7242 111.691 35.7102C111.698 35.6844 112.755 35.6797 117.005 35.6844L122.309 35.6914V38.8906Z" fill="#BBE1FA"/>
<path d="M112.362 34.3812C112.298 34.4633 112.301 34.5359 112.366 34.6156C112.406 34.6625 112.444 34.6789 112.5 34.6789C112.591 34.6789 112.687 34.5851 112.687 34.4937C112.687 34.3391 112.458 34.2594 112.362 34.3812Z" fill="#BBE1FA"/>
<path d="M113.112 34.3812C113.048 34.4633 113.051 34.5359 113.116 34.6156C113.156 34.6625 113.194 34.6789 113.25 34.6789C113.341 34.6789 113.437 34.5851 113.437 34.4937C113.437 34.3391 113.208 34.2594 113.112 34.3812Z" fill="#BBE1FA"/>
<path d="M113.862 34.3812C113.798 34.4633 113.801 34.5359 113.866 34.6156C113.906 34.6625 113.944 34.6789 114 34.6789C114.091 34.6789 114.187 34.5851 114.187 34.4937C114.187 34.3391 113.958 34.2594 113.862 34.3812Z" fill="#BBE1FA"/>
<path d="M118.875 34.3672C118.809 34.4328 118.812 34.5781 118.877 34.6391C118.924 34.6812 118.987 34.6836 120.239 34.6906L121.549 34.6953L121.622 34.625C121.68 34.5641 121.69 34.5406 121.678 34.4797C121.671 34.4375 121.645 34.3859 121.624 34.3625C121.589 34.3227 121.512 34.3203 120.253 34.3203C118.952 34.3203 118.922 34.3203 118.875 34.3672Z" fill="#BBE1FA"/>
<path d="M113.102 36.8282C112.957 36.8657 112.84 36.9383 112.739 37.0508C112.577 37.2336 112.57 37.2782 112.57 38.1055C112.57 38.9164 112.566 38.8953 112.73 38.9282C112.791 38.9399 112.814 38.9305 112.875 38.8719C112.941 38.8039 112.945 38.7899 112.945 38.6235V38.4453H113.25H113.555V38.6235C113.555 38.7899 113.559 38.8039 113.625 38.8719C113.686 38.9305 113.709 38.9399 113.77 38.9282C113.934 38.8953 113.93 38.9164 113.93 38.1055C113.93 37.2711 113.923 37.2313 113.752 37.0414C113.592 36.8633 113.32 36.7742 113.102 36.8282ZM113.367 37.2172C113.529 37.2828 113.555 37.3532 113.555 37.7399V38.0703H113.25H112.945V37.7399C112.945 37.3602 112.964 37.3039 113.121 37.2266C113.234 37.1703 113.248 37.1703 113.367 37.2172Z" fill="#BBE1FA"/>
<path d="M114.422 36.8328C114.307 36.8938 114.305 36.9172 114.305 37.8899V38.8016L114.375 38.8719C114.436 38.9305 114.459 38.9399 114.52 38.9282C114.67 38.8977 114.68 38.8719 114.68 38.511V38.1875H114.888C115.184 38.1875 115.315 38.1407 115.479 37.9766C115.58 37.8758 115.617 37.8172 115.65 37.7094C115.755 37.3766 115.608 37.0367 115.294 36.8821C115.17 36.8211 115.137 36.8164 114.82 36.8094C114.574 36.8047 114.464 36.8117 114.422 36.8328ZM115.158 37.236C115.303 37.3297 115.348 37.5008 115.27 37.6461C115.205 37.7703 115.102 37.8125 114.874 37.8125H114.68V37.5125C114.68 37.3461 114.687 37.2032 114.698 37.1938C114.731 37.1586 115.092 37.1914 115.158 37.236Z" fill="#BBE1FA"/>
<path d="M118.824 36.8281C118.631 36.8867 118.519 37.0273 118.491 37.2383C118.474 37.3695 118.392 37.4727 118.289 37.4961C118.252 37.5055 118.179 37.4914 118.104 37.4609C117.952 37.4023 117.82 37.4 117.708 37.4586C117.584 37.5219 117.544 37.5734 117.34 37.9297C117.192 38.1852 117.155 38.2695 117.145 38.368C117.131 38.5297 117.202 38.6797 117.34 38.7734C117.452 38.8508 117.469 38.8812 117.469 39.0125C117.469 39.0945 117.455 39.1203 117.319 39.2492C117.073 39.4859 117.075 39.6102 117.333 40.0555C117.572 40.4656 117.56 40.4492 117.666 40.5172C117.776 40.5898 117.956 40.5992 118.095 40.543C118.291 40.4609 118.458 40.5406 118.488 40.7328C118.495 40.782 118.507 40.8453 118.512 40.8734C118.531 40.9648 118.629 41.082 118.734 41.1336C118.831 41.1828 118.87 41.1875 119.25 41.1875C119.63 41.1875 119.67 41.1828 119.766 41.1336C119.871 41.082 119.97 40.9648 119.988 40.8734C119.993 40.8453 120.005 40.782 120.012 40.7328C120.042 40.5406 120.209 40.4609 120.406 40.543C120.532 40.5945 120.715 40.5875 120.823 40.5266C120.919 40.4727 120.956 40.4211 121.195 40.0086C121.42 39.6172 121.42 39.4859 121.181 39.2516C121.045 39.118 121.031 39.0945 121.031 39.0078C121.031 38.8836 121.055 38.8437 121.17 38.7641C121.301 38.6727 121.369 38.5273 121.355 38.368C121.345 38.2695 121.308 38.1852 121.16 37.9297C120.947 37.5617 120.912 37.5172 120.785 37.4586C120.663 37.4023 120.546 37.4023 120.399 37.4609C120.26 37.5148 120.181 37.5055 120.089 37.4187C120.045 37.3766 120.021 37.3273 120.012 37.2523C119.991 37.0812 119.913 36.9523 119.791 36.8797C119.686 36.8187 119.672 36.8164 119.285 36.8117C119.067 36.8094 118.859 36.8164 118.824 36.8281ZM119.588 37.1937C119.611 37.2031 119.63 37.25 119.639 37.3227C119.674 37.5781 119.89 37.8055 120.152 37.8594C120.258 37.8805 120.302 37.8781 120.415 37.8477C120.49 37.8266 120.572 37.8055 120.598 37.7984C120.638 37.7891 120.67 37.8336 120.809 38.0727C120.9 38.2297 120.975 38.3727 120.98 38.3914C120.984 38.4102 120.94 38.4664 120.879 38.5203C120.741 38.6422 120.677 38.7711 120.661 38.9516C120.645 39.1766 120.745 39.4039 120.912 39.5117C120.952 39.5375 120.984 39.5727 120.984 39.5891C120.984 39.6031 120.909 39.7484 120.818 39.9102C120.64 40.2242 120.631 40.2289 120.485 40.168C120.356 40.1141 120.15 40.1234 120.012 40.1891C119.801 40.2875 119.691 40.4375 119.634 40.707L119.613 40.8008H119.25H118.887L118.866 40.707C118.809 40.4375 118.699 40.2875 118.488 40.1891C118.35 40.1234 118.144 40.1141 118.015 40.168C117.87 40.2289 117.86 40.2242 117.682 39.9102C117.591 39.7484 117.516 39.6031 117.516 39.5891C117.516 39.5727 117.549 39.5375 117.588 39.5117C117.628 39.4859 117.689 39.4227 117.724 39.3711C117.919 39.0898 117.877 38.7453 117.624 38.5227C117.563 38.4687 117.516 38.4102 117.52 38.3914C117.525 38.3727 117.602 38.2297 117.691 38.0727C117.83 37.8336 117.863 37.7891 117.902 37.7984C117.928 37.8055 118.01 37.8266 118.085 37.8477C118.427 37.9437 118.777 37.7164 118.854 37.3461C118.868 37.2734 118.891 37.2078 118.908 37.1984C118.938 37.1773 119.536 37.1727 119.588 37.1937Z" fill="#BBE1FA"/>
<path d="M118.976 38.1031C118.488 38.2625 118.209 38.7805 118.355 39.2586C118.479 39.6664 118.83 39.9313 119.25 39.9313C119.662 39.9313 120.019 39.6664 120.141 39.2703C120.248 38.9211 120.152 38.5719 119.88 38.3164C119.705 38.15 119.541 38.0867 119.285 38.0774C119.152 38.0727 119.037 38.0821 118.976 38.1031ZM119.545 38.5297C119.616 38.5719 119.686 38.6422 119.73 38.7125C119.791 38.8133 119.801 38.8508 119.801 38.9938C119.801 39.1953 119.737 39.3289 119.585 39.4438C119.442 39.5539 119.271 39.5867 119.107 39.5399C118.61 39.3922 118.54 38.736 118.997 38.5039C119.17 38.4172 119.381 38.4266 119.545 38.5297Z" fill="#BBE1FA"/>
<path d="M116.114 36.8821C116.062 36.936 116.062 36.943 116.062 37.8641C116.062 38.375 116.07 38.811 116.077 38.8321C116.1 38.8907 116.222 38.9422 116.299 38.9258C116.438 38.8953 116.438 38.9 116.438 37.8805C116.438 36.9758 116.435 36.95 116.388 36.8891C116.325 36.8071 116.187 36.8047 116.114 36.8821Z" fill="#BBE1FA"/>
<path d="M112.999 39.7414C112.61 40.1305 112.57 40.1773 112.57 40.25C112.57 40.3227 112.61 40.3695 112.999 40.7586C113.461 41.2227 113.491 41.2414 113.611 41.1359C113.644 41.1055 113.677 41.0516 113.686 41.0164C113.7 40.9555 113.672 40.9227 113.353 40.5992L113.006 40.25L113.337 39.9148C113.52 39.732 113.67 39.5656 113.672 39.5469C113.684 39.4672 113.67 39.425 113.613 39.3711C113.498 39.2539 113.466 39.275 112.999 39.7414Z" fill="#BBE1FA"/>
<path d="M114.656 39.3406C114.605 39.3664 114.563 39.4742 114.335 40.1446C114.192 40.5711 114.073 40.9508 114.073 40.9883C114.07 41.0797 114.122 41.1547 114.202 41.1735C114.277 41.1922 114.389 41.1524 114.41 41.0985C114.464 40.9696 114.938 39.5281 114.938 39.4953C114.938 39.4391 114.844 39.3406 114.773 39.3242C114.741 39.3172 114.689 39.3242 114.656 39.3406Z" fill="#BBE1FA"/>
<path d="M115.38 39.3804C115.256 39.5047 115.275 39.5398 115.645 39.9148L115.978 40.25L115.645 40.5851C115.275 40.9601 115.256 40.9953 115.38 41.1195C115.509 41.2484 115.533 41.2344 116.009 40.7586C116.398 40.3695 116.438 40.3226 116.438 40.25C116.438 40.1773 116.398 40.1304 116.009 39.7414C115.533 39.2656 115.509 39.2515 115.38 39.3804Z" fill="#BBE1FA"/>
</g>
<defs>
<clipPath id="clip0_1550_123">
<rect width="200" height="100" fill="white"/>
</clipPath>
<clipPath id="clip1_1550_123">
<rect width="10" height="10" fill="white" transform="translate(78 33)"/>
</clipPath>
</defs>
</svg>
