<svg width="94" height="94" viewBox="0 0 94 94" fill="none" xmlns="http://www.w3.org/2000/svg">
<g filter="url(#filter0_d)">
<rect x="7" y="7" width="80" height="80" rx="10" fill="#BBE1FA"/>
</g>
<path d="M16.99 68.76H14.37L13.95 70H12.16L14.7 62.98H16.68L19.22 70H17.41L16.99 68.76ZM16.55 67.44L15.68 64.87L14.82 67.44H16.55ZM19.653 67.21C19.653 66.63 19.7697 66.1233 20.003 65.69C20.243 65.2567 20.573 64.9233 20.993 64.69C21.4197 64.4567 21.9064 64.34 22.453 64.34C23.153 64.34 23.7364 64.5233 24.203 64.89C24.6764 65.2567 24.9864 65.7733 25.133 66.44H23.313C23.1597 66.0133 22.863 65.8 22.423 65.8C22.1097 65.8 21.8597 65.9233 21.673 66.17C21.4864 66.41 21.393 66.7567 21.393 67.21C21.393 67.6633 21.4864 68.0133 21.673 68.26C21.8597 68.5 22.1097 68.62 22.423 68.62C22.863 68.62 23.1597 68.4067 23.313 67.98H25.133C24.9864 68.6333 24.6764 69.1467 24.203 69.52C23.7297 69.8933 23.1464 70.08 22.453 70.08C21.9064 70.08 21.4197 69.9633 20.993 69.73C20.573 69.4967 20.243 69.1633 20.003 68.73C19.7697 68.2967 19.653 67.79 19.653 67.21ZM29.4777 64.36C30.1177 64.36 30.6311 64.5733 31.0177 65C31.4044 65.42 31.5977 66 31.5977 66.74V70H29.8977V66.97C29.8977 66.5967 29.8011 66.3067 29.6077 66.1C29.4144 65.8933 29.1544 65.79 28.8277 65.79C28.5011 65.79 28.2411 65.8933 28.0477 66.1C27.8544 66.3067 27.7577 66.5967 27.7577 66.97V70H26.0477V62.6H27.7577V65.17C27.9311 64.9233 28.1677 64.7267 28.4677 64.58C28.7677 64.4333 29.1044 64.36 29.4777 64.36ZM33.646 63.84C33.346 63.84 33.0993 63.7533 32.906 63.58C32.7193 63.4 32.626 63.18 32.626 62.92C32.626 62.6533 32.7193 62.4333 32.906 62.26C33.0993 62.08 33.346 61.99 33.646 61.99C33.9393 61.99 34.1793 62.08 34.366 62.26C34.5593 62.4333 34.656 62.6533 34.656 62.92C34.656 63.18 34.5593 63.4 34.366 63.58C34.1793 63.7533 33.9393 63.84 33.646 63.84ZM34.496 64.42V70H32.786V64.42H34.496ZM40.9952 67.12C40.9952 67.28 40.9852 67.4467 40.9652 67.62H37.0952C37.1219 67.9667 37.2319 68.2333 37.4252 68.42C37.6252 68.6 37.8686 68.69 38.1552 68.69C38.5819 68.69 38.8786 68.51 39.0452 68.15H40.8652C40.7719 68.5167 40.6019 68.8467 40.3552 69.14C40.1152 69.4333 39.8119 69.6633 39.4452 69.83C39.0786 69.9967 38.6686 70.08 38.2152 70.08C37.6686 70.08 37.1819 69.9633 36.7552 69.73C36.3286 69.4967 35.9952 69.1633 35.7552 68.73C35.5152 68.2967 35.3952 67.79 35.3952 67.21C35.3952 66.63 35.5119 66.1233 35.7452 65.69C35.9852 65.2567 36.3186 64.9233 36.7452 64.69C37.1719 64.4567 37.6619 64.34 38.2152 64.34C38.7552 64.34 39.2352 64.4533 39.6552 64.68C40.0752 64.9067 40.4019 65.23 40.6352 65.65C40.8752 66.07 40.9952 66.56 40.9952 67.12ZM39.2452 66.67C39.2452 66.3767 39.1452 66.1433 38.9452 65.97C38.7452 65.7967 38.4952 65.71 38.1952 65.71C37.9086 65.71 37.6652 65.7933 37.4652 65.96C37.2719 66.1267 37.1519 66.3633 37.1052 66.67H39.2452ZM44.4073 68.4L45.6173 64.42H47.4373L45.4573 70H43.3473L41.3673 64.42H43.1973L44.4073 68.4ZM53.4171 67.12C53.4171 67.28 53.4071 67.4467 53.3871 67.62H49.5171C49.5438 67.9667 49.6538 68.2333 49.8471 68.42C50.0471 68.6 50.2904 68.69 50.5771 68.69C51.0038 68.69 51.3004 68.51 51.4671 68.15H53.2871C53.1938 68.5167 53.0238 68.8467 52.7771 69.14C52.5371 69.4333 52.2338 69.6633 51.8671 69.83C51.5004 69.9967 51.0904 70.08 50.6371 70.08C50.0904 70.08 49.6038 69.9633 49.1771 69.73C48.7504 69.4967 48.4171 69.1633 48.1771 68.73C47.9371 68.2967 47.8171 67.79 47.8171 67.21C47.8171 66.63 47.9338 66.1233 48.1671 65.69C48.4071 65.2567 48.7404 64.9233 49.1671 64.69C49.5938 64.4567 50.0838 64.34 50.6371 64.34C51.1771 64.34 51.6571 64.4533 52.0771 64.68C52.4971 64.9067 52.8238 65.23 53.0571 65.65C53.2971 66.07 53.4171 66.56 53.4171 67.12ZM51.6671 66.67C51.6671 66.3767 51.5671 66.1433 51.3671 65.97C51.1671 65.7967 50.9171 65.71 50.6171 65.71C50.3304 65.71 50.0871 65.7933 49.8871 65.96C49.6938 66.1267 49.5738 66.3633 49.5271 66.67H51.6671ZM61.4392 64.36C62.1326 64.36 62.6826 64.57 63.0892 64.99C63.5026 65.41 63.7092 65.9933 63.7092 66.74V70H62.0092V66.97C62.0092 66.61 61.9126 66.3333 61.7192 66.14C61.5326 65.94 61.2726 65.84 60.9392 65.84C60.6059 65.84 60.3426 65.94 60.1492 66.14C59.9626 66.3333 59.8692 66.61 59.8692 66.97V70H58.1692V66.97C58.1692 66.61 58.0726 66.3333 57.8792 66.14C57.6926 65.94 57.4326 65.84 57.0992 65.84C56.7659 65.84 56.5026 65.94 56.3092 66.14C56.1226 66.3333 56.0292 66.61 56.0292 66.97V70H54.3192V64.42H56.0292V65.12C56.2026 64.8867 56.4292 64.7033 56.7092 64.57C56.9892 64.43 57.3059 64.36 57.6592 64.36C58.0792 64.36 58.4526 64.45 58.7792 64.63C59.1126 64.81 59.3726 65.0667 59.5592 65.4C59.7526 65.0933 60.0159 64.8433 60.3492 64.65C60.6826 64.4567 61.0459 64.36 61.4392 64.36ZM70.1652 67.12C70.1652 67.28 70.1552 67.4467 70.1352 67.62H66.2652C66.2918 67.9667 66.4018 68.2333 66.5952 68.42C66.7952 68.6 67.0385 68.69 67.3252 68.69C67.7518 68.69 68.0485 68.51 68.2152 68.15H70.0352C69.9418 68.5167 69.7718 68.8467 69.5252 69.14C69.2852 69.4333 68.9818 69.6633 68.6152 69.83C68.2485 69.9967 67.8385 70.08 67.3852 70.08C66.8385 70.08 66.3518 69.9633 65.9252 69.73C65.4985 69.4967 65.1652 69.1633 64.9252 68.73C64.6852 68.2967 64.5652 67.79 64.5652 67.21C64.5652 66.63 64.6818 66.1233 64.9152 65.69C65.1552 65.2567 65.4885 64.9233 65.9152 64.69C66.3418 64.4567 66.8318 64.34 67.3852 64.34C67.9252 64.34 68.4052 64.4533 68.8252 64.68C69.2452 64.9067 69.5718 65.23 69.8052 65.65C70.0452 66.07 70.1652 66.56 70.1652 67.12ZM68.4152 66.67C68.4152 66.3767 68.3152 66.1433 68.1152 65.97C67.9152 65.7967 67.6652 65.71 67.3652 65.71C67.0785 65.71 66.8352 65.7933 66.6352 65.96C66.4418 66.1267 66.3218 66.3633 66.2752 66.67H68.4152ZM74.4673 64.36C75.1206 64.36 75.6406 64.5733 76.0273 65C76.4206 65.42 76.6173 66 76.6173 66.74V70H74.9173V66.97C74.9173 66.5967 74.8206 66.3067 74.6273 66.1C74.4339 65.8933 74.1739 65.79 73.8473 65.79C73.5206 65.79 73.2606 65.8933 73.0673 66.1C72.8739 66.3067 72.7773 66.5967 72.7773 66.97V70H71.0673V64.42H72.7773V65.16C72.9506 64.9133 73.1839 64.72 73.4773 64.58C73.7706 64.4333 74.1006 64.36 74.4673 64.36ZM80.9155 68.55V70H80.0455C79.4255 70 78.9422 69.85 78.5955 69.55C78.2489 69.2433 78.0755 68.7467 78.0755 68.06V65.84H77.3955V64.42H78.0755V63.06H79.7855V64.42H80.9055V65.84H79.7855V68.08C79.7855 68.2467 79.8255 68.3667 79.9055 68.44C79.9855 68.5133 80.1189 68.55 80.3055 68.55H80.9155Z" fill="#1B262C"/>
<g clip-path="url(#clip0)">
<rect width="52" height="45" transform="translate(18 14)" fill="#BBE1FA"/>
<path d="M62.1545 17.2827C62.6406 17.3602 63.0021 17.7748 62.983 18.2667C62.6149 27.7124 56.344 43.9867 50.2943 50.4958C48.4645 52.4646 45.4918 52.5694 43.5715 50.6889C37.0471 44.2997 31.3208 27.7327 31.013 18.2022C30.998 17.7387 31.3219 17.3402 31.7737 17.2358C37.1188 16 38.5568 16 47 16C55.5488 16 54.1083 16 62.1545 17.2827Z" fill="#1B262C"/>
<path d="M43 37L46.5 38.8824L50 37V53H43V37Z" fill="#1B262C"/>
<path d="M34 27L31.2087 25.6043C28.4077 24.2039 25.4792 27.2625 27 30V30L28.8874 33.303C30.2786 35.7375 32.1912 37.8339 34.4883 39.4418L41 44" stroke="#1B262C" stroke-width="3"/>
<path d="M60 27L62.7913 25.6043C65.5923 24.2039 68.5208 27.2625 67 30V30L65.1126 33.303C63.7214 35.7375 61.8088 37.8339 59.5117 39.4418L53 44" stroke="#1B262C" stroke-width="3"/>
<path d="M37 53C37 52.4477 37.4477 52 38 52H56C56.5523 52 57 52.4477 57 53V56H37V53Z" fill="#1B262C"/>
</g>
<defs>
<filter id="filter0_d" x="0" y="0" width="94" height="94" filterUnits="userSpaceOnUse" color-interpolation-filters="sRGB">
<feFlood flood-opacity="0" result="BackgroundImageFix"/>
<feColorMatrix in="SourceAlpha" type="matrix" values="0 0 0 0 0 0 0 0 0 0 0 0 0 0 0 0 0 0 127 0" result="hardAlpha"/>
<feMorphology radius="3" operator="dilate" in="SourceAlpha" result="effect1_dropShadow"/>
<feOffset/>
<feGaussianBlur stdDeviation="2"/>
<feComposite in2="hardAlpha" operator="out"/>
<feColorMatrix type="matrix" values="0 0 0 0 1 0 0 0 0 1 0 0 0 0 1 0 0 0 0.25 0"/>
<feBlend mode="normal" in2="BackgroundImageFix" result="effect1_dropShadow"/>
<feBlend mode="normal" in="SourceGraphic" in2="effect1_dropShadow" result="shape"/>
</filter>
<clipPath id="clip0">
<rect width="52" height="45" fill="white" transform="translate(18 14)"/>
</clipPath>
</defs>
</svg>
