<svg width="94" height="94" viewBox="0 0 94 94" fill="none" xmlns="http://www.w3.org/2000/svg">
<g filter="url(#filter0_d)">
<rect x="7" y="7" width="80" height="80" rx="10" fill="#BBE1FA"/>
</g>
<path d="M22.424 69.098C21.7053 69.098 21.0613 68.9813 20.492 68.748C19.9227 68.5147 19.4653 68.1693 19.12 67.712C18.784 67.2547 18.6067 66.704 18.588 66.06H21.136C21.1733 66.424 21.2993 66.704 21.514 66.9C21.7287 67.0867 22.0087 67.18 22.354 67.18C22.7087 67.18 22.9887 67.1007 23.194 66.942C23.3993 66.774 23.502 66.5453 23.502 66.256C23.502 66.0133 23.418 65.8127 23.25 65.654C23.0913 65.4953 22.8907 65.3647 22.648 65.262C22.4147 65.1593 22.0787 65.0427 21.64 64.912C21.0053 64.716 20.4873 64.52 20.086 64.324C19.6847 64.128 19.3393 63.8387 19.05 63.456C18.7607 63.0733 18.616 62.574 18.616 61.958C18.616 61.0433 18.9473 60.3293 19.61 59.816C20.2727 59.2933 21.136 59.032 22.2 59.032C23.2827 59.032 24.1553 59.2933 24.818 59.816C25.4807 60.3293 25.8353 61.048 25.882 61.972H23.292C23.2733 61.6547 23.1567 61.4073 22.942 61.23C22.7273 61.0433 22.452 60.95 22.116 60.95C21.8267 60.95 21.5933 61.0293 21.416 61.188C21.2387 61.3373 21.15 61.5567 21.15 61.846C21.15 62.1633 21.2993 62.4107 21.598 62.588C21.8967 62.7653 22.3633 62.9567 22.998 63.162C23.6327 63.3767 24.146 63.582 24.538 63.778C24.9393 63.974 25.2847 64.2587 25.574 64.632C25.8633 65.0053 26.008 65.486 26.008 66.074C26.008 66.634 25.8633 67.1427 25.574 67.6C25.294 68.0573 24.8833 68.4213 24.342 68.692C23.8007 68.9627 23.1613 69.098 22.424 69.098ZM35.1953 61.188V69H32.8013V67.936C32.5586 68.2813 32.2273 68.5613 31.8073 68.776C31.3966 68.9813 30.9393 69.084 30.4353 69.084C29.8379 69.084 29.3106 68.9533 28.8533 68.692C28.3959 68.4213 28.0413 68.034 27.7893 67.53C27.5373 67.026 27.4113 66.4333 27.4113 65.752V61.188H29.7913V65.43C29.7913 65.9527 29.9266 66.3587 30.1973 66.648C30.4679 66.9373 30.8319 67.082 31.2893 67.082C31.7559 67.082 32.1246 66.9373 32.3953 66.648C32.6659 66.3587 32.8013 65.9527 32.8013 65.43V61.188H35.1953ZM39.3089 62.294C39.5422 61.93 39.8642 61.636 40.2749 61.412C40.6855 61.188 41.1662 61.076 41.7169 61.076C42.3609 61.076 42.9442 61.2393 43.4669 61.566C43.9895 61.8927 44.4002 62.3593 44.6989 62.966C45.0069 63.5727 45.1609 64.2773 45.1609 65.08C45.1609 65.8827 45.0069 66.592 44.6989 67.208C44.4002 67.8147 43.9895 68.286 43.4669 68.622C42.9442 68.9487 42.3609 69.112 41.7169 69.112C41.1755 69.112 40.6949 69 40.2749 68.776C39.8642 68.552 39.5422 68.2627 39.3089 67.908V72.724H36.9149V61.188H39.3089V62.294ZM42.7249 65.08C42.7249 64.4827 42.5569 64.016 42.2209 63.68C41.8942 63.3347 41.4882 63.162 41.0029 63.162C40.5269 63.162 40.1209 63.3347 39.7849 63.68C39.4582 64.0253 39.2949 64.4967 39.2949 65.094C39.2949 65.6913 39.4582 66.1627 39.7849 66.508C40.1209 66.8533 40.5269 67.026 41.0029 67.026C41.4789 67.026 41.8849 66.8533 42.2209 66.508C42.5569 66.1533 42.7249 65.6773 42.7249 65.08ZM48.8108 62.294C49.0442 61.93 49.3662 61.636 49.7768 61.412C50.1875 61.188 50.6682 61.076 51.2188 61.076C51.8628 61.076 52.4462 61.2393 52.9688 61.566C53.4915 61.8927 53.9022 62.3593 54.2008 62.966C54.5088 63.5727 54.6628 64.2773 54.6628 65.08C54.6628 65.8827 54.5088 66.592 54.2008 67.208C53.9022 67.8147 53.4915 68.286 52.9688 68.622C52.4462 68.9487 51.8628 69.112 51.2188 69.112C50.6775 69.112 50.1968 69 49.7768 68.776C49.3662 68.552 49.0442 68.2627 48.8108 67.908V72.724H46.4168V61.188H48.8108V62.294ZM52.2268 65.08C52.2268 64.4827 52.0588 64.016 51.7228 63.68C51.3962 63.3347 50.9902 63.162 50.5048 63.162C50.0288 63.162 49.6228 63.3347 49.2868 63.68C48.9602 64.0253 48.7968 64.4967 48.7968 65.094C48.7968 65.6913 48.9602 66.1627 49.2868 66.508C49.6228 66.8533 50.0288 67.026 50.5048 67.026C50.9808 67.026 51.3868 66.8533 51.7228 66.508C52.0588 66.1533 52.2268 65.6773 52.2268 65.08ZM59.4748 69.112C58.7094 69.112 58.0188 68.9487 57.4028 68.622C56.7961 68.2953 56.3154 67.8287 55.9608 67.222C55.6154 66.6153 55.4428 65.906 55.4428 65.094C55.4428 64.2913 55.6201 63.5867 55.9748 62.98C56.3294 62.364 56.8148 61.8927 57.4308 61.566C58.0468 61.2393 58.7374 61.076 59.5028 61.076C60.2681 61.076 60.9588 61.2393 61.5748 61.566C62.1908 61.8927 62.6761 62.364 63.0308 62.98C63.3854 63.5867 63.5628 64.2913 63.5628 65.094C63.5628 65.8967 63.3808 66.606 63.0168 67.222C62.6621 67.8287 62.1721 68.2953 61.5468 68.622C60.9308 68.9487 60.2401 69.112 59.4748 69.112ZM59.4748 67.04C59.9321 67.04 60.3194 66.872 60.6368 66.536C60.9634 66.2 61.1268 65.7193 61.1268 65.094C61.1268 64.4687 60.9681 63.988 60.6508 63.652C60.3428 63.316 59.9601 63.148 59.5028 63.148C59.0361 63.148 58.6488 63.316 58.3408 63.652C58.0328 63.9787 57.8788 64.4593 57.8788 65.094C57.8788 65.7193 58.0281 66.2 58.3268 66.536C58.6348 66.872 59.0174 67.04 59.4748 67.04ZM67.2268 62.49C67.5068 62.0607 67.8568 61.7247 68.2768 61.482C68.6968 61.23 69.1635 61.104 69.6768 61.104V63.638H69.0188C68.4215 63.638 67.9735 63.7687 67.6748 64.03C67.3762 64.282 67.2268 64.73 67.2268 65.374V69H64.8328V61.188H67.2268V62.49ZM75.1751 66.97V69H73.9571C73.0891 69 72.4125 68.79 71.9271 68.37C71.4418 67.9407 71.1991 67.2453 71.1991 66.284V63.176H70.2471V61.188H71.1991V59.284H73.5931V61.188H75.1611V63.176H73.5931V66.312C73.5931 66.5453 73.6491 66.7133 73.7611 66.816C73.8731 66.9187 74.0598 66.97 74.3211 66.97H75.1751Z" fill="#1B262C"/>
<path d="M46.5 55.1479L43.2979 52.2329C31.925 41.92 24.4167 35.1183 24.4167 26.7708C24.4167 19.9692 29.7608 14.625 36.5625 14.625C40.405 14.625 44.0929 16.4138 46.5 19.2404C48.9071 16.4138 52.595 14.625 56.4375 14.625C63.2392 14.625 68.5833 19.9692 68.5833 26.7708C68.5833 35.1183 61.075 41.92 49.7021 52.255L46.5 55.1479Z" fill="black"/>
<defs>
<filter id="filter0_d" x="0" y="0" width="94" height="94" filterUnits="userSpaceOnUse" color-interpolation-filters="sRGB">
<feFlood flood-opacity="0" result="BackgroundImageFix"/>
<feColorMatrix in="SourceAlpha" type="matrix" values="0 0 0 0 0 0 0 0 0 0 0 0 0 0 0 0 0 0 127 0" result="hardAlpha"/>
<feMorphology radius="3" operator="dilate" in="SourceAlpha" result="effect1_dropShadow"/>
<feOffset/>
<feGaussianBlur stdDeviation="2"/>
<feComposite in2="hardAlpha" operator="out"/>
<feColorMatrix type="matrix" values="0 0 0 0 1 0 0 0 0 1 0 0 0 0 1 0 0 0 0.25 0"/>
<feBlend mode="normal" in2="BackgroundImageFix" result="effect1_dropShadow"/>
<feBlend mode="normal" in="SourceGraphic" in2="effect1_dropShadow" result="shape"/>
</filter>
</defs>
</svg>
