<svg width="94" height="94" viewBox="0 0 94 94" fill="none" xmlns="http://www.w3.org/2000/svg">
<g filter="url(#filter0_d)">
<rect x="7" y="7" width="80" height="80" rx="10" fill="#BBE1FA"/>
</g>
<path d="M33.986 68.264H30.318L29.73 70H27.224L30.78 60.172H33.552L37.108 70H34.574L33.986 68.264ZM33.37 66.416L32.152 62.818L30.948 66.416H33.37ZM41.3683 70.112C40.6869 70.112 40.0803 69.9953 39.5483 69.762C39.0163 69.5287 38.5963 69.2113 38.2883 68.81C37.9803 68.3993 37.8076 67.942 37.7703 67.438H40.1363C40.1643 67.7087 40.2903 67.928 40.5143 68.096C40.7383 68.264 41.0136 68.348 41.3403 68.348C41.6389 68.348 41.8676 68.292 42.0263 68.18C42.1943 68.0587 42.2783 67.9047 42.2783 67.718C42.2783 67.494 42.1616 67.3307 41.9283 67.228C41.6949 67.116 41.3169 66.9947 40.7943 66.864C40.2343 66.7333 39.7676 66.598 39.3943 66.458C39.0209 66.3087 38.6989 66.08 38.4283 65.772C38.1576 65.4547 38.0223 65.03 38.0223 64.498C38.0223 64.05 38.1436 63.644 38.3863 63.28C38.6383 62.9067 39.0023 62.6127 39.4783 62.398C39.9636 62.1833 40.5376 62.076 41.2003 62.076C42.1803 62.076 42.9503 62.3187 43.5103 62.804C44.0796 63.2893 44.4063 63.9333 44.4903 64.736H42.2783C42.2409 64.4653 42.1196 64.2507 41.9143 64.092C41.7183 63.9333 41.4569 63.854 41.1303 63.854C40.8503 63.854 40.6356 63.91 40.4863 64.022C40.3369 64.1247 40.2623 64.2693 40.2623 64.456C40.2623 64.68 40.3789 64.848 40.6123 64.96C40.8549 65.072 41.2283 65.184 41.7323 65.296C42.3109 65.4453 42.7823 65.5947 43.1463 65.744C43.5103 65.884 43.8276 66.1173 44.0983 66.444C44.3783 66.7613 44.5229 67.1907 44.5323 67.732C44.5323 68.1893 44.4016 68.6 44.1403 68.964C43.8883 69.3187 43.5196 69.5987 43.0343 69.804C42.5583 70.0093 42.0029 70.112 41.3683 70.112ZM49.1749 70.112C48.4936 70.112 47.8869 69.9953 47.3549 69.762C46.8229 69.5287 46.4029 69.2113 46.0949 68.81C45.7869 68.3993 45.6142 67.942 45.5769 67.438H47.9429C47.9709 67.7087 48.0969 67.928 48.3209 68.096C48.5449 68.264 48.8202 68.348 49.1469 68.348C49.4456 68.348 49.6742 68.292 49.8329 68.18C50.0009 68.0587 50.0849 67.9047 50.0849 67.718C50.0849 67.494 49.9682 67.3307 49.7349 67.228C49.5016 67.116 49.1236 66.9947 48.6009 66.864C48.0409 66.7333 47.5742 66.598 47.2009 66.458C46.8276 66.3087 46.5056 66.08 46.2349 65.772C45.9642 65.4547 45.8289 65.03 45.8289 64.498C45.8289 64.05 45.9502 63.644 46.1929 63.28C46.4449 62.9067 46.8089 62.6127 47.2849 62.398C47.7702 62.1833 48.3442 62.076 49.0069 62.076C49.9869 62.076 50.7569 62.3187 51.3169 62.804C51.8862 63.2893 52.2129 63.9333 52.2969 64.736H50.0849C50.0476 64.4653 49.9262 64.2507 49.7209 64.092C49.5249 63.9333 49.2636 63.854 48.9369 63.854C48.6569 63.854 48.4422 63.91 48.2929 64.022C48.1436 64.1247 48.0689 64.2693 48.0689 64.456C48.0689 64.68 48.1856 64.848 48.4189 64.96C48.6616 65.072 49.0349 65.184 49.5389 65.296C50.1176 65.4453 50.5889 65.5947 50.9529 65.744C51.3169 65.884 51.6342 66.1173 51.9049 66.444C52.1849 66.7613 52.3296 67.1907 52.3389 67.732C52.3389 68.1893 52.2082 68.6 51.9469 68.964C51.6949 69.3187 51.3262 69.5987 50.8409 69.804C50.3649 70.0093 49.8096 70.112 49.1749 70.112ZM61.1675 65.968C61.1675 66.192 61.1535 66.4253 61.1255 66.668H55.7075C55.7449 67.1533 55.8989 67.5267 56.1695 67.788C56.4495 68.04 56.7902 68.166 57.1915 68.166C57.7889 68.166 58.2042 67.914 58.4375 67.41H60.9855C60.8549 67.9233 60.6169 68.3853 60.2715 68.796C59.9355 69.2067 59.5109 69.5287 58.9975 69.762C58.4842 69.9953 57.9102 70.112 57.2755 70.112C56.5102 70.112 55.8289 69.9487 55.2315 69.622C54.6342 69.2953 54.1675 68.8287 53.8315 68.222C53.4955 67.6153 53.3275 66.906 53.3275 66.094C53.3275 65.282 53.4909 64.5727 53.8175 63.966C54.1535 63.3593 54.6202 62.8927 55.2175 62.566C55.8149 62.2393 56.5009 62.076 57.2755 62.076C58.0315 62.076 58.7035 62.2347 59.2915 62.552C59.8795 62.8693 60.3369 63.322 60.6635 63.91C60.9995 64.498 61.1675 65.184 61.1675 65.968ZM58.7175 65.338C58.7175 64.9273 58.5775 64.6007 58.2975 64.358C58.0175 64.1153 57.6675 63.994 57.2475 63.994C56.8462 63.994 56.5055 64.1107 56.2255 64.344C55.9549 64.5773 55.7869 64.9087 55.7215 65.338H58.7175ZM66.7845 67.97V70H65.5665C64.6985 70 64.0218 69.79 63.5365 69.37C63.0512 68.9407 62.8085 68.2453 62.8085 67.284V64.176H61.8565V62.188H62.8085V60.284H65.2025V62.188H66.7705V64.176H65.2025V67.312C65.2025 67.5453 65.2585 67.7133 65.3705 67.816C65.4825 67.9187 65.6692 67.97 65.9305 67.97H66.7845Z" fill="#1B262C"/>
<g clip-path="url(#clip0)">
<rect width="44" height="44" transform="translate(25 14)" fill="#BBE1FA"/>
<path d="M29.3681 46.6805L47 40.9509L64.6319 46.6805L47 52.7055L29.3681 46.6805Z" fill="#BBE1FA" stroke="#1B262C" stroke-width="3"/>
<path d="M29.3681 41.1805L47 35.4509L64.6319 41.1805L47 47.2055L29.3681 41.1805Z" fill="#BBE1FA" stroke="#1B262C" stroke-width="3"/>
<path d="M29.3681 35.6805L47 29.9509L64.6319 35.6805L47 41.7055L29.3681 35.6805Z" fill="#BBE1FA" stroke="#1B262C" stroke-width="3"/>
<path d="M29.3681 30.1805L47 24.4509L64.6319 30.1805L47 36.2055L29.3681 30.1805Z" fill="#BBE1FA" stroke="#1B262C" stroke-width="3"/>
</g>
<defs>
<filter id="filter0_d" x="0" y="0" width="94" height="94" filterUnits="userSpaceOnUse" color-interpolation-filters="sRGB">
<feFlood flood-opacity="0" result="BackgroundImageFix"/>
<feColorMatrix in="SourceAlpha" type="matrix" values="0 0 0 0 0 0 0 0 0 0 0 0 0 0 0 0 0 0 127 0" result="hardAlpha"/>
<feMorphology radius="3" operator="dilate" in="SourceAlpha" result="effect1_dropShadow"/>
<feOffset/>
<feGaussianBlur stdDeviation="2"/>
<feComposite in2="hardAlpha" operator="out"/>
<feColorMatrix type="matrix" values="0 0 0 0 1 0 0 0 0 1 0 0 0 0 1 0 0 0 0.25 0"/>
<feBlend mode="normal" in2="BackgroundImageFix" result="effect1_dropShadow"/>
<feBlend mode="normal" in="SourceGraphic" in2="effect1_dropShadow" result="shape"/>
</filter>
<clipPath id="clip0">
<rect width="44" height="44" fill="white" transform="translate(25 14)"/>
</clipPath>
</defs>
</svg>
