<svg width="94" height="94" viewBox="0 0 94 94" fill="none" xmlns="http://www.w3.org/2000/svg">
<g filter="url(#filter0_d)">
<rect x="7" y="7" width="80" height="80" rx="10" fill="#BBE1FA"/>
</g>
<path d="M18.16 70.07C17.6467 70.07 17.1867 69.9867 16.78 69.82C16.3733 69.6533 16.0467 69.4067 15.8 69.08C15.56 68.7533 15.4333 68.36 15.42 67.9H17.24C17.2667 68.16 17.3567 68.36 17.51 68.5C17.6633 68.6333 17.8633 68.7 18.11 68.7C18.3633 68.7 18.5633 68.6433 18.71 68.53C18.8567 68.41 18.93 68.2467 18.93 68.04C18.93 67.8667 18.87 67.7233 18.75 67.61C18.6367 67.4967 18.4933 67.4033 18.32 67.33C18.1533 67.2567 17.9133 67.1733 17.6 67.08C17.1467 66.94 16.7767 66.8 16.49 66.66C16.2033 66.52 15.9567 66.3133 15.75 66.04C15.5433 65.7667 15.44 65.41 15.44 64.97C15.44 64.3167 15.6767 63.8067 16.15 63.44C16.6233 63.0667 17.24 62.88 18 62.88C18.7733 62.88 19.3967 63.0667 19.87 63.44C20.3433 63.8067 20.5967 64.32 20.63 64.98H18.78C18.7667 64.7533 18.6833 64.5767 18.53 64.45C18.3767 64.3167 18.18 64.25 17.94 64.25C17.7333 64.25 17.5667 64.3067 17.44 64.42C17.3133 64.5267 17.25 64.6833 17.25 64.89C17.25 65.1167 17.3567 65.2933 17.57 65.42C17.7833 65.5467 18.1167 65.6833 18.57 65.83C19.0233 65.9833 19.39 66.13 19.67 66.27C19.9567 66.41 20.2033 66.6133 20.41 66.88C20.6167 67.1467 20.72 67.49 20.72 67.91C20.72 68.31 20.6167 68.6733 20.41 69C20.21 69.3267 19.9167 69.5867 19.53 69.78C19.1433 69.9733 18.6867 70.07 18.16 70.07ZM24.3123 70.08C23.7657 70.08 23.2723 69.9633 22.8323 69.73C22.399 69.4967 22.0557 69.1633 21.8023 68.73C21.5557 68.2967 21.4323 67.79 21.4323 67.21C21.4323 66.6367 21.559 66.1333 21.8123 65.7C22.0657 65.26 22.4123 64.9233 22.8523 64.69C23.2923 64.4567 23.7857 64.34 24.3323 64.34C24.879 64.34 25.3723 64.4567 25.8123 64.69C26.2523 64.9233 26.599 65.26 26.8523 65.7C27.1057 66.1333 27.2323 66.6367 27.2323 67.21C27.2323 67.7833 27.1023 68.29 26.8423 68.73C26.589 69.1633 26.239 69.4967 25.7923 69.73C25.3523 69.9633 24.859 70.08 24.3123 70.08ZM24.3123 68.6C24.639 68.6 24.9157 68.48 25.1423 68.24C25.3757 68 25.4923 67.6567 25.4923 67.21C25.4923 66.7633 25.379 66.42 25.1523 66.18C24.9323 65.94 24.659 65.82 24.3323 65.82C23.999 65.82 23.7223 65.94 23.5023 66.18C23.2823 66.4133 23.1723 66.7567 23.1723 67.21C23.1723 67.6567 23.279 68 23.4923 68.24C23.7123 68.48 23.9857 68.6 24.3123 68.6ZM27.7995 67.21C27.7995 66.63 27.9162 66.1233 28.1495 65.69C28.3895 65.2567 28.7195 64.9233 29.1395 64.69C29.5662 64.4567 30.0529 64.34 30.5995 64.34C31.2995 64.34 31.8829 64.5233 32.3495 64.89C32.8229 65.2567 33.1329 65.7733 33.2795 66.44H31.4595C31.3062 66.0133 31.0095 65.8 30.5695 65.8C30.2562 65.8 30.0062 65.9233 29.8195 66.17C29.6329 66.41 29.5395 66.7567 29.5395 67.21C29.5395 67.6633 29.6329 68.0133 29.8195 68.26C30.0062 68.5 30.2562 68.62 30.5695 68.62C31.0095 68.62 31.3062 68.4067 31.4595 67.98H33.2795C33.1329 68.6333 32.8229 69.1467 32.3495 69.52C31.8762 69.8933 31.2929 70.08 30.5995 70.08C30.0529 70.08 29.5662 69.9633 29.1395 69.73C28.7195 69.4967 28.3895 69.1633 28.1495 68.73C27.9162 68.2967 27.7995 67.79 27.7995 67.21ZM35.0542 63.84C34.7542 63.84 34.5076 63.7533 34.3142 63.58C34.1276 63.4 34.0342 63.18 34.0342 62.92C34.0342 62.6533 34.1276 62.4333 34.3142 62.26C34.5076 62.08 34.7542 61.99 35.0542 61.99C35.3476 61.99 35.5876 62.08 35.7742 62.26C35.9676 62.4333 36.0642 62.6533 36.0642 62.92C36.0642 63.18 35.9676 63.4 35.7742 63.58C35.5876 63.7533 35.3476 63.84 35.0542 63.84ZM35.9042 64.42V70H34.1942V64.42H35.9042ZM36.8034 67.2C36.8034 66.6267 36.9101 66.1233 37.1234 65.69C37.3434 65.2567 37.6401 64.9233 38.0134 64.69C38.3868 64.4567 38.8034 64.34 39.2634 64.34C39.6568 64.34 40.0001 64.42 40.2934 64.58C40.5934 64.74 40.8234 64.95 40.9834 65.21V64.42H42.6934V70H40.9834V69.21C40.8168 69.47 40.5834 69.68 40.2834 69.84C39.9901 70 39.6468 70.08 39.2534 70.08C38.8001 70.08 38.3868 69.9633 38.0134 69.73C37.6401 69.49 37.3434 69.1533 37.1234 68.72C36.9101 68.28 36.8034 67.7733 36.8034 67.2ZM40.9834 67.21C40.9834 66.7833 40.8634 66.4467 40.6234 66.2C40.3901 65.9533 40.1034 65.83 39.7634 65.83C39.4234 65.83 39.1334 65.9533 38.8934 66.2C38.6601 66.44 38.5434 66.7733 38.5434 67.2C38.5434 67.6267 38.6601 67.9667 38.8934 68.22C39.1334 68.4667 39.4234 68.59 39.7634 68.59C40.1034 68.59 40.3901 68.4667 40.6234 68.22C40.8634 67.9733 40.9834 67.6367 40.9834 67.21ZM45.6405 62.6V70H43.9305V62.6H45.6405ZM56.9489 62.98V70H55.2389V65.79L53.6689 70H52.2889L50.7089 65.78V70H48.9989V62.98H51.0189L52.9889 67.84L54.9389 62.98H56.9489ZM63.4386 67.12C63.4386 67.28 63.4286 67.4467 63.4086 67.62H59.5386C59.5653 67.9667 59.6753 68.2333 59.8686 68.42C60.0686 68.6 60.3119 68.69 60.5986 68.69C61.0253 68.69 61.3219 68.51 61.4886 68.15H63.3086C63.2153 68.5167 63.0453 68.8467 62.7986 69.14C62.5586 69.4333 62.2553 69.6633 61.8886 69.83C61.5219 69.9967 61.1119 70.08 60.6586 70.08C60.1119 70.08 59.6253 69.9633 59.1986 69.73C58.7719 69.4967 58.4386 69.1633 58.1986 68.73C57.9586 68.2967 57.8386 67.79 57.8386 67.21C57.8386 66.63 57.9553 66.1233 58.1886 65.69C58.4286 65.2567 58.7619 64.9233 59.1886 64.69C59.6153 64.4567 60.1053 64.34 60.6586 64.34C61.1986 64.34 61.6786 64.4533 62.0986 64.68C62.5186 64.9067 62.8453 65.23 63.0786 65.65C63.3186 66.07 63.4386 66.56 63.4386 67.12ZM61.6886 66.67C61.6886 66.3767 61.5886 66.1433 61.3886 65.97C61.1886 65.7967 60.9386 65.71 60.6386 65.71C60.3519 65.71 60.1086 65.7933 59.9086 65.96C59.7153 66.1267 59.5953 66.3633 59.5486 66.67H61.6886ZM64.0007 67.2C64.0007 66.6267 64.1074 66.1233 64.3207 65.69C64.5407 65.2567 64.8374 64.9233 65.2107 64.69C65.584 64.4567 66.0007 64.34 66.4607 64.34C66.8274 64.34 67.1607 64.4167 67.4607 64.57C67.7674 64.7233 68.0074 64.93 68.1807 65.19V62.6H69.8907V70H68.1807V69.2C68.0207 69.4667 67.7907 69.68 67.4907 69.84C67.1974 70 66.854 70.08 66.4607 70.08C66.0007 70.08 65.584 69.9633 65.2107 69.73C64.8374 69.49 64.5407 69.1533 64.3207 68.72C64.1074 68.28 64.0007 67.7733 64.0007 67.2ZM68.1807 67.21C68.1807 66.7833 68.0607 66.4467 67.8207 66.2C67.5874 65.9533 67.3007 65.83 66.9607 65.83C66.6207 65.83 66.3307 65.9533 66.0907 66.2C65.8574 66.44 65.7407 66.7733 65.7407 67.2C65.7407 67.6267 65.8574 67.9667 66.0907 68.22C66.3307 68.4667 66.6207 68.59 66.9607 68.59C67.3007 68.59 67.5874 68.4667 67.8207 68.22C68.0607 67.9733 68.1807 67.6367 68.1807 67.21ZM71.9878 63.84C71.6878 63.84 71.4411 63.7533 71.2478 63.58C71.0611 63.4 70.9678 63.18 70.9678 62.92C70.9678 62.6533 71.0611 62.4333 71.2478 62.26C71.4411 62.08 71.6878 61.99 71.9878 61.99C72.2811 61.99 72.5211 62.08 72.7078 62.26C72.9011 62.4333 72.9978 62.6533 72.9978 62.92C72.9978 63.18 72.9011 63.4 72.7078 63.58C72.5211 63.7533 72.2811 63.84 71.9878 63.84ZM72.8378 64.42V70H71.1278V64.42H72.8378ZM73.737 67.2C73.737 66.6267 73.8437 66.1233 74.057 65.69C74.277 65.2567 74.5737 64.9233 74.947 64.69C75.3204 64.4567 75.737 64.34 76.197 64.34C76.5904 64.34 76.9337 64.42 77.227 64.58C77.527 64.74 77.757 64.95 77.917 65.21V64.42H79.627V70H77.917V69.21C77.7504 69.47 77.517 69.68 77.217 69.84C76.9237 70 76.5804 70.08 76.187 70.08C75.7337 70.08 75.3204 69.9633 74.947 69.73C74.5737 69.49 74.277 69.1533 74.057 68.72C73.8437 68.28 73.737 67.7733 73.737 67.2ZM77.917 67.21C77.917 66.7833 77.797 66.4467 77.557 66.2C77.3237 65.9533 77.037 65.83 76.697 65.83C76.357 65.83 76.067 65.9533 75.827 66.2C75.5937 66.44 75.477 66.7733 75.477 67.2C75.477 67.6267 75.5937 67.9667 75.827 68.22C76.067 68.4667 76.357 68.59 76.697 68.59C77.037 68.59 77.3237 68.4667 77.557 68.22C77.797 67.9733 77.917 67.6367 77.917 67.21Z" fill="#1B262C"/>
<rect width="44" height="41" transform="translate(25 16)" fill="#BBE1FA"/>
<ellipse cx="34" cy="37.5" rx="6" ry="5.5" fill="#1B262C"/>
<circle cx="55" cy="49" r="6" fill="#1B262C"/>
<circle cx="51" cy="24" r="6" fill="#1B262C"/>
<line x1="32.6637" y1="37.7373" x2="51.7724" y2="24.1354" stroke="#1B262C" stroke-width="4"/>
<line x1="32.8076" y1="37.5798" x2="53.6021" y2="48.4307" stroke="#1B262C" stroke-width="4"/>
<defs>
<filter id="filter0_d" x="0" y="0" width="94" height="94" filterUnits="userSpaceOnUse" color-interpolation-filters="sRGB">
<feFlood flood-opacity="0" result="BackgroundImageFix"/>
<feColorMatrix in="SourceAlpha" type="matrix" values="0 0 0 0 0 0 0 0 0 0 0 0 0 0 0 0 0 0 127 0" result="hardAlpha"/>
<feMorphology radius="3" operator="dilate" in="SourceAlpha" result="effect1_dropShadow"/>
<feOffset/>
<feGaussianBlur stdDeviation="2"/>
<feComposite in2="hardAlpha" operator="out"/>
<feColorMatrix type="matrix" values="0 0 0 0 1 0 0 0 0 1 0 0 0 0 1 0 0 0 0.25 0"/>
<feBlend mode="normal" in2="BackgroundImageFix" result="effect1_dropShadow"/>
<feBlend mode="normal" in="SourceGraphic" in2="effect1_dropShadow" result="shape"/>
</filter>
</defs>
</svg>
