<svg width="94" height="94" viewBox="0 0 94 94" fill="none" xmlns="http://www.w3.org/2000/svg">
<g filter="url(#filter0_d)">
<rect x="7" y="7" width="80" height="80" rx="10" fill="#BBE1FA"/>
</g>
<path d="M36.5969 70.098C35.8782 70.098 35.2342 69.9813 34.6649 69.748C34.0955 69.5147 33.6382 69.1693 33.2929 68.712C32.9569 68.2547 32.7795 67.704 32.7609 67.06H35.3089C35.3462 67.424 35.4722 67.704 35.6869 67.9C35.9015 68.0867 36.1815 68.18 36.5269 68.18C36.8815 68.18 37.1615 68.1007 37.3669 67.942C37.5722 67.774 37.6749 67.5453 37.6749 67.256C37.6749 67.0133 37.5909 66.8127 37.4229 66.654C37.2642 66.4953 37.0635 66.3647 36.8209 66.262C36.5875 66.1593 36.2515 66.0427 35.8129 65.912C35.1782 65.716 34.6602 65.52 34.2589 65.324C33.8575 65.128 33.5122 64.8387 33.2229 64.456C32.9335 64.0733 32.7889 63.574 32.7889 62.958C32.7889 62.0433 33.1202 61.3293 33.7829 60.816C34.4455 60.2933 35.3089 60.032 36.3729 60.032C37.4555 60.032 38.3282 60.2933 38.9909 60.816C39.6535 61.3293 40.0082 62.048 40.0549 62.972H37.4649C37.4462 62.6547 37.3295 62.4073 37.1149 62.23C36.9002 62.0433 36.6249 61.95 36.2889 61.95C35.9995 61.95 35.7662 62.0293 35.5889 62.188C35.4115 62.3373 35.3229 62.5567 35.3229 62.846C35.3229 63.1633 35.4722 63.4107 35.7709 63.588C36.0695 63.7653 36.5362 63.9567 37.1709 64.162C37.8055 64.3767 38.3189 64.582 38.7109 64.778C39.1122 64.974 39.4575 65.2587 39.7469 65.632C40.0362 66.0053 40.1809 66.486 40.1809 67.074C40.1809 67.634 40.0362 68.1427 39.7469 68.6C39.4669 69.0573 39.0562 69.4213 38.5149 69.692C37.9735 69.9627 37.3342 70.098 36.5969 70.098ZM46.4281 70L44.0481 66.724V70H41.6541V59.64H44.0481V65.366L46.4141 62.188H49.3681L46.1201 66.108L49.3961 70H46.4281ZM51.5124 61.376C51.0924 61.376 50.7471 61.2547 50.4764 61.012C50.2151 60.76 50.0844 60.452 50.0844 60.088C50.0844 59.7147 50.2151 59.4067 50.4764 59.164C50.7471 58.912 51.0924 58.786 51.5124 58.786C51.9231 58.786 52.2591 58.912 52.5204 59.164C52.7911 59.4067 52.9264 59.7147 52.9264 60.088C52.9264 60.452 52.7911 60.76 52.5204 61.012C52.2591 61.2547 51.9231 61.376 51.5124 61.376ZM52.7024 62.188V70H50.3084V62.188H52.7024ZM56.8313 59.64V70H54.4373V59.64H56.8313ZM60.9602 59.64V70H58.5662V59.64H60.9602Z" fill="#1B262C"/>
<path d="M26.096 44.432H20.432L19.592 47H14L20.216 30.008H26.36L32.552 47H26.936L26.096 44.432ZM24.8 40.424L23.264 35.696L21.728 40.424H24.8ZM45.8585 38.288C46.8825 38.528 47.6745 39.024 48.2345 39.776C48.8105 40.512 49.0985 41.368 49.0985 42.344C49.0985 43.832 48.6025 44.984 47.6105 45.8C46.6345 46.6 45.2265 47 43.3865 47H34.4825V30.008H43.1465C44.8745 30.008 46.2345 30.384 47.2265 31.136C48.2185 31.888 48.7145 32.984 48.7145 34.424C48.7145 35.416 48.4505 36.256 47.9225 36.944C47.4105 37.616 46.7225 38.064 45.8585 38.288ZM39.8105 36.632H41.8745C42.3545 36.632 42.7065 36.536 42.9305 36.344C43.1705 36.152 43.2905 35.856 43.2905 35.456C43.2905 35.04 43.1705 34.736 42.9305 34.544C42.7065 34.336 42.3545 34.232 41.8745 34.232H39.8105V36.632ZM42.2345 42.728C42.7145 42.728 43.0665 42.64 43.2905 42.464C43.5305 42.272 43.6505 41.968 43.6505 41.552C43.6505 40.736 43.1785 40.328 42.2345 40.328H39.8105V42.728H42.2345ZM51.1287 38.48C51.1287 36.8 51.4647 35.304 52.1367 33.992C52.8247 32.68 53.8007 31.664 55.0647 30.944C56.3287 30.208 57.8167 29.84 59.5287 29.84C61.0007 29.84 62.3127 30.12 63.4647 30.68C64.6327 31.224 65.5767 32 66.2968 33.008C67.0327 34.016 67.5207 35.192 67.7607 36.536H62.1447C61.8887 35.976 61.5207 35.544 61.0407 35.24C60.5767 34.92 60.0407 34.76 59.4327 34.76C58.5367 34.76 57.8247 35.096 57.2967 35.768C56.7847 36.44 56.5287 37.344 56.5287 38.48C56.5287 39.616 56.7847 40.52 57.2967 41.192C57.8247 41.864 58.5367 42.2 59.4327 42.2C60.0407 42.2 60.5767 42.048 61.0407 41.744C61.5207 41.424 61.8887 40.984 62.1447 40.424H67.7607C67.5207 41.768 67.0327 42.944 66.2968 43.952C65.5767 44.96 64.6327 45.744 63.4647 46.304C62.3127 46.848 61.0007 47.12 59.5287 47.12C57.8167 47.12 56.3287 46.76 55.0647 46.04C53.8007 45.304 52.8247 44.28 52.1367 42.968C51.4647 41.656 51.1287 40.16 51.1287 38.48ZM74.6871 36.556C73.6044 36.556 72.7364 36.2667 72.0831 35.688C71.4297 35.1093 71.1031 34.3813 71.1031 33.504C71.1031 32.608 71.4297 31.8707 72.0831 31.292C72.7364 30.6947 73.6044 30.396 74.6871 30.396C75.7511 30.396 76.6097 30.6947 77.2631 31.292C77.9164 31.8707 78.2431 32.608 78.2431 33.504C78.2431 34.3813 77.9164 35.1093 77.2631 35.688C76.6097 36.2667 75.7511 36.556 74.6871 36.556ZM77.8791 42.044L74.9951 50.36H71.0751L72.3911 42.044H77.8791Z" fill="#1B262C"/>
<defs>
<filter id="filter0_d" x="0" y="0" width="94" height="94" filterUnits="userSpaceOnUse" color-interpolation-filters="sRGB">
<feFlood flood-opacity="0" result="BackgroundImageFix"/>
<feColorMatrix in="SourceAlpha" type="matrix" values="0 0 0 0 0 0 0 0 0 0 0 0 0 0 0 0 0 0 127 0" result="hardAlpha"/>
<feMorphology radius="3" operator="dilate" in="SourceAlpha" result="effect1_dropShadow"/>
<feOffset/>
<feGaussianBlur stdDeviation="2"/>
<feComposite in2="hardAlpha" operator="out"/>
<feColorMatrix type="matrix" values="0 0 0 0 1 0 0 0 0 1 0 0 0 0 1 0 0 0 0.25 0"/>
<feBlend mode="normal" in2="BackgroundImageFix" result="effect1_dropShadow"/>
<feBlend mode="normal" in="SourceGraphic" in2="effect1_dropShadow" result="shape"/>
</filter>
</defs>
</svg>
