<svg width="94" height="94" viewBox="0 0 94 94" fill="none" xmlns="http://www.w3.org/2000/svg">
<g filter="url(#filter0_d)">
<rect x="7" y="7" width="80" height="80" rx="10" fill="#BBE1FA"/>
</g>
<path d="M29.358 63.336C29.358 63.9053 29.2273 64.428 28.966 64.904C28.7047 65.3707 28.3033 65.7487 27.762 66.038C27.2207 66.3273 26.5487 66.472 25.746 66.472H24.262V70H21.868V60.172H25.746C26.53 60.172 27.1927 60.3073 27.734 60.578C28.2753 60.8487 28.6813 61.222 28.952 61.698C29.2227 62.174 29.358 62.72 29.358 63.336ZM25.564 64.568C26.0213 64.568 26.362 64.4607 26.586 64.246C26.81 64.0313 26.922 63.728 26.922 63.336C26.922 62.944 26.81 62.6407 26.586 62.426C26.362 62.2113 26.0213 62.104 25.564 62.104H24.262V64.568H25.564ZM32.9983 63.49C33.2783 63.0607 33.6283 62.7247 34.0483 62.482C34.4683 62.23 34.935 62.104 35.4483 62.104V64.638H34.7903C34.193 64.638 33.745 64.7687 33.4463 65.03C33.1477 65.282 32.9983 65.73 32.9983 66.374V70H30.6043V62.188H32.9983V63.49ZM40.1486 70.112C39.3833 70.112 38.6926 69.9487 38.0766 69.622C37.4699 69.2953 36.9893 68.8287 36.6346 68.222C36.2893 67.6153 36.1166 66.906 36.1166 66.094C36.1166 65.2913 36.2939 64.5867 36.6486 63.98C37.0033 63.364 37.4886 62.8927 38.1046 62.566C38.7206 62.2393 39.4113 62.076 40.1766 62.076C40.9419 62.076 41.6326 62.2393 42.2486 62.566C42.8646 62.8927 43.3499 63.364 43.7046 63.98C44.0593 64.5867 44.2366 65.2913 44.2366 66.094C44.2366 66.8967 44.0546 67.606 43.6906 68.222C43.3359 68.8287 42.8459 69.2953 42.2206 69.622C41.6046 69.9487 40.9139 70.112 40.1486 70.112ZM40.1486 68.04C40.6059 68.04 40.9933 67.872 41.3106 67.536C41.6373 67.2 41.8006 66.7193 41.8006 66.094C41.8006 65.4687 41.6419 64.988 41.3246 64.652C41.0166 64.316 40.6339 64.148 40.1766 64.148C39.7099 64.148 39.3226 64.316 39.0146 64.652C38.7066 64.9787 38.5526 65.4593 38.5526 66.094C38.5526 66.7193 38.7019 67.2 39.0006 67.536C39.3086 67.872 39.6913 68.04 40.1486 68.04ZM46.6967 61.376C46.2767 61.376 45.9313 61.2547 45.6607 61.012C45.3993 60.76 45.2687 60.452 45.2687 60.088C45.2687 59.7147 45.3993 59.4067 45.6607 59.164C45.9313 58.912 46.2767 58.786 46.6967 58.786C47.1073 58.786 47.4433 58.912 47.7047 59.164C47.9753 59.4067 48.1107 59.7147 48.1107 60.088C48.1107 60.452 47.9753 60.76 47.7047 61.012C47.4433 61.2547 47.1073 61.376 46.6967 61.376ZM47.9007 71.008C47.9007 71.9693 47.658 72.66 47.1727 73.08C46.6873 73.5093 46.0107 73.724 45.1427 73.724H44.2047V71.694H44.7787C45.04 71.694 45.2267 71.6427 45.3387 71.54C45.4507 71.4373 45.5067 71.2693 45.5067 71.036V62.188H47.9007V71.008ZM56.9859 65.968C56.9859 66.192 56.9719 66.4253 56.9439 66.668H51.5259C51.5632 67.1533 51.7172 67.5267 51.9879 67.788C52.2679 68.04 52.6086 68.166 53.0099 68.166C53.6072 68.166 54.0226 67.914 54.2559 67.41H56.8039C56.6732 67.9233 56.4352 68.3853 56.0899 68.796C55.7539 69.2067 55.3292 69.5287 54.8159 69.762C54.3026 69.9953 53.7286 70.112 53.0939 70.112C52.3286 70.112 51.6472 69.9487 51.0499 69.622C50.4526 69.2953 49.9859 68.8287 49.6499 68.222C49.3139 67.6153 49.1459 66.906 49.1459 66.094C49.1459 65.282 49.3092 64.5727 49.6359 63.966C49.9719 63.3593 50.4386 62.8927 51.0359 62.566C51.6332 62.2393 52.3192 62.076 53.0939 62.076C53.8499 62.076 54.5219 62.2347 55.1099 62.552C55.6979 62.8693 56.1552 63.322 56.4819 63.91C56.8179 64.498 56.9859 65.184 56.9859 65.968ZM54.5359 65.338C54.5359 64.9273 54.3959 64.6007 54.1159 64.358C53.8359 64.1153 53.4859 63.994 53.0659 63.994C52.6646 63.994 52.3239 64.1107 52.0439 64.344C51.7732 64.5773 51.6052 64.9087 51.5399 65.338H54.5359ZM57.7729 66.094C57.7729 65.282 57.9362 64.5727 58.2629 63.966C58.5989 63.3593 59.0609 62.8927 59.6489 62.566C60.2462 62.2393 60.9275 62.076 61.6929 62.076C62.6729 62.076 63.4895 62.3327 64.1429 62.846C64.8055 63.3593 65.2395 64.0827 65.4449 65.016H62.8969C62.6822 64.4187 62.2669 64.12 61.6509 64.12C61.2122 64.12 60.8622 64.2927 60.6009 64.638C60.3395 64.974 60.2089 65.4593 60.2089 66.094C60.2089 66.7287 60.3395 67.2187 60.6009 67.564C60.8622 67.9 61.2122 68.068 61.6509 68.068C62.2669 68.068 62.6822 67.7693 62.8969 67.172H65.4449C65.2395 68.0867 64.8055 68.8053 64.1429 69.328C63.4802 69.8507 62.6635 70.112 61.6929 70.112C60.9275 70.112 60.2462 69.9487 59.6489 69.622C59.0609 69.2953 58.5989 68.8287 58.2629 68.222C57.9362 67.6153 57.7729 66.906 57.7729 66.094ZM71.0794 67.97V70H69.8614C68.9934 70 68.3168 69.79 67.8314 69.37C67.3461 68.9407 67.1034 68.2453 67.1034 67.284V64.176H66.1514V62.188H67.1034V60.284H69.4974V62.188H71.0654V64.176H69.4974V67.312C69.4974 67.5453 69.5534 67.7133 69.6654 67.816C69.7774 67.9187 69.9641 67.97 70.2254 67.97H71.0794Z" fill="#1B262C"/>
<path d="M28.0645 38.1367L38.084 41.6699V46.5918L22.9492 40.1758V36.0273L38.084 29.6113V34.5332L28.0645 38.1367ZM43.8672 51.1973H40.0879L49.5098 23.4062H53.2891L43.8672 51.1973ZM66.1035 38.084L55.8906 34.5156V29.6289L71.2012 36.0449V40.1758L55.8906 46.6094V41.7051L66.1035 38.084Z" fill="#1B262C"/>
<defs>
<filter id="filter0_d" x="0" y="0" width="94" height="94" filterUnits="userSpaceOnUse" color-interpolation-filters="sRGB">
<feFlood flood-opacity="0" result="BackgroundImageFix"/>
<feColorMatrix in="SourceAlpha" type="matrix" values="0 0 0 0 0 0 0 0 0 0 0 0 0 0 0 0 0 0 127 0" result="hardAlpha"/>
<feMorphology radius="3" operator="dilate" in="SourceAlpha" result="effect1_dropShadow"/>
<feOffset/>
<feGaussianBlur stdDeviation="2"/>
<feComposite in2="hardAlpha" operator="out"/>
<feColorMatrix type="matrix" values="0 0 0 0 1 0 0 0 0 1 0 0 0 0 1 0 0 0 0.25 0"/>
<feBlend mode="normal" in2="BackgroundImageFix" result="effect1_dropShadow"/>
<feBlend mode="normal" in="SourceGraphic" in2="effect1_dropShadow" result="shape"/>
</filter>
</defs>
</svg>
