<svg width="94" height="94" viewBox="0 0 94 94" fill="none" xmlns="http://www.w3.org/2000/svg">
<g filter="url(#filter0_d)">
<rect x="7" y="7" width="80" height="80" rx="10" fill="#BBE1FA"/>
</g>
<path d="M18.8007 61.716C18.8007 62.082 18.7167 62.418 18.5487 62.724C18.3807 63.024 18.1227 63.267 17.7747 63.453C17.4267 63.639 16.9947 63.732 16.4787 63.732H15.5247V66H13.9857V59.682H16.4787C16.9827 59.682 17.4087 59.769 17.7567 59.943C18.1047 60.117 18.3657 60.357 18.5397 60.663C18.7137 60.969 18.8007 61.32 18.8007 61.716ZM16.3617 62.508C16.6557 62.508 16.8747 62.439 17.0187 62.301C17.1627 62.163 17.2347 61.968 17.2347 61.716C17.2347 61.464 17.1627 61.269 17.0187 61.131C16.8747 60.993 16.6557 60.924 16.3617 60.924H15.5247V62.508H16.3617ZM21.1409 61.815C21.3209 61.539 21.5459 61.323 21.8159 61.167C22.0859 61.005 22.3859 60.924 22.7159 60.924V62.553H22.2929C21.9089 62.553 21.6209 62.637 21.4289 62.805C21.2369 62.967 21.1409 63.255 21.1409 63.669V66H19.6019V60.978H21.1409V61.815ZM25.7376 66.072C25.2456 66.072 24.8016 65.967 24.4056 65.757C24.0156 65.547 23.7066 65.247 23.4786 64.857C23.2566 64.467 23.1456 64.011 23.1456 63.489C23.1456 62.973 23.2596 62.52 23.4876 62.13C23.7156 61.734 24.0276 61.431 24.4236 61.221C24.8196 61.011 25.2636 60.906 25.7556 60.906C26.2476 60.906 26.6916 61.011 27.0876 61.221C27.4836 61.431 27.7956 61.734 28.0236 62.13C28.2516 62.52 28.3656 62.973 28.3656 63.489C28.3656 64.005 28.2486 64.461 28.0146 64.857C27.7866 65.247 27.4716 65.547 27.0696 65.757C26.6736 65.967 26.2296 66.072 25.7376 66.072ZM25.7376 64.74C26.0316 64.74 26.2806 64.632 26.4846 64.416C26.6946 64.2 26.7996 63.891 26.7996 63.489C26.7996 63.087 26.6976 62.778 26.4936 62.562C26.2956 62.346 26.0496 62.238 25.7556 62.238C25.4556 62.238 25.2066 62.346 25.0086 62.562C24.8106 62.772 24.7116 63.081 24.7116 63.489C24.7116 63.891 24.8076 64.2 24.9996 64.416C25.1976 64.632 25.4436 64.74 25.7376 64.74ZM31.09 60.906C31.444 60.906 31.753 60.978 32.017 61.122C32.287 61.266 32.494 61.455 32.638 61.689V60.978H34.177V65.991C34.177 66.453 34.084 66.87 33.898 67.242C33.718 67.62 33.439 67.92 33.061 68.142C32.689 68.364 32.224 68.475 31.666 68.475C30.922 68.475 30.319 68.298 29.857 67.944C29.395 67.596 29.131 67.122 29.065 66.522H30.586C30.634 66.714 30.748 66.864 30.928 66.972C31.108 67.086 31.33 67.143 31.594 67.143C31.912 67.143 32.164 67.05 32.35 66.864C32.542 66.684 32.638 66.393 32.638 65.991V65.28C32.488 65.514 32.281 65.706 32.017 65.856C31.753 66 31.444 66.072 31.09 66.072C30.676 66.072 30.301 65.967 29.965 65.757C29.629 65.541 29.362 65.238 29.164 64.848C28.972 64.452 28.876 63.996 28.876 63.48C28.876 62.964 28.972 62.511 29.164 62.121C29.362 61.731 29.629 61.431 29.965 61.221C30.301 61.011 30.676 60.906 31.09 60.906ZM32.638 63.489C32.638 63.105 32.53 62.802 32.314 62.58C32.104 62.358 31.846 62.247 31.54 62.247C31.234 62.247 30.973 62.358 30.757 62.58C30.547 62.796 30.442 63.096 30.442 63.48C30.442 63.864 30.547 64.17 30.757 64.398C30.973 64.62 31.234 64.731 31.54 64.731C31.846 64.731 32.104 64.62 32.314 64.398C32.53 64.176 32.638 63.873 32.638 63.489ZM36.8294 61.815C37.0094 61.539 37.2344 61.323 37.5044 61.167C37.7744 61.005 38.0744 60.924 38.4044 60.924V62.553H37.9814C37.5974 62.553 37.3094 62.637 37.1174 62.805C36.9254 62.967 36.8294 63.255 36.8294 63.669V66H35.2904V60.978H36.8294V61.815ZM38.834 63.48C38.834 62.964 38.93 62.511 39.122 62.121C39.32 61.731 39.587 61.431 39.923 61.221C40.259 61.011 40.634 60.906 41.048 60.906C41.402 60.906 41.711 60.978 41.975 61.122C42.245 61.266 42.452 61.455 42.596 61.689V60.978H44.135V66H42.596V65.289C42.446 65.523 42.236 65.712 41.966 65.856C41.702 66 41.393 66.072 41.039 66.072C40.631 66.072 40.259 65.967 39.923 65.757C39.587 65.541 39.32 65.238 39.122 64.848C38.93 64.452 38.834 63.996 38.834 63.48ZM42.596 63.489C42.596 63.105 42.488 62.802 42.272 62.58C42.062 62.358 41.804 62.247 41.498 62.247C41.192 62.247 40.931 62.358 40.715 62.58C40.505 62.796 40.4 63.096 40.4 63.48C40.4 63.864 40.505 64.17 40.715 64.398C40.931 64.62 41.192 64.731 41.498 64.731C41.804 64.731 42.062 64.62 42.272 64.398C42.488 64.176 42.596 63.873 42.596 63.489ZM51.6564 60.924C52.2804 60.924 52.7754 61.113 53.1414 61.491C53.5134 61.869 53.6994 62.394 53.6994 63.066V66H52.1694V63.273C52.1694 62.949 52.0824 62.7 51.9084 62.526C51.7404 62.346 51.5064 62.256 51.2064 62.256C50.9064 62.256 50.6694 62.346 50.4954 62.526C50.3274 62.7 50.2434 62.949 50.2434 63.273V66H48.7134V63.273C48.7134 62.949 48.6264 62.7 48.4524 62.526C48.2844 62.346 48.0504 62.256 47.7504 62.256C47.4504 62.256 47.2134 62.346 47.0394 62.526C46.8714 62.7 46.7874 62.949 46.7874 63.273V66H45.2484V60.978H46.7874V61.608C46.9434 61.398 47.1474 61.233 47.3994 61.113C47.6514 60.987 47.9364 60.924 48.2544 60.924C48.6324 60.924 48.9684 61.005 49.2624 61.167C49.5624 61.329 49.7964 61.56 49.9644 61.86C50.1384 61.584 50.3754 61.359 50.6754 61.185C50.9754 61.011 51.3024 60.924 51.6564 60.924ZM61.1838 60.924C61.8078 60.924 62.3028 61.113 62.6688 61.491C63.0408 61.869 63.2268 62.394 63.2268 63.066V66H61.6968V63.273C61.6968 62.949 61.6098 62.7 61.4358 62.526C61.2678 62.346 61.0338 62.256 60.7338 62.256C60.4338 62.256 60.1968 62.346 60.0228 62.526C59.8548 62.7 59.7708 62.949 59.7708 63.273V66H58.2408V63.273C58.2408 62.949 58.1538 62.7 57.9798 62.526C57.8118 62.346 57.5778 62.256 57.2778 62.256C56.9778 62.256 56.7408 62.346 56.5668 62.526C56.3988 62.7 56.3148 62.949 56.3148 63.273V66H54.7758V60.978H56.3148V61.608C56.4708 61.398 56.6748 61.233 56.9268 61.113C57.1788 60.987 57.4638 60.924 57.7818 60.924C58.1598 60.924 58.4958 61.005 58.7898 61.167C59.0898 61.329 59.3238 61.56 59.4918 61.86C59.6658 61.584 59.9028 61.359 60.2028 61.185C60.5028 61.011 60.8298 60.924 61.1838 60.924ZM65.0771 60.456C64.8071 60.456 64.5851 60.378 64.4111 60.222C64.2431 60.06 64.1591 59.862 64.1591 59.628C64.1591 59.388 64.2431 59.19 64.4111 59.034C64.5851 58.872 64.8071 58.791 65.0771 58.791C65.3411 58.791 65.5571 58.872 65.7251 59.034C65.8991 59.19 65.9861 59.388 65.9861 59.628C65.9861 59.862 65.8991 60.06 65.7251 60.222C65.5571 60.378 65.3411 60.456 65.0771 60.456ZM65.8421 60.978V66H64.3031V60.978H65.8421ZM70.0174 60.924C70.6054 60.924 71.0734 61.116 71.4214 61.5C71.7754 61.878 71.9524 62.4 71.9524 63.066V66H70.4224V63.273C70.4224 62.937 70.3354 62.676 70.1614 62.49C69.9874 62.304 69.7534 62.211 69.4594 62.211C69.1654 62.211 68.9314 62.304 68.7574 62.49C68.5834 62.676 68.4964 62.937 68.4964 63.273V66H66.9574V60.978H68.4964V61.644C68.6524 61.422 68.8624 61.248 69.1264 61.122C69.3904 60.99 69.6874 60.924 70.0174 60.924ZM74.9299 60.906C75.2839 60.906 75.5929 60.978 75.8569 61.122C76.1269 61.266 76.3339 61.455 76.4779 61.689V60.978H78.0169V65.991C78.0169 66.453 77.9239 66.87 77.7379 67.242C77.5579 67.62 77.2789 67.92 76.9009 68.142C76.5289 68.364 76.0639 68.475 75.5059 68.475C74.7619 68.475 74.1589 68.298 73.6969 67.944C73.2349 67.596 72.9709 67.122 72.9049 66.522H74.4259C74.4739 66.714 74.5879 66.864 74.7679 66.972C74.9479 67.086 75.1699 67.143 75.4339 67.143C75.7519 67.143 76.0039 67.05 76.1899 66.864C76.3819 66.684 76.4779 66.393 76.4779 65.991V65.28C76.3279 65.514 76.1209 65.706 75.8569 65.856C75.5929 66 75.2839 66.072 74.9299 66.072C74.5159 66.072 74.1409 65.967 73.8049 65.757C73.4689 65.541 73.2019 65.238 73.0039 64.848C72.8119 64.452 72.7159 63.996 72.7159 63.48C72.7159 62.964 72.8119 62.511 73.0039 62.121C73.2019 61.731 73.4689 61.431 73.8049 61.221C74.1409 61.011 74.5159 60.906 74.9299 60.906ZM76.4779 63.489C76.4779 63.105 76.3699 62.802 76.1539 62.58C75.9439 62.358 75.6859 62.247 75.3799 62.247C75.0739 62.247 74.8129 62.358 74.5969 62.58C74.3869 62.796 74.2819 63.096 74.2819 63.48C74.2819 63.864 74.3869 64.17 74.5969 64.398C74.8129 64.62 75.0739 64.731 75.3799 64.731C75.6859 64.731 75.9439 64.62 76.1539 64.398C76.3699 64.176 76.4779 63.873 76.4779 63.489ZM24.8983 73.812H26.9143V75H23.3593V68.682H24.8983V73.812ZM27.3423 72.48C27.3423 71.964 27.4383 71.511 27.6303 71.121C27.8283 70.731 28.0953 70.431 28.4313 70.221C28.7673 70.011 29.1423 69.906 29.5563 69.906C29.9103 69.906 30.2193 69.978 30.4833 70.122C30.7533 70.266 30.9603 70.455 31.1043 70.689V69.978H32.6433V75H31.1043V74.289C30.9543 74.523 30.7443 74.712 30.4743 74.856C30.2103 75 29.9013 75.072 29.5473 75.072C29.1393 75.072 28.7673 74.967 28.4313 74.757C28.0953 74.541 27.8283 74.238 27.6303 73.848C27.4383 73.452 27.3423 72.996 27.3423 72.48ZM31.1043 72.489C31.1043 72.105 30.9963 71.802 30.7803 71.58C30.5703 71.358 30.3123 71.247 30.0063 71.247C29.7003 71.247 29.4393 71.358 29.2233 71.58C29.0133 71.796 28.9083 72.096 28.9083 72.48C28.9083 72.864 29.0133 73.17 29.2233 73.398C29.4393 73.62 29.7003 73.731 30.0063 73.731C30.3123 73.731 30.5703 73.62 30.7803 73.398C30.9963 73.176 31.1043 72.873 31.1043 72.489ZM36.8167 69.924C37.4047 69.924 37.8727 70.116 38.2207 70.5C38.5747 70.878 38.7517 71.4 38.7517 72.066V75H37.2217V72.273C37.2217 71.937 37.1347 71.676 36.9607 71.49C36.7867 71.304 36.5527 71.211 36.2587 71.211C35.9647 71.211 35.7307 71.304 35.5567 71.49C35.3827 71.676 35.2957 71.937 35.2957 72.273V75H33.7567V69.978H35.2957V70.644C35.4517 70.422 35.6617 70.248 35.9257 70.122C36.1897 69.99 36.4867 69.924 36.8167 69.924ZM41.7292 69.906C42.0832 69.906 42.3922 69.978 42.6562 70.122C42.9262 70.266 43.1332 70.455 43.2772 70.689V69.978H44.8162V74.991C44.8162 75.453 44.7232 75.87 44.5372 76.242C44.3572 76.62 44.0782 76.92 43.7002 77.142C43.3282 77.364 42.8632 77.475 42.3052 77.475C41.5612 77.475 40.9582 77.298 40.4962 76.944C40.0342 76.596 39.7702 76.122 39.7042 75.522H41.2252C41.2732 75.714 41.3872 75.864 41.5672 75.972C41.7472 76.086 41.9692 76.143 42.2332 76.143C42.5512 76.143 42.8032 76.05 42.9892 75.864C43.1812 75.684 43.2772 75.393 43.2772 74.991V74.28C43.1272 74.514 42.9202 74.706 42.6562 74.856C42.3922 75 42.0832 75.072 41.7292 75.072C41.3152 75.072 40.9402 74.967 40.6042 74.757C40.2682 74.541 40.0012 74.238 39.8032 73.848C39.6112 73.452 39.5152 72.996 39.5152 72.48C39.5152 71.964 39.6112 71.511 39.8032 71.121C40.0012 70.731 40.2682 70.431 40.6042 70.221C40.9402 70.011 41.3152 69.906 41.7292 69.906ZM43.2772 72.489C43.2772 72.105 43.1692 71.802 42.9532 71.58C42.7432 71.358 42.4852 71.247 42.1792 71.247C41.8732 71.247 41.6122 71.358 41.3962 71.58C41.1862 71.796 41.0812 72.096 41.0812 72.48C41.0812 72.864 41.1862 73.17 41.3962 73.398C41.6122 73.62 41.8732 73.731 42.1792 73.731C42.4852 73.731 42.7432 73.62 42.9532 73.398C43.1692 73.176 43.2772 72.873 43.2772 72.489ZM50.8886 69.978V75H49.3496V74.316C49.1936 74.538 48.9806 74.718 48.7106 74.856C48.4466 74.988 48.1526 75.054 47.8286 75.054C47.4446 75.054 47.1056 74.97 46.8116 74.802C46.5176 74.628 46.2896 74.379 46.1276 74.055C45.9656 73.731 45.8846 73.35 45.8846 72.912V69.978H47.4146V72.705C47.4146 73.041 47.5016 73.302 47.6756 73.488C47.8496 73.674 48.0836 73.767 48.3776 73.767C48.6776 73.767 48.9146 73.674 49.0886 73.488C49.2626 73.302 49.3496 73.041 49.3496 72.705V69.978H50.8886ZM51.688 72.48C51.688 71.964 51.784 71.511 51.976 71.121C52.174 70.731 52.441 70.431 52.777 70.221C53.113 70.011 53.488 69.906 53.902 69.906C54.256 69.906 54.565 69.978 54.829 70.122C55.099 70.266 55.306 70.455 55.45 70.689V69.978H56.989V75H55.45V74.289C55.3 74.523 55.09 74.712 54.82 74.856C54.556 75 54.247 75.072 53.893 75.072C53.485 75.072 53.113 74.967 52.777 74.757C52.441 74.541 52.174 74.238 51.976 73.848C51.784 73.452 51.688 72.996 51.688 72.48ZM55.45 72.489C55.45 72.105 55.342 71.802 55.126 71.58C54.916 71.358 54.658 71.247 54.352 71.247C54.046 71.247 53.785 71.358 53.569 71.58C53.359 71.796 53.254 72.096 53.254 72.48C53.254 72.864 53.359 73.17 53.569 73.398C53.785 73.62 54.046 73.731 54.352 73.731C54.658 73.731 54.916 73.62 55.126 73.398C55.342 73.176 55.45 72.873 55.45 72.489ZM60.0104 69.906C60.3644 69.906 60.6734 69.978 60.9374 70.122C61.2074 70.266 61.4144 70.455 61.5584 70.689V69.978H63.0974V74.991C63.0974 75.453 63.0044 75.87 62.8184 76.242C62.6384 76.62 62.3594 76.92 61.9814 77.142C61.6094 77.364 61.1444 77.475 60.5864 77.475C59.8424 77.475 59.2394 77.298 58.7774 76.944C58.3154 76.596 58.0514 76.122 57.9854 75.522H59.5064C59.5544 75.714 59.6684 75.864 59.8484 75.972C60.0284 76.086 60.2504 76.143 60.5144 76.143C60.8324 76.143 61.0844 76.05 61.2704 75.864C61.4624 75.684 61.5584 75.393 61.5584 74.991V74.28C61.4084 74.514 61.2014 74.706 60.9374 74.856C60.6734 75 60.3644 75.072 60.0104 75.072C59.5964 75.072 59.2214 74.967 58.8854 74.757C58.5494 74.541 58.2824 74.238 58.0844 73.848C57.8924 73.452 57.7964 72.996 57.7964 72.48C57.7964 71.964 57.8924 71.511 58.0844 71.121C58.2824 70.731 58.5494 70.431 58.8854 70.221C59.2214 70.011 59.5964 69.906 60.0104 69.906ZM61.5584 72.489C61.5584 72.105 61.4504 71.802 61.2344 71.58C61.0244 71.358 60.7664 71.247 60.4604 71.247C60.1544 71.247 59.8934 71.358 59.6774 71.58C59.4674 71.796 59.3624 72.096 59.3624 72.48C59.3624 72.864 59.4674 73.17 59.6774 73.398C59.8934 73.62 60.1544 73.731 60.4604 73.731C60.7664 73.731 61.0244 73.62 61.2344 73.398C61.4504 73.176 61.5584 72.873 61.5584 72.489ZM68.9448 72.408C68.9448 72.552 68.9358 72.702 68.9178 72.858H65.4348C65.4588 73.17 65.5578 73.41 65.7318 73.578C65.9118 73.74 66.1308 73.821 66.3888 73.821C66.7728 73.821 67.0398 73.659 67.1898 73.335H68.8278C68.7438 73.665 68.5908 73.962 68.3688 74.226C68.1528 74.49 67.8798 74.697 67.5498 74.847C67.2198 74.997 66.8508 75.072 66.4428 75.072C65.9508 75.072 65.5128 74.967 65.1288 74.757C64.7448 74.547 64.4448 74.247 64.2288 73.857C64.0128 73.467 63.9048 73.011 63.9048 72.489C63.9048 71.967 64.0098 71.511 64.2198 71.121C64.4358 70.731 64.7358 70.431 65.1198 70.221C65.5038 70.011 65.9448 69.906 66.4428 69.906C66.9288 69.906 67.3608 70.008 67.7388 70.212C68.1168 70.416 68.4108 70.707 68.6208 71.085C68.8368 71.463 68.9448 71.904 68.9448 72.408ZM67.3698 72.003C67.3698 71.739 67.2798 71.529 67.0998 71.373C66.9198 71.217 66.6948 71.139 66.4248 71.139C66.1668 71.139 65.9478 71.214 65.7678 71.364C65.5938 71.514 65.4858 71.727 65.4438 72.003H67.3698Z" fill="#1B262C"/>
<path d="M26.096 44.432H20.432L19.592 47H14L20.216 30.008H26.36L32.552 47H26.936L26.096 44.432ZM24.8 40.424L23.264 35.696L21.728 40.424H24.8ZM45.8585 38.288C46.8825 38.528 47.6745 39.024 48.2345 39.776C48.8105 40.512 49.0985 41.368 49.0985 42.344C49.0985 43.832 48.6025 44.984 47.6105 45.8C46.6345 46.6 45.2265 47 43.3865 47H34.4825V30.008H43.1465C44.8745 30.008 46.2345 30.384 47.2265 31.136C48.2185 31.888 48.7145 32.984 48.7145 34.424C48.7145 35.416 48.4505 36.256 47.9225 36.944C47.4105 37.616 46.7225 38.064 45.8585 38.288ZM39.8105 36.632H41.8745C42.3545 36.632 42.7065 36.536 42.9305 36.344C43.1705 36.152 43.2905 35.856 43.2905 35.456C43.2905 35.04 43.1705 34.736 42.9305 34.544C42.7065 34.336 42.3545 34.232 41.8745 34.232H39.8105V36.632ZM42.2345 42.728C42.7145 42.728 43.0665 42.64 43.2905 42.464C43.5305 42.272 43.6505 41.968 43.6505 41.552C43.6505 40.736 43.1785 40.328 42.2345 40.328H39.8105V42.728H42.2345ZM51.1287 38.48C51.1287 36.8 51.4647 35.304 52.1367 33.992C52.8247 32.68 53.8007 31.664 55.0647 30.944C56.3287 30.208 57.8167 29.84 59.5287 29.84C61.0007 29.84 62.3127 30.12 63.4647 30.68C64.6327 31.224 65.5767 32 66.2968 33.008C67.0327 34.016 67.5207 35.192 67.7607 36.536H62.1447C61.8887 35.976 61.5207 35.544 61.0407 35.24C60.5767 34.92 60.0407 34.76 59.4327 34.76C58.5367 34.76 57.8247 35.096 57.2967 35.768C56.7847 36.44 56.5287 37.344 56.5287 38.48C56.5287 39.616 56.7847 40.52 57.2967 41.192C57.8247 41.864 58.5367 42.2 59.4327 42.2C60.0407 42.2 60.5767 42.048 61.0407 41.744C61.5207 41.424 61.8887 40.984 62.1447 40.424H67.7607C67.5207 41.768 67.0327 42.944 66.2968 43.952C65.5767 44.96 64.6327 45.744 63.4647 46.304C62.3127 46.848 61.0007 47.12 59.5287 47.12C57.8167 47.12 56.3287 46.76 55.0647 46.04C53.8007 45.304 52.8247 44.28 52.1367 42.968C51.4647 41.656 51.1287 40.16 51.1287 38.48ZM74.6871 36.556C73.6044 36.556 72.7364 36.2667 72.0831 35.688C71.4297 35.1093 71.1031 34.3813 71.1031 33.504C71.1031 32.608 71.4297 31.8707 72.0831 31.292C72.7364 30.6947 73.6044 30.396 74.6871 30.396C75.7511 30.396 76.6097 30.6947 77.2631 31.292C77.9164 31.8707 78.2431 32.608 78.2431 33.504C78.2431 34.3813 77.9164 35.1093 77.2631 35.688C76.6097 36.2667 75.7511 36.556 74.6871 36.556ZM77.8791 42.044L74.9951 50.36H71.0751L72.3911 42.044H77.8791Z" fill="#1B262C"/>
<defs>
<filter id="filter0_d" x="0" y="0" width="94" height="94" filterUnits="userSpaceOnUse" color-interpolation-filters="sRGB">
<feFlood flood-opacity="0" result="BackgroundImageFix"/>
<feColorMatrix in="SourceAlpha" type="matrix" values="0 0 0 0 0 0 0 0 0 0 0 0 0 0 0 0 0 0 127 0" result="hardAlpha"/>
<feMorphology radius="3" operator="dilate" in="SourceAlpha" result="effect1_dropShadow"/>
<feOffset/>
<feGaussianBlur stdDeviation="2"/>
<feComposite in2="hardAlpha" operator="out"/>
<feColorMatrix type="matrix" values="0 0 0 0 1 0 0 0 0 1 0 0 0 0 1 0 0 0 0.25 0"/>
<feBlend mode="normal" in2="BackgroundImageFix" result="effect1_dropShadow"/>
<feBlend mode="normal" in="SourceGraphic" in2="effect1_dropShadow" result="shape"/>
</filter>
</defs>
</svg>
